<svg xmlns="http://www.w3.org/2000/svg" viewBox="0 0 1438 798"><defs><style>.cls-1{isolation:isolate;}.cls-2,.cls-3{fill:#fff;}.cls-3{opacity:0.3;mix-blend-mode:screen;}.cls-4{fill:none;}</style></defs><title>logo-portal-turismo</title><g class="cls-1"><g id="Camada_1" data-name="Camada 1"><rect class="cls-2" x="421.1" y="708.76" width="9" height="55" rx="4.5"/><rect class="cls-2" x="397.1" y="731.76" width="57" height="9" rx="4.5"/><path class="cls-2" d="M600.63,736.5c0,6.23,3.08,10.29,8.12,10.29,3.36,0,6-1.4,8-5.32l7.56,3.71c-2.94,6.65-8.82,9.73-15.82,9.73-10,0-17.15-7.63-17.15-18.41s7.13-18.41,17.15-18.41c7,0,12.88,3.08,15.82,9.73l-7.56,3.71c-2.1-3.92-4.69-5.32-8-5.32C603.71,726.21,600.63,730.27,600.63,736.5Zm62.5,0c0,10.71-7.42,18.41-18.21,18.41s-18.13-7.7-18.13-18.41,7.36-18.41,18.13-18.41S663.13,725.86,663.13,736.5Zm-9.24,0c0-6.09-3.36-10.29-9-10.29S636,730.41,636,736.5s3.36,10.29,8.88,10.29S653.89,742.66,653.89,736.5Zm24.28-7V754h-9.1V719h7.42l.63,3.36a16.74,16.74,0,0,1,11.13-4.27c5.39,0,8.4,2,10,5a16.55,16.55,0,0,1,11.84-5c10.29,0,11.76,7.21,11.76,14.49V754h-9.11V732.3c0-4.83-1.4-6.16-4.82-6.16a11.72,11.72,0,0,0-8,3.5c.06,1,.06,2,.06,2.94V754h-9.1V732.3c0-4.83-1.4-6.16-4.83-6.16A12.24,12.24,0,0,0,678.17,729.5Zm60.74,21.71v15h-9.1V719h7.42l.7,4a13.59,13.59,0,0,1,10.29-4.89c9.53,0,16.46,7.7,16.46,18.41s-6.93,18.41-16.46,18.41A13.33,13.33,0,0,1,738.91,751.21Zm16.53-14.71c0-6.23-3.3-10.29-8.26-10.29-5.39,0-8.27,4.06-8.27,10.29s2.88,10.29,8.27,10.29C752.14,746.79,755.44,742.73,755.44,736.5Zm23.78,17.85c-6.3,0-10-3.28-10-10.64V705h9.1v36.76c0,2.87,1.05,4,3.43,4v8.47A24.71,24.71,0,0,1,779.22,754.35Zm12.67-51.88a5.75,5.75,0,1,1-5.74,5.82A5.74,5.74,0,0,1,791.89,702.47ZM787.34,754V719h9.1v35Zm24.29-17.5c0,6.23,3.08,10.29,8.12,10.29,3.36,0,6-1.4,8-5.32l7.56,3.71c-2.94,6.65-8.82,9.73-15.82,9.73-10,0-17.15-7.63-17.15-18.41s7.13-18.41,17.15-18.41c7,0,12.88,3.08,15.82,9.73l-7.56,3.71c-2.1-3.92-4.69-5.32-8-5.32C814.71,726.21,811.63,730.27,811.63,736.5ZM861,750.92A14.69,14.69,0,0,1,851,755c-7,0-13.17-5-13.17-11.84,0-7.42,6.17-11.9,13.65-11.9a11.38,11.38,0,0,1,8.06,3v-3.64c0-2.87-2.31-4.9-6.65-4.9a19.39,19.39,0,0,0-9.53,2.52l-2.59-6.72a27.39,27.39,0,0,1,13.66-3.43c9.45,0,14.21,5.32,14.21,14.07V754h-7.14Zm-14-7.77c0,2.8,2.59,4.62,5.81,4.62s5.74-1.82,5.81-4.62-2.45-4.69-5.81-4.69S847,740.35,847,743.15ZM534.15,725.44c-4.09,0-6.68,2.37-7.52,6.85h14.91C541.12,727.94,538.43,725.44,534.15,725.44Zm-39.27,1c-4.88,0-8,4-8,10.08s3.16,10.08,8,10.08c5,0,8.05-3.77,8.05-10.08S499.92,726.42,494.88,726.42Zm72.87-50.61-87.11,15.67c-7.16,1.29-13,8.32-13,16.8V761.2c0,8.69,5.85,15.57,13,16.93l87.16,16.56c10.61,2,19.29-5.88,19.29-17.19V693.78C587.07,681.29,578.38,673.9,567.75,675.81Zm-55.29,78.41h-7.81l-.66-3.74a13.62,13.62,0,0,1-10.15,4.65c-9.66,0-16.67-7.84-16.67-18.63s7-18.63,16.67-18.63a13.52,13.52,0,0,1,9.09,3.44V704.78h9.53Zm22.45-7.5a9.69,9.69,0,0,0,8.29-5.08l.11-.17,7.66,4-.12.2c-3.84,6.65-8.6,9.49-15.94,9.49-10.63,0-18.34-7.84-18.34-18.63,0-11.14,7.09-18.63,17.65-18.63,10.34,0,17,6.77,17,17.23a26.5,26.5,0,0,1-.35,4.59l0,.18H526.42C527.26,744.29,530.35,746.77,534.91,746.72Zm31.21,8.41a15.18,15.18,0,0,1-7.63-1.93,17.73,17.73,0,0,1-5.92-5.8l-.1-.17,6-4.86.13.15c3.13,3.65,5.22,4.82,8.6,4.82,2.3,0,3.91-1.2,3.91-2.93,0-2.12-1.91-3.18-8.16-4.55s-9.41-5-9.41-11c0-6.45,5.62-11.14,13.38-11.14a14.93,14.93,0,0,1,12.42,6.11l.12.16-5.93,5.33-.14-.2a8.53,8.53,0,0,0-7-3.34c-2.76,0-4.4,1.15-4.4,3.08,0,1.63.93,2.72,5.85,3.85,8.32,1.92,11.86,5.27,11.86,11.2C579.71,750.52,574.12,755.13,566.12,755.13Z"/><polygon class="cls-2" points="487.88 542.57 498.43 527.24 516.02 527.24 498.68 542.57 487.88 542.57"/><path class="cls-2" d="M145.8,580.49c0,4,0,6.54-.38,11.06-1,14.58-11.19,27.27-36.57,27.27s-35.57-12.69-36.7-27.27c-.25-4.52-.25-7-.25-11.06V530.35H91.51v53c0,2.39,0,4,.12,5.78.76,9.43,6.41,15.08,17.22,15.08s16.46-5.65,17.09-15.08a40.07,40.07,0,0,0,.25-5.78v-53H145.8Z"/><path class="cls-2" d="M221.07,579.23v37.83H201.34V582.25c0-2.51,0-5.91-.25-9.3-.5-6.79-4.27-11.06-11.94-11.06s-13.57,7-13.57,24.13v31H155.85v-67h19.73v10.55l5.53-8c4.52-3,9.3-4.27,15.58-4.27,14.08,0,22.25,6.78,23.75,18.47A83.64,83.64,0,0,1,221.07,579.23Z"/><path class="cls-2" d="M252.36,534.12c0,6.15-4.27,10-10.55,10s-10.44-3.9-10.44-10,4.15-9.93,10.44-9.93S252.36,528.08,252.36,534.12ZM232,617.06v-67h19.73v67Z"/><path class="cls-2" d="M450.92,577.48v39.58H431.19V582.5a97.08,97.08,0,0,0-.5-10.18c-.76-6.66-4.28-10.43-10.56-10.43-7.54,0-11.31,6.66-11.31,20.36v34.81H389.21V582.5a94.44,94.44,0,0,0-.5-10.18c-.88-6.66-4.27-10.43-10.68-10.43-7.54,0-11.19,6.66-11.19,20.36v34.81H347.11v-67h19.73v10.43l5-8.3c4-2.64,8.3-3.89,14.45-3.89,11.19,0,18.1,5.53,20.87,12.94l6.78-9c3.9-2.64,8.3-3.89,14.33-3.89,13.07,0,20.48,7.54,22,16.71A85.09,85.09,0,0,1,450.92,577.48Z"/><path class="cls-2" d="M524.43,588.66h-47c1.13,12.82,6.66,16.59,14.08,16.59,6.91,0,11.56-3.77,12.69-10.06h19.48c-3.64,15.46-16.21,23.63-32.55,23.63-18.73,0-33.43-11.43-33.43-35.06,0-20.11,13.45-35.44,34.69-35.44s32.42,16.21,32.42,34.06A59.42,59.42,0,0,1,524.43,588.66Zm-46.49-12.44h26.39c-1.13-9.43-5.53-14.33-12.82-14.33C484.47,561.89,479.57,566.29,477.94,576.22Z"/><path class="cls-2" d="M574.58,548.82v16c-15.59-1-22.25,5.28-22.25,24.26v28H532.6v-67h19.73V562.9l5-9.3a17.74,17.74,0,0,1,12.19-5.28A27.22,27.22,0,0,1,574.58,548.82Z"/><path class="cls-2" d="M599.83,534.12c0,6.15-4.27,10-10.55,10s-10.43-3.9-10.43-10,4.14-9.93,10.43-9.93S599.83,528.08,599.83,534.12Zm-20.36,82.94v-67h19.74v67Z"/><polyline class="cls-2" points="300.62 547.44 333.68 649.97 355.93 649.97 333.53 587.77 333.53 587.77 313.06 530.35 288.68 530.35 257.39 617.06 278.37 617.06 286.42 592.56 310.47 592.56 305.57 577.1 291.32 577.1 300.62 547.44"/><path class="cls-2" d="M672.47,574.83H653.24c-1.38-9.17-6-12.94-12.57-12.94-8.29,0-13.57,6.79-13.57,21,0,15.58,5.41,22.37,13.57,22.37,6,0,10.81-4.15,12.32-11.94h19.48c-2.64,16.84-15.46,25.51-32.93,25.51-18.6,0-32.67-11.94-32.67-34.69,0-23,15.33-35.81,34.31-35.81C659.9,548.32,671.47,559.88,672.47,574.83Z"/><path class="cls-2" d="M717.59,607.26l-3,7.16a30.6,30.6,0,0,1-16.59,4.4c-11.31,0-21.49-6.91-21.49-19.6,0-14.58,12.94-23.13,36.57-23.13h4.27V575a48.73,48.73,0,0,0-.25-5.78c-.37-4-3.39-7.29-9.3-7.29-6.16,0-9.55,3.77-10,10.43H678.88c.37-15.33,13.32-24,29.66-24,19.85,0,27,8.67,28,20.61.25,3.14.38,6.91.38,10.81V600.1a114.93,114.93,0,0,0,1.26,17H719Zm-.26-14.58v-4.9c-12.19-1-20.61,2-20.61,9.8,0,5,3.65,7.67,9,7.67C711.68,605.25,717.33,601,717.33,592.68Z"/><polygon class="cls-3" points="333.68 649.97 355.93 649.97 340.98 608.46 333.68 649.97"/><path class="cls-2" d="M387.4,633.21l0,.31h-3.3l-.07-.31c-.57-2.81-2.3-4.6-5.45-4.6-3.88,0-6.33,3.33-6.33,8.27,0,5.18,2.48,8.39,6.18,8.39,3.15,0,4.88-1.85,5.45-4.66l.06-.31h3.31l0,.31c-.43,4.09-3.49,7.21-8.94,7.21-6,0-9.64-4.43-9.64-10.79,0-6.57,4.12-11,10-11C384.13,626.06,387,629.09,387.4,633.21Z"/><path class="cls-2" d="M409.52,640.27H398c.28,3.85,2,5.12,4.22,5.12a3.65,3.65,0,0,0,3.78-3.21h3.37c-.7,3.82-3.76,5.64-7.27,5.64-4.31,0-7.55-2.73-7.55-8.42,0-5.09,3.24-8.52,7.88-8.52s7.18,3.52,7.18,8.06A12.09,12.09,0,0,1,409.52,640.27ZM398,637.94h8.15c-.25-3-1.55-4.63-3.88-4.63S398.37,634.85,398,637.94Z"/><path class="cls-2" d="M432.06,638.33v9.06h-3.33V638.7c0-.76,0-1.46-.06-2.27a3.05,3.05,0,0,0-3.39-3.1c-2.31,0-4.18,1.82-4.18,6.85v7.21h-3.34V631.3h3.34V634l1.09-1.85a6,6,0,0,1,4.06-1.24c3.45,0,5.42,1.79,5.72,4.61C432,636.3,432.06,637,432.06,638.33Z"/><path class="cls-2" d="M445.09,642.18c0,.55,0,.91,0,1.34.13,1.57.73,1.9,2.91,1.69v2.31a17,17,0,0,1-2.45.18c-2.52,0-3.61-.94-3.76-3.06,0-.55,0-1.25,0-2.15v-8.73h-2.27v-2.33h2.27v-3.85h3.3v3.85h3.15v2.33h-3.15Z"/><path class="cls-2" d="M464.58,631.09v2.61c-3.06-.21-5,1.36-5,5.33v8.36h-3.33V631.3h3.33V634l1.36-2.21a4.17,4.17,0,0,1,2.49-.91A3.13,3.13,0,0,1,464.58,631.09Z"/><path class="cls-2" d="M486.79,639.33c0,4.7-2.76,8.49-8.15,8.49s-8.15-3.79-8.15-8.49,2.73-8.45,8.15-8.45S486.79,634.64,486.79,639.33Zm-3.55,0c0-3.63-1.69-6-4.6-6s-4.64,2.39-4.64,6,1.7,6.06,4.64,6.06S483.24,643,483.24,639.33Z"/><path class="cls-2" d="M522.94,639.3c0,.76,0,1.37-.06,2.15-.3,3.49-2.7,6.37-8.15,6.37s-7.85-2.88-8.12-6.37c-.06-.78-.06-1.39-.06-2.15V626.49h3.3v12.87a14.64,14.64,0,0,0,.06,1.7c.21,2.52,1.82,4.21,4.82,4.21s4.63-1.69,4.85-4.21a14.64,14.64,0,0,0,.06-1.7V626.49h3.3Z"/><path class="cls-2" d="M546.21,638.33v9.06h-3.33V638.7c0-.76,0-1.46-.06-2.27a3.05,3.05,0,0,0-3.4-3.1c-2.3,0-4.18,1.82-4.18,6.85v7.21h-3.33V631.3h3.33V634l1.09-1.85a6.07,6.07,0,0,1,4.06-1.24c3.46,0,5.43,1.79,5.73,4.61C546.18,636.3,546.21,637,546.21,638.33Z"/><path class="cls-2" d="M558.91,627.61a1.91,1.91,0,0,1-2,1.94,1.93,1.93,0,1,1,2-1.94Zm-3.64,19.78V631.3h3.34v16.09Z"/><path class="cls-2" d="M575.85,647.39H572l-6.15-16.09h3.66L574,644.94l4.45-13.64H582Z"/><path class="cls-2" d="M602.57,640.27H591c.27,3.85,2,5.12,4.21,5.12a3.66,3.66,0,0,0,3.79-3.21h3.36c-.69,3.82-3.76,5.64-7.27,5.64-4.3,0-7.54-2.73-7.54-8.42,0-5.09,3.24-8.52,7.87-8.52s7.18,3.52,7.18,8.06A12.09,12.09,0,0,1,602.57,640.27Zm-11.51-2.33h8.15c-.24-3-1.55-4.63-3.88-4.63S591.42,634.85,591.06,637.94Z"/><path class="cls-2" d="M619.12,631.09v2.61c-3.06-.21-5,1.36-5,5.33v8.36h-3.33V631.3h3.33V634l1.36-2.21a4.17,4.17,0,0,1,2.49-.91A3.13,3.13,0,0,1,619.12,631.09Z"/><path class="cls-2" d="M637.82,635.91h-3.4a2.91,2.91,0,0,0-3-2.7,2,2,0,0,0-2.33,2.09c0,1.46,1.18,2.07,3.57,2.7,3.52.91,5.37,2.3,5.37,5.15,0,3.12-2.76,4.67-6.27,4.67s-6.21-1.61-6.67-5.24h3.36a3.23,3.23,0,0,0,3.43,2.87c1.54,0,2.79-.66,2.79-2.06s-1.1-2.15-3.82-2.87c-2.94-.76-5.12-2-5.12-4.82,0-3,2.36-4.82,5.94-4.82S637.45,633,637.82,635.91Z"/><path class="cls-2" d="M649.57,627.61a1.9,1.9,0,0,1-2,1.94,1.93,1.93,0,1,1,0-3.85A1.89,1.89,0,0,1,649.57,627.61Zm-3.63,19.78V631.3h3.33v16.09Z"/><path class="cls-2" d="M662.51,642.18c0,.55,0,.91,0,1.34.13,1.57.73,1.9,2.91,1.69v2.31a17.14,17.14,0,0,1-2.45.18c-2.52,0-3.61-.94-3.76-3.06,0-.55,0-1.25,0-2.15v-8.73h-2.27v-2.33h2.27v-3.85h3.3v3.85h3.15v2.33h-3.15Z"/><path class="cls-2" d="M682.66,645.06l-.82,1.73a7,7,0,0,1-4,1c-2.84,0-5.18-1.64-5.18-4.64,0-3.57,2.85-5.51,8.94-5.51h1v-.4a17.06,17.06,0,0,0-.06-1.75c-.09-1.31-.91-2.21-2.82-2.21s-2.93,1.09-3.12,3.09H673.3c.21-3.52,2.85-5.52,6.51-5.52,4.16,0,5.79,1.76,6.06,4.48.07.67.09,1.52.09,2.28v5.66a28.19,28.19,0,0,0,.31,4.09H683Zm0-3.7v-1.48c-3.91-.3-6.45.58-6.45,3,0,1.7,1.12,2.48,2.88,2.48C681.15,645.39,682.63,644,682.63,641.36Zm-4-11.48,2.09-3.45h3l-3.12,3.45Z"/><path class="cls-2" d="M703.51,631.09v2.61c-3.06-.21-5,1.36-5,5.33v8.36h-3.33V631.3h3.33V634l1.37-2.21a4.12,4.12,0,0,1,2.48-.91A3.09,3.09,0,0,1,703.51,631.09Z"/><path class="cls-2" d="M714.54,627.61a1.91,1.91,0,0,1-2,1.94,1.93,1.93,0,1,1,2-1.94Zm-3.63,19.78V631.3h3.33v16.09Z"/><path class="cls-2" d="M738.6,639.33c0,4.7-2.76,8.49-8.15,8.49s-8.15-3.79-8.15-8.49,2.73-8.45,8.15-8.45S738.6,634.64,738.6,639.33Zm-3.55,0c0-3.63-1.69-6-4.6-6s-4.64,2.39-4.64,6,1.7,6.06,4.64,6.06S735.05,643,735.05,639.33Z"/><polygon class="cls-3" points="291.53 576.55 299.28 551.71 291.51 576.47 291.53 576.55"/><polygon class="cls-3" points="299.28 551.71 305.94 530.35 288.68 530.35 284.44 542.11 291.32 577.1 299.28 551.71"/><rect class="cls-2" x="1" y="4.05" width="29" height="477"/><path class="cls-2" d="M106.43,5c18,0,29.69,11.38,29.69,28.86S124.4,62.6,106.43,62.6H83.11V99.65H73.4V5ZM83.11,53.78h16.8c16.65,0,26.29-4.16,26.29-19.91,0-12.63-7.35-20-20.12-20h-23Z"/><path class="cls-2" d="M148.81,45.25C148.81,18.89,163.45,3,186.07,3s37.05,15.89,37.05,42.32V60.17c0,26.36-14.64,41.56-37.26,41.56s-37.05-15.2-37.05-41.56Zm9.65,15.06c0,21.57,11.59,32.54,27.47,32.54s27.48-11,27.48-32.54V45.18c0-21.65-11.52-33.37-27.48-33.37s-27.47,11.72-27.47,33.37Z"/><path class="cls-2" d="M305.89,32.62c0,15.34-9.09,23.18-18.25,26.16l19.92,40.87H296.39L277.93,60.79H253V99.65h-9.71V5h32.95C296.39,5,305.89,17.84,305.89,32.62ZM274.6,52c13.88,0,21.3-6.87,21.3-18.73,0-12.63-8.12-19.43-20.88-19.43H253V52Z"/><path class="cls-2" d="M345.57,99.65V13.82H316.09V5H384.7v8.81H355.15V99.65Z"/><path class="cls-2" d="M382.41,99.65,416.41,5H426l33.93,94.64H449.78L439.51,69.81h-36.7l-10.2,29.84ZM421.06,17,405.58,61.83h31.16L421.33,17Z"/><path class="cls-2" d="M529.08,99.65H474.41V5h9.71V90.83h45Z"/><path class="cls-2" d="M600.47,5c27.82,0,41.7,16.58,41.7,47.32s-13.74,47.32-41.7,47.32H571.88V5ZM581.6,90.77h18.59c21.58,0,31.92-13.26,31.92-38.44s-10.34-38.44-31.92-38.44H581.6Z"/><path class="cls-2" d="M716.75,99.65H661.17V5h55.58v8.88H670.89v33h43.36v8.81H670.89V90.77h45.86Z"/><path class="cls-2" d="M108.79,280.57V170.74h-37V134.87h118.9v35.87h-37V280.57Z"/><path class="cls-2" d="M246.9,223.89c0,16.12,8.33,22.42,19.64,22.42s19.64-6.62,19.64-22.42v-89H331v95.32c0,32.13-24.55,52.83-64.47,52.83s-64.47-20.7-64.47-52.83V134.87H246.9Z"/><path class="cls-2" d="M478.52,185c0,24.12-17.29,37.57-25.51,41.31l28.6,54.22h-49.2L409,232H397.82v48.57H354V134.87h66.81C458.88,134.87,478.52,154.94,478.52,185Zm-64.58,17.08c9.82,0,18.36-5.45,18.36-17.29s-9-17.83-18.36-17.83H397.82v35.12Z"/><path class="cls-2" d="M496.34,280.57V134.87h44.83v145.7Z"/><path class="cls-2" d="M601.58,236c.22,6.83,7.37,14.2,21.35,14.2,13.66,0,18.36-5.45,18.36-11.42,0-7.47-7.26-10-20.39-12.38l-17.61-3.1c-24-4.27-41.41-16.33-41.41-43.33,0-30.1,24.23-47.39,60.52-47.39,41.2,0,59.66,23.37,59.66,46.11H641.5c-.21-6.09-6.08-13.77-19-13.77-11.42,0-16.22,5.23-16.22,11.42s7.15,9.5,19,11.31L644,190.48c20.17,3,41.09,13.34,41.09,43.44,0,28.4-20.39,49.1-63.08,49.1-47.82,0-62.33-24.65-62.44-47.07Z"/><path class="cls-2" d="M703.19,280.57V134.87h46.86l31.17,65h1.49l31.28-65h46.43v145.7H820.18V199.34h-2l-24.76,53.58H769.9l-25-53.58h-2.14v81.23Z"/><path class="cls-2" d="M879,200.84c0-41.42,24.33-68.31,68.84-68.31s68.74,27.21,68.74,68.31v14.3c0,40.88-24.12,67.88-68.74,67.88S879,256,879,215.14Zm45.89,14.51c0,21,8.65,32.13,23,32.13s22.84-11.1,22.84-32.13V200.2c0-20.92-8.64-32.13-22.84-32.13s-23,11.21-23,32.13Z"/><path class="cls-2" d="M172.19,471.17c-7.48,6.3-22.31,12.49-43.34,12.49-34.37,0-52.94-16.33-52.94-40.45,0-18,10.35-28.71,24.87-37.14q3.84-2.25,8-4.17c-11.43-11.52-18-20.7-18-32.87,0-22,21.45-35.33,46-35.33,20.81,0,44.4,9.61,44.4,34.05,0,19.32-14.73,31.16-27.64,38.42l19,20.5c2.77-4.59,3.3-10.78,3.3-15.8v-11.1h32.77v14.52c0,11.84-4.16,26.57-12.7,36.6l28.82,29.68H181.15Zm-58.71-31.48c0,9.71,8.22,16,19.85,16,7.48,0,14.95-2.56,18.47-6.62l-25.4-26.9a22.84,22.84,0,0,0-3.21,1.6C118.39,426.67,113.48,432.22,113.48,439.69Zm35.33-68.31c0-7.9-5.34-12.49-11.95-12.49a12,12,0,0,0-12.38,12.27c0,5.66,3.2,10,11.31,17.61C143.79,384.51,148.81,379.06,148.81,371.38Z"/><path class="cls-2" d="M365,480.57V425.39H322.79v55.18H278V334.87h44.83v55H365v-55h44.83v145.7Z"/><path class="cls-2" d="M428.35,400.84c0-41.42,24.34-68.31,68.85-68.31s68.73,27.21,68.73,68.31v14.3C565.93,456,541.81,483,497.2,483s-68.85-27-68.85-67.88Zm45.9,14.51c0,21,8.64,32.13,22.95,32.13S520,436.38,520,415.35V400.2c0-20.92-8.65-32.13-22.84-32.13s-22.95,11.21-22.95,32.13Z"/><path class="cls-2" d="M609,480.57V370.74h-37V334.87h118.9v35.87h-37V480.57Z"/><path class="cls-2" d="M807.69,480.57H703.83V334.87H807.69v34.48H748.13V392.3h55.61v31.16H748.13v22.63h59.56Z"/><path class="cls-2" d="M927.34,480.57H829V334.87h44.82v109h53.48Z"/><path class="cls-2" d="M935.77,480.57,980,334.87h56.78l43.76,145.7h-47.81l-6.3-27.54H986.58l-6.51,27.54Zm69.91-108.66-11.74,49.63h25.3l-11.32-49.63Z"/><path class="cls-2" d="M1217.34,385c0,24.12-17.29,37.57-25.51,41.31l28.6,54.22h-49.2L1147.85,432h-11.2v48.57h-43.87V334.87h66.81C1197.7,334.87,1217.34,354.94,1217.34,385Zm-64.58,17.08c9.82,0,18.36-5.45,18.36-17.29s-9-17.83-18.36-17.83h-16.11v35.12Z"/><path class="cls-2" d="M1235.16,480.57V334.87H1280v145.7Z"/><path class="cls-2" d="M1292.27,480.57l44.19-145.7h56.78L1437,480.57h-47.82l-6.3-27.54h-39.81l-6.51,27.54Zm69.91-108.66-11.74,49.63h25.29l-11.31-49.63Z"/><polyline class="cls-4" points="53 728.28 53 447.64 754.6 447.64 754.6 728.28"/></g></g></svg>