<svg xmlns="http://www.w3.org/2000/svg" xmlns:xlink="http://www.w3.org/1999/xlink" viewBox="0 0 1438 798"><defs><style>.cls-1{isolation:isolate;}.cls-2{fill:#14336a;}.cls-3{fill:#66ac2f;}.cls-4{fill:#fff;opacity:0.3;mix-blend-mode:screen;}.cls-5{fill:#00e78e;}.cls-6{fill:url(#Gradiente_sem_nome_25);}</style><linearGradient id="Gradiente_sem_nome_25" x1="130.65" y1="308.4" x2="-97.65" y2="176.59" gradientUnits="userSpaceOnUse"><stop offset="0" stop-color="#0061e3"/><stop offset="0.81" stop-color="#e96a14"/><stop offset="0.88" stop-color="#ff6b00"/></linearGradient></defs><title>logo-portal-turismo</title><g class="cls-1"><g id="Camada_1" data-name="Camada 1"><rect x="421" y="707.6" width="9" height="55" rx="4.5"/><rect x="397" y="730.6" width="57" height="9" rx="4.5"/><polygon class="cls-2" points="489.84 543.18 500.39 527.85 517.98 527.85 500.64 543.18 489.84 543.18"/><path class="cls-2" d="M147.84,581.09c0,4,0,6.53-.37,11-1,14.58-11.18,27.27-36.56,27.27s-35.56-12.69-36.69-27.27c-.25-4.52-.25-7-.25-11V531h19.6v53c0,2.38,0,4,.12,5.78.76,9.42,6.41,15.07,17.22,15.07s16.45-5.65,17.08-15.07a40.14,40.14,0,0,0,.25-5.78V531h19.6Z"/><path class="cls-2" d="M223.1,579.83v37.82H203.38v-34.8c0-2.52,0-5.91-.26-9.3-.5-6.79-4.27-11.06-11.93-11.06s-13.57,7-13.57,24.13v31H157.89v-67h19.73v10.56l5.53-8c4.52-3,9.29-4.28,15.58-4.28,14.07,0,22.24,6.79,23.74,18.47A83.64,83.64,0,0,1,223.1,579.83Z"/><path class="cls-2" d="M254.38,534.73c0,6.15-4.27,10-10.55,10s-10.43-3.9-10.43-10,4.15-9.93,10.43-9.93S254.38,528.69,254.38,534.73ZM234,617.65v-67h19.73v67Z"/><path class="cls-3" d="M452.89,578.07v39.58H433.17V583.1a94.39,94.39,0,0,0-.51-10.18c-.75-6.66-4.27-10.43-10.55-10.43-7.54,0-11.31,6.66-11.31,20.36v34.8H391.2V583.1a94.31,94.31,0,0,0-.5-10.18c-.88-6.66-4.27-10.43-10.68-10.43-7.54,0-11.18,6.66-11.18,20.36v34.8H349.11v-67h19.73v10.43l5-8.29c4-2.64,8.3-3.9,14.45-3.9,11.18,0,18.09,5.53,20.86,12.94l6.78-9c3.9-2.64,8.3-3.9,14.33-3.9,13.06,0,20.48,7.54,22,16.71A83.64,83.64,0,0,1,452.89,578.07Z"/><path class="cls-3" d="M526.39,589.25h-47c1.13,12.82,6.66,16.59,14.07,16.59,6.91,0,11.56-3.77,12.69-10.05h19.47c-3.64,15.45-16.2,23.62-32.54,23.62-18.72,0-33.42-11.43-33.42-35.06,0-20.1,13.44-35.43,34.68-35.43s32.41,16.21,32.41,34.05A61.59,61.59,0,0,1,526.39,589.25ZM479.9,576.82h26.38c-1.13-9.43-5.52-14.33-12.81-14.33C486.43,562.49,481.53,566.89,479.9,576.82Z"/><path class="cls-3" d="M576.52,549.43v16c-15.58-1-22.24,5.28-22.24,24.25v28H534.55v-67h19.73V563.5l5-9.3a17.77,17.77,0,0,1,12.19-5.28A26.29,26.29,0,0,1,576.52,549.43Z"/><path class="cls-3" d="M601.77,534.73c0,6.15-4.27,10-10.56,10s-10.42-3.9-10.42-10,4.14-9.93,10.42-9.93S601.77,528.69,601.77,534.73Zm-20.36,82.92v-67h19.73v67Z"/><polyline class="cls-3" points="302.63 548.04 335.69 650.54 357.92 650.54 335.53 588.36 335.53 588.36 315.07 530.96 290.69 530.96 259.41 617.65 280.39 617.65 288.43 593.15 312.48 593.15 307.58 577.7 293.33 577.7 302.63 548.04"/><path class="cls-3" d="M674.39,575.43H655.16c-1.38-9.17-6-12.94-12.56-12.94-8.29,0-13.57,6.79-13.57,21,0,15.58,5.4,22.37,13.57,22.37,6,0,10.8-4.15,12.31-11.94h19.48c-2.64,16.84-15.46,25.51-32.92,25.51-18.6,0-32.67-11.94-32.67-34.68,0-23,15.33-35.81,34.3-35.81C661.82,548.92,673.38,560.48,674.39,575.43Z"/><path class="cls-3" d="M719.49,607.85l-3,7.16a30.6,30.6,0,0,1-16.59,4.4c-11.31,0-21.48-6.91-21.48-19.6,0-14.58,12.94-23.12,36.56-23.12h4.27v-1.13a48.73,48.73,0,0,0-.25-5.78c-.38-4-3.39-7.29-9.3-7.29-6.16,0-9.55,3.77-10.05,10.43H680.79c.38-15.33,13.32-24,29.65-24,19.86,0,27,8.67,28,20.61.25,3.14.38,6.91.38,10.8v20.36a114.93,114.93,0,0,0,1.26,17H720.87Zm-.25-14.58v-4.9c-12.19-1-20.61,2-20.61,9.8,0,5,3.65,7.67,9,7.67C713.59,605.84,719.24,601.57,719.24,593.27Z"/><polygon class="cls-4" points="335.69 650.54 357.92 650.54 342.98 609.05 335.69 650.54"/><path class="cls-2" d="M389.39,633.8l0,.3h-3.31l-.06-.3c-.57-2.82-2.3-4.61-5.45-4.61-3.88,0-6.33,3.33-6.33,8.27,0,5.18,2.48,8.39,6.18,8.39,3.15,0,4.88-1.84,5.45-4.66l.06-.3h3.3l0,.3c-.42,4.09-3.48,7.21-8.93,7.21-6,0-9.63-4.43-9.63-10.79,0-6.57,4.12-11,10-11C386.11,626.65,389,629.68,389.39,633.8Z"/><path class="cls-2" d="M411.5,640.86H400c.27,3.84,2,5.11,4.21,5.11a3.67,3.67,0,0,0,3.79-3.21h3.36c-.7,3.82-3.76,5.64-7.27,5.64-4.3,0-7.54-2.73-7.54-8.42,0-5.09,3.24-8.51,7.87-8.51s7.18,3.51,7.18,8A12.25,12.25,0,0,1,411.5,640.86ZM400,638.52h8.15c-.24-3-1.55-4.63-3.88-4.63S400.35,635.43,400,638.52Z"/><path class="cls-2" d="M434,638.92V648h-3.33v-8.69c0-.76,0-1.45-.06-2.27a3,3,0,0,0-3.39-3.09c-2.31,0-4.19,1.82-4.19,6.84V648h-3.33V631.89h3.33v2.66l1.09-1.84a6.07,6.07,0,0,1,4.06-1.24c3.46,0,5.43,1.78,5.73,4.6C434,636.89,434,637.61,434,638.92Z"/><path class="cls-2" d="M447.07,642.76c0,.55,0,.91,0,1.34.12,1.57.72,1.9,2.91,1.69v2.31a17.28,17.28,0,0,1-2.46.18c-2.51,0-3.6-.94-3.75-3.06,0-.55,0-1.25,0-2.15v-8.73h-2.28V632h2.28v-3.85h3.3V632h3.15v2.33h-3.15Z"/><path class="cls-2" d="M466.55,631.68v2.6c-3.06-.21-5,1.37-5,5.33V648h-3.33V631.89h3.33v2.73l1.36-2.22a4.24,4.24,0,0,1,2.49-.91A3.16,3.16,0,0,1,466.55,631.68Z"/><path class="cls-2" d="M488.75,639.92c0,4.69-2.75,8.48-8.15,8.48s-8.14-3.79-8.14-8.48,2.72-8.45,8.14-8.45S488.75,635.22,488.75,639.92Zm-3.54,0c0-3.64-1.7-6-4.61-6s-4.63,2.39-4.63,6,1.7,6.05,4.63,6.05S485.21,643.55,485.21,639.92Z"/><path class="cls-2" d="M524.89,639.89c0,.75,0,1.36-.06,2.15-.3,3.48-2.69,6.36-8.15,6.36s-7.84-2.88-8.11-6.36c-.06-.79-.06-1.4-.06-2.15V627.07h3.3V640a14.55,14.55,0,0,0,.06,1.69c.21,2.52,1.82,4.21,4.81,4.21s4.64-1.69,4.85-4.21a14.55,14.55,0,0,0,.06-1.69V627.07h3.3Z"/><path class="cls-2" d="M548.16,638.92V648h-3.33v-8.69c0-.76,0-1.45-.06-2.27a3,3,0,0,0-3.4-3.09c-2.3,0-4.18,1.82-4.18,6.84V648h-3.33V631.89h3.33v2.66l1.09-1.84a6.07,6.07,0,0,1,4.06-1.24c3.46,0,5.43,1.78,5.73,4.6C548.13,636.89,548.16,637.61,548.16,638.92Z"/><path class="cls-2" d="M560.85,628.19a1.9,1.9,0,0,1-2,1.94,1.92,1.92,0,1,1,2-1.94ZM557.22,648V631.89h3.33V648Z"/><path class="cls-2" d="M577.79,648h-3.88l-6.15-16.08h3.67l4.51,13.63,4.45-13.63h3.55Z"/><path class="cls-2" d="M604.51,640.86H593c.27,3.84,2,5.11,4.21,5.11a3.65,3.65,0,0,0,3.78-3.21h3.37c-.7,3.82-3.76,5.64-7.27,5.64-4.31,0-7.55-2.73-7.55-8.42,0-5.09,3.24-8.51,7.88-8.51s7.18,3.51,7.18,8A12.25,12.25,0,0,1,604.51,640.86ZM593,638.52h8.14c-.24-3-1.54-4.63-3.87-4.63S593.36,635.43,593,638.52Z"/><path class="cls-2" d="M621.05,631.68v2.6c-3.06-.21-5,1.37-5,5.33V648h-3.33V631.89h3.33v2.73l1.36-2.22a4.24,4.24,0,0,1,2.49-.91A3.12,3.12,0,0,1,621.05,631.68Z"/><path class="cls-2" d="M639.74,636.49h-3.39a2.92,2.92,0,0,0-3-2.69c-1.58,0-2.33.88-2.33,2.09,0,1.45,1.18,2.06,3.57,2.69,3.51.91,5.36,2.31,5.36,5.15,0,3.12-2.75,4.67-6.27,4.67s-6.21-1.61-6.66-5.24h3.36a3.22,3.22,0,0,0,3.42,2.87c1.55,0,2.79-.66,2.79-2.06s-1.09-2.14-3.82-2.87c-2.93-.76-5.11-2-5.11-4.82,0-3,2.36-4.81,5.93-4.81S639.38,633.55,639.74,636.49Z"/><path class="cls-2" d="M651.5,628.19a1.91,1.91,0,0,1-2,1.94,1.92,1.92,0,1,1,2-1.94ZM647.86,648V631.89h3.33V648Z"/><path class="cls-2" d="M664.43,642.76c0,.55,0,.91,0,1.34.12,1.57.73,1.9,2.91,1.69v2.31a17.25,17.25,0,0,1-2.45.18c-2.52,0-3.61-.94-3.76-3.06,0-.55,0-1.25,0-2.15v-8.73h-2.27V632h2.27v-3.85h3.3V632h3.15v2.33h-3.15Z"/><path class="cls-2" d="M684.58,645.64l-.82,1.73a7,7,0,0,1-4,1c-2.85,0-5.18-1.64-5.18-4.64,0-3.57,2.85-5.51,8.94-5.51h1v-.39a17.25,17.25,0,0,0-.06-1.76c-.1-1.3-.91-2.21-2.82-2.21s-2.94,1.09-3.12,3.09h-3.33c.21-3.52,2.84-5.51,6.51-5.51,4.15,0,5.78,1.75,6.06,4.48.06.66.09,1.51.09,2.27v5.66a28,28,0,0,0,.3,4.09h-3.3Zm0-3.69v-1.49c-3.91-.3-6.46.58-6.46,3,0,1.7,1.13,2.48,2.88,2.48C683.06,646,684.55,644.55,684.55,642Zm-4-11.48,2.09-3.46h3l-3.12,3.46Z"/><path class="cls-2" d="M705.42,631.68v2.6c-3.06-.21-5,1.37-5,5.33V648h-3.33V631.89h3.33v2.73l1.37-2.22a4.19,4.19,0,0,1,2.48-.91A3.12,3.12,0,0,1,705.42,631.68Z"/><path class="cls-2" d="M716.45,628.19a1.91,1.91,0,0,1-2,1.94,1.92,1.92,0,1,1,2-1.94ZM712.81,648V631.89h3.33V648Z"/><path class="cls-2" d="M740.5,639.92c0,4.69-2.76,8.48-8.15,8.48s-8.15-3.79-8.15-8.48,2.73-8.45,8.15-8.45S740.5,635.22,740.5,639.92Zm-3.54,0c0-3.64-1.7-6-4.61-6s-4.63,2.39-4.63,6,1.69,6.05,4.63,6.05S737,643.55,737,639.92Z"/><polygon class="cls-4" points="293.54 577.15 301.29 552.31 293.53 577.07 293.54 577.15"/><polygon class="cls-4" points="301.29 552.31 307.95 530.96 290.69 530.96 286.45 542.71 293.33 577.7 301.29 552.31"/><path class="cls-5" d="M568.54,676.33,481.25,692c-7.17,1.29-13.05,8.34-13.05,16.83v53c0,8.71,5.87,15.6,13,17l87.33,16.6c10.63,2,19.33-5.89,19.33-17.22V694.34C587.9,681.82,579.19,674.42,568.54,676.33Z"/><path d="M601.48,737.14c0,6.25,3.09,10.31,8.14,10.31,3.37,0,6-1.4,8.07-5.33l7.58,3.72c-2.95,6.67-8.84,9.75-15.86,9.75-10,0-17.19-7.65-17.19-18.45s7.16-18.45,17.19-18.45c7,0,12.91,3.09,15.86,9.75l-7.58,3.72c-2.11-3.93-4.7-5.33-8.07-5.33C604.57,726.83,601.48,730.9,601.48,737.14Z"/><path d="M664.11,737.14c0,10.74-7.43,18.45-18.24,18.45s-18.17-7.71-18.17-18.45,7.37-18.45,18.17-18.45S664.11,726.48,664.11,737.14Zm-9.26,0c0-6.1-3.36-10.31-9-10.31S637,731,637,737.14s3.37,10.31,8.91,10.31S654.85,743.32,654.85,737.14Z"/><path d="M679.18,730.12v24.56h-9.12V719.6h7.44l.63,3.37a16.76,16.76,0,0,1,11.16-4.28c5.4,0,8.42,2,10,5a16.59,16.59,0,0,1,11.86-5c10.31,0,11.78,7.23,11.78,14.53v21.46h-9.12V732.93c0-4.84-1.41-6.17-4.84-6.17a11.8,11.8,0,0,0-8,3.5c.07,1,.07,2,.07,3v21.46H692V732.93c0-4.84-1.4-6.17-4.84-6.17A12.29,12.29,0,0,0,679.18,730.12Z"/><path d="M740.05,751.88V767h-9.12V719.6h7.44l.7,4a13.6,13.6,0,0,1,10.31-4.91c9.54,0,16.49,7.72,16.49,18.45s-7,18.45-16.49,18.45A13.37,13.37,0,0,1,740.05,751.88Zm16.56-14.74c0-6.24-3.3-10.31-8.28-10.31-5.4,0-8.28,4.07-8.28,10.31s2.88,10.31,8.28,10.31C753.31,747.45,756.61,743.39,756.61,737.14Z"/><path d="M780.44,755c-6.31,0-10-3.29-10-10.66v-38.8h9.12V742.4c0,2.88,1.05,4,3.44,4v8.49A25.09,25.09,0,0,1,780.44,755Z"/><path d="M793.13,703a5.76,5.76,0,1,1-5.75,5.83A5.76,5.76,0,0,1,793.13,703Zm-4.56,51.64V719.6h9.13v35.08Z"/><path d="M812.91,737.14c0,6.25,3.09,10.31,8.14,10.31,3.37,0,6-1.4,8.07-5.33l7.57,3.72c-2.94,6.67-8.84,9.75-15.85,9.75-10,0-17.19-7.65-17.19-18.45s7.15-18.45,17.19-18.45c7,0,12.91,3.09,15.85,9.75l-7.57,3.72c-2.11-3.93-4.7-5.33-8.07-5.33C816,726.83,812.91,730.9,812.91,737.14Z"/><path d="M862.42,751.6a14.77,14.77,0,0,1-10.1,4.07c-7,0-13.19-5.06-13.19-11.86,0-7.44,6.18-11.93,13.68-11.93a11.37,11.37,0,0,1,8.07,3v-3.65c0-2.88-2.32-4.91-6.67-4.91a19.34,19.34,0,0,0-9.54,2.53l-2.59-6.74a27.47,27.47,0,0,1,13.68-3.44c9.47,0,14.24,5.33,14.24,14.1v21.89h-7.15Zm-14-7.79c0,2.8,2.6,4.63,5.82,4.63s5.76-1.83,5.83-4.63-2.46-4.71-5.83-4.71S848.39,741,848.39,743.81Z"/><path d="M566.91,755.59c-5.61,0-10-2.52-13.4-7.65l5.68-4.62c3.3,3.85,5.48,4.9,8.77,4.9,2.39,0,4.14-1.25,4.14-3.15,0-2.39-2.24-3.44-8.34-4.77-5.76-1.26-9.27-4.42-9.27-10.81,0-6,5-10.94,13.19-10.94a14.86,14.86,0,0,1,12.28,6l-5.61,5.06a8.78,8.78,0,0,0-7.16-3.44c-2.81,0-4.63,1.19-4.63,3.29,0,1.83,1.12,3,6,4.07,7.3,1.69,11.72,4.49,11.72,11C580.31,751.32,574.49,755.59,566.91,755.59Z"/><path d="M551.78,735.74c0-9.83-6.11-17-16.84-17-10.46,0-17.47,7.37-17.47,18.45,0,10.74,7.79,18.45,18.17,18.45,7.5,0,12.13-3.08,15.78-9.4l-7.29-3.79a9.91,9.91,0,0,1-8.49,5.2c-4.92.07-8-2.74-8.77-7.3h24.55A26,26,0,0,0,551.78,735.74Zm-24.7-2.6c.77-4.56,3.37-7.29,7.79-7.29s7.29,2.73,7.65,7.29Z"/><path d="M503.8,705.57v16.84a13.29,13.29,0,0,0-9.33-3.72c-9.54,0-16.48,7.79-16.48,18.45s6.94,18.45,16.48,18.45a13.6,13.6,0,0,0,10.32-4.91l.7,4h7.43V705.57Zm-8.27,41.89c-5,0-8.28-4.07-8.28-10.32s3.3-10.31,8.28-10.31c5.4,0,8.27,4.07,8.27,10.31S500.93,747.46,495.53,747.46Z"/><rect class="cls-6" x="2" y="4" width="29" height="477"/><path d="M107.43,5c18,0,29.69,11.38,29.69,28.86S125.4,62.54,107.43,62.54H84.11V99.59H74.4V5ZM84.11,53.73h16.8c16.65,0,26.29-4.16,26.29-19.91,0-12.63-7.35-20-20.12-20h-23Z"/><path d="M149.81,45.2C149.81,18.83,164.45,3,187.07,3s37.05,15.88,37.05,42.32V60.12c0,26.36-14.64,41.56-37.26,41.56s-37.05-15.2-37.05-41.56Zm9.65,15c0,21.58,11.59,32.54,27.47,32.54s27.48-11,27.48-32.54V45.13c0-21.65-11.52-33.37-27.48-33.37s-27.47,11.72-27.47,33.37Z"/><path d="M306.89,32.57c0,15.33-9.09,23.18-18.25,26.16l19.92,40.86H297.39L278.93,60.74H254V99.59h-9.71V5h32.95C297.39,5,306.89,17.79,306.89,32.57ZM275.6,51.93c13.88,0,21.3-6.87,21.3-18.73,0-12.63-8.12-19.43-20.88-19.43H254V51.93Z"/><path d="M346.57,99.59V13.77H317.09V5H385.7v8.81H356.15V99.59Z"/><path d="M383.41,99.59,417.41,5H427l33.93,94.63H450.78L440.51,69.76h-36.7l-10.2,29.83ZM422.06,17,406.58,61.78h31.16L422.33,17Z"/><path d="M530.08,99.59H475.41V5h9.71V90.78h45Z"/><path d="M601.47,5c27.82,0,41.7,16.58,41.7,47.32s-13.74,47.31-41.7,47.31H572.88V5ZM582.6,90.71h18.59c21.58,0,31.92-13.25,31.92-38.43s-10.34-38.44-31.92-38.44H582.6Z"/><path d="M717.75,99.59H662.17V5h55.58v8.88H671.89v33h43.36v8.82H671.89v35.1h45.86Z"/><path d="M109.79,280.52V170.69h-37V134.82h118.9v35.87h-37V280.52Z"/><path d="M247.9,223.84c0,16.12,8.33,22.41,19.64,22.41s19.64-6.61,19.64-22.41v-89H332v95.32c0,32.12-24.55,52.83-64.47,52.83s-64.47-20.71-64.47-52.83V134.82H247.9Z"/><path d="M479.52,185c0,24.12-17.29,37.57-25.51,41.3l28.6,54.23h-49.2L410,232H398.82v48.57H355V134.82h66.81C459.88,134.82,479.52,154.89,479.52,185Zm-64.58,17.08c9.82,0,18.36-5.45,18.36-17.3s-9-17.82-18.36-17.82H398.82v35.12Z"/><path d="M497.34,280.52V134.82h44.83v145.7Z"/><path d="M602.58,235.9c.22,6.83,7.37,14.2,21.35,14.2,13.66,0,18.36-5.45,18.36-11.42,0-7.48-7.26-10-20.39-12.39l-17.61-3.09c-24-4.27-41.41-16.33-41.41-43.34,0-30.09,24.23-47.39,60.52-47.39,41.2,0,59.66,23.38,59.66,46.11H642.5c-.21-6.08-6.08-13.77-19-13.77-11.42,0-16.22,5.23-16.22,11.43s7.15,9.49,19,11.31L645,190.43c20.17,3,41.09,13.34,41.09,43.44,0,28.39-20.39,49.1-63.08,49.1-47.82,0-62.33-24.66-62.44-47.07Z"/><path d="M704.19,280.52V134.82h46.86l31.17,65h1.49l31.28-65h46.43v145.7H821.18V199.29h-2l-24.76,53.58H770.9l-25-53.58h-2.14v81.23Z"/><path d="M880,200.78c0-41.41,24.33-68.31,68.84-68.31s68.74,27.22,68.74,68.31v14.31c0,40.88-24.12,67.88-68.74,67.88S880,256,880,215.09Zm45.89,14.52c0,21,8.65,32.13,23,32.13s22.84-11.1,22.84-32.13V200.14c0-20.92-8.64-32.12-22.84-32.12s-23,11.2-23,32.12Z"/><path d="M173.19,471.12c-7.48,6.3-22.31,12.49-43.34,12.49-34.37,0-52.94-16.33-52.94-40.45,0-18,10.35-28.71,24.87-37.15q3.84-2.24,8-4.16c-11.43-11.53-18-20.7-18-32.87,0-22,21.45-35.33,46-35.33,20.81,0,44.4,9.6,44.4,34.05,0,19.32-14.73,31.16-27.64,38.42l19,20.49c2.77-4.59,3.3-10.78,3.3-15.79v-11.1h32.77v14.51c0,11.85-4.16,26.58-12.7,36.61l28.82,29.68H182.15Zm-58.71-31.48c0,9.71,8.22,16,19.85,16,7.48,0,14.95-2.57,18.47-6.62l-25.4-26.9a22.84,22.84,0,0,0-3.21,1.6C119.39,426.61,114.48,432.17,114.48,439.64Zm35.33-68.31c0-7.9-5.34-12.49-11.95-12.49a12,12,0,0,0-12.38,12.27c0,5.66,3.2,10,11.31,17.61C144.79,384.45,149.81,379,149.81,371.33Z"/><path d="M366,480.52V425.33H323.79v55.19H279V334.82h44.83v55H366v-55h44.83v145.7Z"/><path d="M429.35,400.78c0-41.41,24.34-68.31,68.85-68.31s68.73,27.22,68.73,68.31v14.31C566.93,456,542.81,483,498.2,483s-68.85-27-68.85-67.88Zm45.9,14.52c0,21,8.64,32.13,22.95,32.13S521,436.33,521,415.3V400.14c0-20.92-8.65-32.12-22.84-32.12s-22.95,11.2-22.95,32.12Z"/><path d="M610,480.52V370.69h-37V334.82h118.9v35.87h-37V480.52Z"/><path d="M808.69,480.52H704.83V334.82H808.69V369.3H749.13v22.95h55.61v31.16H749.13V446h59.56Z"/><path d="M928.34,480.52H830V334.82h44.82v109h53.48Z"/><path d="M936.77,480.52,981,334.82h56.78l43.76,145.7h-47.81l-6.3-27.54H987.58l-6.51,27.54Zm69.91-108.66-11.74,49.63h25.3l-11.32-49.63Z"/><path d="M1218.34,385c0,24.12-17.29,37.57-25.51,41.3l28.6,54.23h-49.2L1148.85,432h-11.2v48.57h-43.87V334.82h66.81C1198.7,334.82,1218.34,354.89,1218.34,385Zm-64.58,17.08c9.82,0,18.36-5.45,18.36-17.3s-9-17.82-18.36-17.82h-16.11v35.12Z"/><path d="M1236.16,480.52V334.82H1281v145.7Z"/><path d="M1293.27,480.52l44.19-145.7h56.78L1438,480.52h-47.82l-6.3-27.54h-39.81l-6.51,27.54Zm69.91-108.66-11.74,49.63h25.29l-11.31-49.63Z"/></g></g></svg>