<svg id="Camada_1" data-name="Camada 1" xmlns="http://www.w3.org/2000/svg" xmlns:xlink="http://www.w3.org/1999/xlink" viewBox="0 0 1436 480.67"><defs><style>.cls-1{fill:url(#Gradiente_sem_nome_25);}</style><linearGradient id="Gradiente_sem_nome_25" x1="128.65" y1="305.46" x2="-99.65" y2="173.65" gradientUnits="userSpaceOnUse"><stop offset="0" stop-color="#0061e3"/><stop offset="0.81" stop-color="#e96a14"/><stop offset="0.88" stop-color="#ff6b00"/></linearGradient></defs><title>logo-portal-turismo</title><rect class="cls-1" y="1.05" width="29" height="477"/><path d="M105.43,2c18,0,29.69,11.38,29.69,28.87S123.4,59.6,105.43,59.6H82.11V96.65H72.4V2ZM82.11,50.79h16.8c16.65,0,26.29-4.17,26.29-19.91,0-12.63-7.35-20-20.12-20h-23Z"/><path d="M147.81,42.25C147.81,15.89,162.45,0,185.07,0s37.05,15.89,37.05,42.32V57.17c0,26.37-14.64,41.56-37.26,41.56s-37.05-15.19-37.05-41.56Zm9.65,15.06c0,21.58,11.59,32.54,27.47,32.54s27.48-11,27.48-32.54V42.18c0-21.64-11.52-33.37-27.48-33.37s-27.47,11.73-27.47,33.37Z"/><path d="M304.89,29.63c0,15.33-9.09,23.17-18.25,26.15l19.92,40.87H295.39L276.93,57.79H252V96.65h-9.71V2h32.95C295.39,2,304.89,14.85,304.89,29.63ZM273.6,49c13.88,0,21.3-6.87,21.3-18.73,0-12.63-8.12-19.43-20.88-19.43H252V49Z"/><path d="M344.57,96.65V10.82H315.09V2H383.7v8.81H354.15V96.65Z"/><path d="M381.41,96.65,415.41,2H425l33.93,94.64H448.78L438.51,66.81h-36.7l-10.2,29.84ZM420.06,14,404.58,58.84h31.16L420.33,14Z"/><path d="M528.08,96.65H473.41V2h9.71V87.84h45Z"/><path d="M599.47,2c27.82,0,41.7,16.58,41.7,47.32s-13.74,47.32-41.7,47.32H570.88V2ZM580.6,87.77h18.59c21.58,0,31.92-13.25,31.92-38.44s-10.34-38.44-31.92-38.44H580.6Z"/><path d="M715.75,96.65H660.17V2h55.58v8.88H669.89v33h43.36v8.81H669.89V87.77h45.86Z"/><path d="M107.79,277.57V167.74h-37V131.88h118.9v35.86h-37V277.57Z"/><path d="M245.9,220.89c0,16.12,8.33,22.42,19.64,22.42s19.64-6.62,19.64-22.42v-89H330v95.31c0,32.13-24.55,52.84-64.47,52.84s-64.47-20.71-64.47-52.84V131.88H245.9Z"/><path d="M477.52,182c0,24.12-17.29,37.57-25.51,41.31l28.6,54.22h-49.2L408,229H396.82v48.56H353V131.88h66.81C457.88,131.88,477.52,151.94,477.52,182Zm-64.58,17.08c9.82,0,18.36-5.44,18.36-17.29s-9-17.83-18.36-17.83H396.82v35.12Z"/><path d="M495.34,277.57V131.88h44.83V277.57Z"/><path d="M600.58,233c.22,6.83,7.37,14.19,21.35,14.19,13.66,0,18.36-5.44,18.36-11.42,0-7.47-7.26-10-20.39-12.38l-17.61-3.1c-24-4.27-41.41-16.33-41.41-43.33,0-30.1,24.23-47.39,60.52-47.39,41.2,0,59.66,23.37,59.66,46.11H640.5c-.21-6.09-6.08-13.77-19-13.77-11.42,0-16.22,5.23-16.22,11.42s7.15,9.5,19,11.31L643,187.49c20.17,3,41.09,13.34,41.09,43.44,0,28.39-20.39,49.1-63.08,49.1-47.82,0-62.33-24.66-62.44-47.07Z"/><path d="M702.19,277.57V131.88h46.86l31.17,65h1.49l31.28-65h46.43V277.57H819.18V196.34h-2l-24.76,53.59H768.9l-25-53.59h-2.14v81.23Z"/><path d="M878,197.84c0-41.41,24.33-68.31,68.84-68.31s68.74,27.22,68.74,68.31v14.3c0,40.88-24.12,67.89-68.74,67.89S878,253,878,212.14Zm45.89,14.51c0,21,8.65,32.13,23,32.13s22.84-11.1,22.84-32.13V197.2c0-20.92-8.64-32.13-22.84-32.13s-23,11.21-23,32.13Z"/><path d="M171.19,468.18c-7.48,6.29-22.31,12.49-43.34,12.49-34.37,0-52.94-16.34-52.94-40.46,0-18,10.35-28.71,24.87-37.14q3.84-2.24,8-4.16c-11.43-11.53-18-20.71-18-32.88,0-22,21.45-35.33,46-35.33,20.81,0,44.4,9.61,44.4,34.05,0,19.32-14.73,31.17-27.64,38.43l19,20.49c2.77-4.59,3.3-10.78,3.3-15.8v-11.1h32.77v14.52c0,11.85-4.16,26.58-12.7,36.61l28.82,29.67H180.15Zm-58.71-31.49c0,9.71,8.22,16,19.85,16,7.48,0,14.95-2.56,18.47-6.62l-25.4-26.89a21.81,21.81,0,0,0-3.21,1.6C117.39,423.67,112.48,429.22,112.48,436.69Zm35.33-68.31c0-7.9-5.34-12.49-11.95-12.49a12,12,0,0,0-12.38,12.28c0,5.65,3.2,10,11.31,17.61C142.79,381.51,147.81,376.06,147.81,368.38Z"/><path d="M364,477.57V422.39H321.79v55.18H277V331.88h44.83v55H364v-55h44.83V477.57Z"/><path d="M427.35,397.84c0-41.41,24.34-68.31,68.85-68.31s68.73,27.22,68.73,68.31v14.3C564.93,453,540.81,480,496.2,480s-68.85-27-68.85-67.89Zm45.9,14.52c0,21,8.64,32.12,22.95,32.12S519,433.38,519,412.36V397.2c0-20.92-8.65-32.13-22.84-32.13s-22.95,11.21-22.95,32.13Z"/><path d="M608,477.57V367.74h-37V331.88h118.9v35.86h-37V477.57Z"/><path d="M806.69,477.57H702.83V331.88H806.69v34.47H747.13V389.3h55.61v31.17H747.13v22.62h59.56Z"/><path d="M926.34,477.57H828V331.88h44.82v109h53.48Z"/><path d="M934.77,477.57,979,331.88h56.78l43.76,145.69h-47.81l-6.3-27.54H985.58l-6.51,27.54Zm69.91-108.66-11.74,49.64h25.3l-11.32-49.64Z"/><path d="M1216.34,382c0,24.12-17.29,37.57-25.51,41.31l28.6,54.22h-49.2L1146.85,429h-11.2v48.56h-43.87V331.88h66.81C1196.7,331.88,1216.34,351.94,1216.34,382Zm-64.58,17.08c9.82,0,18.36-5.44,18.36-17.29s-9-17.83-18.36-17.83h-16.11v35.12Z"/><path d="M1234.16,477.57V331.88H1279V477.57Z"/><path d="M1291.27,477.57l44.19-145.69h56.78L1436,477.57h-47.82l-6.3-27.54h-39.81l-6.51,27.54Zm69.91-108.66-11.74,49.64h25.29l-11.31-49.64Z"/></svg>