<?xml version="1.0" encoding="utf-8"?>
<!-- Generator: Adobe Illustrator 24.0.1, SVG Export Plug-In . SVG Version: 6.00 Build 0)  -->
<svg version="1.1" id="Camada_1" xmlns="http://www.w3.org/2000/svg" xmlns:xlink="http://www.w3.org/1999/xlink" x="0px" y="0px"
	 viewBox="0 0 550 550" style="enable-background:new 0 0 550 550;" xml:space="preserve">
<style type="text/css">
	.st0{fill:#0085CA;}
	.st1{fill:#353535;}
</style>
<g>
	<path class="st0" d="M268.3,222.7c-28.7,0.3-53.5-23.4-53.5-53.4c0-29.6,24.4-53.6,53.8-53.5c27.8,0.2,53.2,22.4,53.2,53.5
		C321.7,200.5,296.1,223,268.3,222.7z M264,142.5c-1,0.8-2.2,1.4-2.8,2.3c-1.4,2-2.5,4.2-2.9,6.7c-0.2,1.4-0.7,2.6-1.6,3.7
		c-0.4,0.6-0.8,1.3-1.1,1.9c-0.3,0.6-0.2,1.2,0.4,1.6c1.1,0.9,1.7,2.1,2,3.4c0.4,1.7,1.4,2.9,3,3.5c0.9,0.4,1.9,0.6,2.9,0.9
		c1.4,0.4,2.8,0.3,4.1-0.4c0.8-0.4,1.6-0.8,2.4-1.2c1.6-0.7,2.3-0.3,2.4,1.5c0,0.5,0,1,0.1,1.5c0.2,1.4,0.6,2.7,1.3,4
		c1.1,1.9,2,3.8,1.4,6.1c-0.4,1.4-0.6,2.9-1.1,4.4c-0.3,1-0.3,1.8,0.5,2.6c1.1,1.2,1.5,2.6,1.5,4.3c-0.1,1.2,0,2.5,0.2,3.7
		c0.4,2,3.1,3.8,5.2,3.5c0.2,0,0.5-0.1,0.7-0.2c1.9-1.3,3.8-2.5,5.6-3.9c1.2-0.9,1.9-2.2,1.8-3.8c-0.1-1.6,0.5-2.8,1.8-3.7
		c0.3-0.2,0.6-0.5,0.9-0.8c1.7-1.7,2.3-3.7,1.5-6.1c-0.3-0.9-0.5-1.8-0.8-2.8c-0.3-1.3,0-2.3,1.1-3.2c0.8-0.6,1.6-1.4,2.2-2.2
		c1.6-2.4,3.2-4.9,4.7-7.3c1-1.7,0.6-2.6-1.3-3c-0.5-0.1-1.1-0.2-1.6-0.3c-0.3-0.1-0.6-0.3-1-0.4c1.4,0.1,2.8,0.3,4-0.4
		c1.2-0.7,2.4-1.5,3.5-2.3c1.2-0.9,1.1-2.4,1.2-3.8c0.7,0.1,1.1,0.1,1.6,0.1c1.9,0.2,3.2,1,3.8,2.9c0.5,1.7,1.2,3.3,1.8,5
		c0.2,0.6,0.4,1.3,0.8,1.8c0.3,0.4,0.8,0.8,1.2,0.9c0.6,0.1,0.9-0.6,1-1.1c0.1-0.4,0.1-0.8,0.2-1.2c0.3-0.9,0.5-1.9,1-2.6
		c0.5-0.8,0.5-1.5,0.3-2.4c-2-7.3-5.5-13.9-10.4-19.7c-4.5-5.3-9.9-9.5-16.1-12.7c-1-0.5-2-0.8-3.2-0.5c-1.4,0.4-2.9,0.8-4.2,1.2
		c-1-0.7-2-1.4-3-1.9c-0.8-0.4-1.7-0.6-2.5-0.8c-1.8-0.6-5.1,0.5-5.8,2.1c-0.7,1.5-1.8,2.3-3.3,2.9c-0.4,0.1-0.7,0.5-1,0.7
		c0.5,0.9,1.2,0.8,1.8,1c1.1,0.3,1.4,0.8,1.3,1.9c-0.2,1-1.8,2.4-2.8,2.3c-1-0.1-1.8,0.2-2.1,1.2c-0.3,1-1,1.6-1.9,2
		c-0.4,0.2-0.7,0.4-1,0.7c-1.8,1.5-2,3.5-0.7,5.3C263.3,141.7,263.6,142.1,264,142.5z M218.6,156.2c-0.7,1.5-0.9,3-1,4.4
		c0,0.3,0.2,0.7,0.4,0.9c1.1,1,1.1,2.5,1.9,3.7c0.2,0.3,0,0.9-0.1,1.3c-0.2,0.5-0.6,1.1-1,1.5c-1.3,1.2-1.3,2.5-0.8,4
		c0.2,0.6,0.6,1.2,0.8,1.8c0.3,0.8,0.7,1.6,0.8,2.4c0.5,2.8,1.7,5.1,4.3,6.5c0.5,0.3,1.1,0.8,1.3,1.4c1,2.7,1.8,5.5,1.3,8.4
		c-0.3,1.5,0.2,2.6,1,3.6c2.3,2.8,4,5.9,5.6,9.1c0.8,1.6,1.7,2,3.8,1.8c-0.1-0.4,0-0.8-0.2-1.1c-0.5-0.9-1-1.8-1.5-2.6
		c-1.7-2.7-1-6.3,1.5-8.2c0.8-0.6,1.6-1.3,2.4-2.1c0.3-0.3,0.6-0.7,0.6-1.1c0.1-1.5,0.7-2.9,1.2-4.3c0.4-0.9,0.8-1.4,1.8-1.5
		c1.1-0.1,1.5-0.9,1.6-1.9c0.1-0.8,0.1-1.6,0-2.4c-0.1-1.6,0.3-3,1-4.3c0.3-0.6,0.7-1.1,1-1.7c0.7-1.1,0.6-1.8-0.4-2.6
		c-0.7-0.5-1.4-1-2.2-1.3c-1.3-0.6-2.2-1.4-3-2.6c-0.5-0.8-1.4-1.4-2.2-2c-1.1-0.9-2.4-1.5-3.4-2.5c-1.6-1.6-3.5-2.8-5.6-3.8
		c-1.8-0.9-3.6-1.1-5.5-0.2c-0.6,0.3-1.1,0.4-1.6-0.2c-0.3-0.4-0.8-0.4-1.2-0.1c-0.2,0.1-0.4,0.2-0.7,0.3c-1,0.4-1.6,0-1.5-1.1
		c0-0.6,0.3-1.2,0.5-1.7C219.7,157,219.6,156.5,218.6,156.2z M291.6,214.8c-1.4-0.5-2.6-0.4-3.9-0.1c-3.9,1.1-7.7,1.2-11.4-0.9
		c-0.1-0.1-0.3-0.1-0.4-0.2c-1.2-0.5-2.4-0.5-3.6,0.1c-0.9,0.4-1.8,0.9-2.7,1.4c-0.9,0.4-1.7,0.6-2.8,0.4c-1.8-0.4-3.6-0.6-5.4-0.1
		c-1.4,0.4-2.8,0.9-4.2,1.3c-3,0.9-5.9,0.9-8.6-1.1c-1.2-0.9-2.6-1.3-4-1.6c-0.3-0.1-0.6,0.1-1,0.1c2.2,2.5,13.4,6.2,21.9,6.7
		C276.5,221.4,288.3,217.5,291.6,214.8z M228.5,141.7c0.5-0.1,0.9,0,1.3-0.1c0.3-0.1,0.7-0.2,0.9-0.4c0.9-1.1,1.8-2.2,2.7-3.4
		c2.3,0.6,4.4-0.3,4.9-2.1c1.1-0.2,2.2-0.3,3.2-0.6c0.9-0.3,1.1-0.8,0.7-1.6c-0.5-0.9-0.3-1.7,0.2-2.5c0.8-1.4,1.6-2.8,2.5-4.1
		c0.3-0.5,0.8-0.9,1.3-1.2c1.1-0.6,1-1.4,0-2c-0.7-0.5-1.3-0.2-2,0.1c-10.6,5.7-18.3,14.1-23.2,25c-0.2,0.5-0.3,1.1-0.5,1.6
		c0.9,0.4,1.4,0.1,1.7-0.4c0.4-0.6,0.8-1.2,1.1-1.8c0.5-0.9,1.1-1.6,2.2-1.6c0.3,0,0.6-0.2,0.9-0.4c0-0.3,0-0.4-0.1-0.5
		c-0.4-1.3-0.1-1.8,1.2-2.2c0.3-0.1,0.6-0.4,0.7-0.6C228.4,142.6,228.4,142.2,228.5,141.7z M265,119.1c-1.1-1-2.2-1.1-3.4-0.9
		c-1.5,0.3-3.1,0.4-4.6,0.9c-2.6,0.7-5.2,1.6-7.7,2.4c-0.6,0.2-1.3,0.5-1.3,1.3c0.1,1.4,0.2,2.9,1.2,4.1c0.7,0.9,1.4,1,2.3,0.3
		c0.6-0.4,1.1-1,1.6-1.6c0.7-0.8,1.6-1.4,2.7-1.8c1-0.3,2-0.9,2.9-1.5c1.7-1.1,3.4-2.2,5.4-2.9C264.5,119.4,264.7,119.3,265,119.1z
		 M295.6,181.1c-0.2,0.9-0.2,1.6-0.4,2.3c-0.3,0.7-0.9,1.2-1.3,1.8c-0.1,0.1-0.1,0.2-0.2,0.3c-0.9,1.6-0.4,3.6,1.2,4.6
		c0.8,0.5,1.5,0.3,1.9-0.6c0.2-0.4,0.2-0.8,0.3-1.1c0.5-1,0.8-2.1,1.5-2.9c1.7-2,1.4-4.2,0.9-6.4c-0.1-0.4-0.3-0.8-1-0.6
		C298,179.8,297.3,181,295.6,181.1z"/>
	<path class="st0" d="M237.6,249.5c-0.9,0-1.5,0-2.2,0c-12.3,0-24.6,0-36.9,0c-2.1,0-2.1,0-2.1-2c0-7.5,0-15,0-22.4
		c0-0.2,0-0.4,0-0.6c0-1.4,0.1-1.5,1.6-1.5c13.1,0,26.1-0.1,39.2,0.1c7.9,0.2,14.8,3,20.2,9c3.5,3.9,5.5,8.6,6.3,13.8
		c0.4,2.6,0.6,5.3,0.6,7.9c0.1,13.7,0,27.4,0,41.1c0,2.1,0,2.1-2.1,2.1c-7.5,0-15,0-22.5,0c-2,0-2,0-2-2c0-14.3,0-28.6,0-42.9
		C237.7,251.2,237.6,250.5,237.6,249.5z"/>
	<path class="st0" d="M296.8,249.5c-0.1,0.9-0.2,1.7-0.2,2.5c0,14.1,0,28.2,0,42.3c0,2.7,0.2,2.6-2.6,2.6c-7.1,0-14.2,0-21.2,0
		c-0.5,0-0.9,0-1.4,0c-0.9-0.1-1.1-0.2-1.2-1.2c0-0.3,0-0.6,0-0.9c0-14.2,0-28.4,0-42.6c0-4.7,0.7-9.2,2.6-13.5
		c3.4-7.6,9.2-12.2,17.1-14.5c3.2-0.9,6.5-1.3,9.8-1.3c12.2,0,24.4,0,36.6,0c0.4,0,0.7-0.1,1,0.1c0.3,0.1,0.6,0.5,0.7,0.8
		c0.1,0.3,0,0.7,0,1c0,7.6,0,15.3,0,22.9c0,0.4,0,0.7,0,1.1c0,0.5-0.3,0.7-0.8,0.8c-0.5,0-0.9,0-1.4,0c-12.4,0-24.7,0-37.1,0
		C298.3,249.5,297.6,249.5,296.8,249.5z"/>
	<path class="st0" d="M433.9,401.2c0-9.8,0-19.6,0-29.4c0-0.5,0-0.9,0-1.4c0.1-1.2,0.8-1.9,2-2c0.4,0,0.8,0,1.2,0
		c13.1,0,26.2,0,39.3,0c5.6,0,10.3,2,14.1,6.1c3.1,3.4,4.8,7.5,4.9,12.2c0.1,14.9,0,29.7,0,44.6c0,2.2-0.7,2.9-3,2.9
		c-18.5,0-37,0-55.4,0c-0.4,0-0.9,0-1.3-0.1c-1.1-0.3-1.6-0.9-1.7-2c0-0.4,0-0.9,0-1.4C433.9,420.9,433.9,411,433.9,401.2z
		 M462.5,407.2c-5.8,3.7-6.4,9.3-4.7,12.9c1.9,4,6.8,6.3,11.1,5.2c2.4-0.6,4.2-1.9,5.7-3.7c2.1-2.7,2.2-5.8,1.3-9.2
		c6.1,4.7,11.9,2.5,14.7-1c1.5-1.8,2.2-3.9,2.1-6.3c-0.1-3.7-2.2-6.3-5.2-8.2c2.4-3.6,2.4-6.7,0.1-9c-2.1-2-5.7-2.3-8-0.7
		c-1.2,0.8-2,2-2.3,3.4c-0.5,2.3-0.1,4.4,1.5,6.2c-2.2,1.3-3.8,3.1-4.8,5.3c-1,2.2-1,4.5-0.3,7c-0.9-0.6-1.6-1.2-2.4-1.7
		c2.7-4.3,2.2-8-1.2-9.9c-3.5-2-7.3-0.5-9.3,3.8c-2.1-5.7-7-7.9-11.8-6.9c-4.9,1.1-7.8,5.3-7.4,10.5c0.2,2.1,1.1,3.9,2.6,5.5
		c2.4,2.5,5.5,3.2,9.1,2.9c-2,3-4.3,5.5-6.1,8.4c1.6,0.7,2.2,0.6,3-0.5c2.7-3.4,5.3-6.8,7.9-10.2c1.3-1.7,2.5-3.5,3-5.8
		C461.5,405.8,462,406.5,462.5,407.2z M440.9,410.5C440.9,410.5,440.9,410.5,440.9,410.5c0-4.3,0-8.5,0-12.8c0-1-0.3-1.2-1.1-1.2
		c-0.9,0-1.1,0.2-1.2,1.1c0,0.3,0,0.6,0,0.9c0,7.9,0,15.7,0,23.6c0,0.4,0,0.7,0,1.1c0.1,0.7,0.5,0.9,1.3,0.9c0.6,0,1-0.3,1-1
		c0-0.4,0-0.8,0-1.2C440.9,418.2,440.9,414.3,440.9,410.5z M446.4,380c-0.1,0.7-0.2,1.3-0.2,1.9c0,2.5,0,4.9,0,7.4
		c0,0.4,0,0.7,0.1,1.1c0.1,0.5,0.3,0.9,0.9,0.9c1.7,0,3.4,0,5.1-0.1c0.2,0,0.6-0.4,0.7-0.6c0.1-0.5-0.2-0.7-0.7-0.8
		c-0.7,0-1.4,0-2.1,0c-2.3,0-2.4-0.2-2.2-2.4c0.1-0.8,0.4-1,1.2-1c0.8,0,1.5,0,2.3-0.1c0.5,0,0.9-0.2,0.9-0.8c0-0.6-0.4-0.8-0.9-0.8
		c-0.8,0-1.5,0-2.3-0.1c-0.3,0-0.9-0.2-0.9-0.3c-0.1-0.8-0.2-1.6,0-2.3c0-0.2,0.8-0.4,1.3-0.5c0.9-0.1,1.8,0,2.7-0.1
		c0.2,0,0.4-0.4,0.6-0.7c-0.2-0.2-0.5-0.6-0.7-0.6C450.1,379.9,448.3,380,446.4,380z M460,383.1c0.3-2.3-1.2-3.6-3.5-3.5
		c-1.4,0.1-2.5,1-2.8,2.5c-0.3,1.3,0.3,2.5,1.5,3.2c0.5,0.3,1.1,0.5,1.7,0.7c0.5,0.2,1,0.4,1.3,0.7c1,0.7,1,1.9,0.1,2.7
		c-0.8,0.7-2,0.7-2.7-0.2c-0.3-0.3-0.5-0.8-0.6-1.2c-0.2-0.5-0.4-0.8-1-0.7c-0.7,0.1-0.7,0.6-0.6,1.2c0.2,1.8,1.6,2.9,3.6,2.9
		c1.7,0,3-0.9,3.4-2.4c0.4-1.9-0.3-3.3-2-4c-0.4-0.2-0.9-0.3-1.3-0.5c-0.5-0.2-0.9-0.4-1.3-0.7c-0.7-0.6-0.6-1.7,0.1-2.3
		c0.6-0.5,1.6-0.5,2.2,0.2c0.2,0.3,0.4,0.6,0.5,0.9C458.8,383.4,459.3,383.6,460,383.1z M461.2,380c0,3.8,0,7.4,0,10.9
		c2.4,0.9,5.1,0,5.9-1.7c1.2-2.5,1.2-4.9,0-7.4c-0.5-1-1.3-1.8-2.5-1.9C463.5,379.9,462.4,380,461.2,380z M438.9,380
		c0,3.7,0,7.3,0,10.9c2.8,0.9,5.2-0.1,6-1.9c1.1-2.4,1.1-4.9-0.1-7.2c-0.5-0.9-1.2-1.6-2.2-1.7C441.4,379.9,440.2,380,438.9,380z
		 M468.7,391c2,0.4,3.8,0.3,5.7,0.2c0.4,0,0.9-0.3,0.7-0.7c-0.1-0.3-0.5-0.7-0.8-0.7c-0.7-0.1-1.4-0.1-2.1-0.1
		c-2.2,0-2.3-0.1-2.1-2.3c0.1-1,0.2-1.1,1.2-1.1c0.7,0,1.4,0,2.1-0.1c0.5,0,1-0.2,1-0.8c0-0.6-0.5-0.7-1-0.7c-0.8,0-1.6,0-2.4,0
		c-0.6,0-0.9-0.3-0.9-0.9c-0.1-2.4,0.1-2.2,1.9-2.2c0.8,0,1.6-0.1,2.4-0.2c0.2,0,0.4-0.4,0.4-0.6c0-0.2-0.3-0.5-0.5-0.5
		c-1.8-0.1-3.7-0.1-5.6,0C468.7,383.7,468.7,387.3,468.7,391z"/>
	<path class="st1" d="M167.5,358.6c0-15,0-29.8,0-44.7c0.5,0,0.9-0.1,1.4-0.1c7.8,0,15.7,0,23.5-0.1c2.4,0,4.7,0.2,7,0.9
		c4.4,1.4,6.9,4.4,7.4,8.9c0.2,1.5,0.1,3-0.1,4.5c-0.2,2-1.2,3.7-2.7,5.2c0.5,0.4,0.8,0.7,1.2,1c6.4,5,6,15.5,0.7,20.6
		c-2.1,2-4.6,3.1-7.4,3.5c-1.4,0.2-2.9,0.3-4.3,0.3c-8.4,0-16.9,0-25.3,0C168.4,358.7,168,358.6,167.5,358.6z M174.9,351.6
		c0.6,0,1.1,0.1,1.6,0.1c5.9,0,11.7,0,17.6,0c1,0,1.9-0.1,2.9-0.2c2.7-0.3,4.4-1.8,5-4.3c0.4-1.6,0.5-3.3,0-4.9
		c-0.7-2.6-2.5-4.2-5.2-4.4c-0.6-0.1-1.3-0.1-2-0.1c-6.2,0-12.3,0.1-18.5,0.1c-0.4,0-0.9,0.1-1.4,0.1
		C174.9,342.5,174.9,347,174.9,351.6z M174.9,330.6c0.4,0,0.8,0.1,1.1,0.1c5.9,0,11.8,0,17.8,0c0.9,0,1.8-0.1,2.7-0.4
		c1.5-0.4,2.6-1.3,2.8-2.8c0.2-1.1,0.2-2.3,0-3.4c-0.2-1.4-1.2-2.3-2.5-2.7c-1-0.3-2-0.4-3-0.4c-5.9,0-11.7,0-17.6,0
		c-0.4,0-0.8,0.1-1.2,0.1C174.9,324.3,174.9,327.4,174.9,330.6z"/>
	<path class="st1" d="M454.8,313.9c0.3,0,0.7-0.1,1-0.1c8.2,0,16.4,0,24.6,0c1.5,0,3,0.2,4.5,0.6c4.9,1.2,7.8,4.5,8.9,9.4
		c0.5,2.1,0.4,4.2-0.1,6.3c-0.9,4.3-3.4,7.3-7.5,9c-0.4,0.2-0.9,0.4-1.5,0.6c3.5,6.3,7,12.5,10.5,18.9c-2.8,0-5.4,0-8.2,0
		c-3.4-6.1-6.9-12.3-10.4-18.5c-4.8,0-9.6,0-14.5,0c0,6.2,0,12.3,0,18.6c-1.3,0-2.5,0-3.7,0c-1.2,0-2.3,0-3.4,0
		C454.6,357.6,454.5,315.8,454.8,313.9z M462.1,332.7c0.4,0,0.7,0.1,0.9,0.1c5.7,0,11.4,0,17.2,0c0.9,0,1.9-0.2,2.8-0.5
		c1.7-0.6,2.8-1.8,3.1-3.5c0.2-1.2,0.2-2.4,0-3.6c-0.4-2.1-1.7-3.4-3.7-3.9c-0.9-0.2-1.8-0.3-2.7-0.3c-5.5,0-10.9,0-16.4,0
		c-0.4,0-0.8,0.1-1.2,0.1C462.1,325,462.1,328.8,462.1,332.7z"/>
	<path class="st1" d="M39.1,358.6c0-15,0-29.8,0-44.7c0.5,0,0.9-0.1,1.4-0.1c5.6,0,11.3,0,16.9,0c2.8,0,5.6,0.3,8.3,1
		c8.6,2.3,13.5,8.1,15.1,16.7c0.7,3.6,0.6,7.2-0.2,10.8c-2,8.6-7.4,13.8-16,15.7c-2.6,0.6-5.3,0.7-7.9,0.7c-5.4,0-10.8,0-16.1,0
		C40.1,358.7,39.6,358.7,39.1,358.6z M46.5,351.5c0.5,0,0.8,0.1,1.2,0.1c3.3,0,6.5,0.1,9.8,0c1.6,0,3.3-0.1,4.9-0.5
		c5.7-1.2,9.4-4.5,10.7-10.3c0.7-3.2,0.7-6.5-0.2-9.7c-1.4-5-4.6-8.3-9.6-9.6c-1.6-0.4-3.4-0.6-5.1-0.6c-3.5-0.1-6.9,0-10.4,0
		c-0.4,0-0.9,0.1-1.4,0.1C46.5,331.2,46.5,341.3,46.5,351.5z"/>
	<path class="st1" d="M118.8,351.4c1.4-2.1,2.8-4.2,4.2-6.3c0.7,0.5,1.3,0.9,1.9,1.4c3.2,2.5,6.6,4.5,10.6,5.5c4,1,8,1.2,11.9,0.1
		c1.4-0.4,2.7-1,3.9-1.9c2-1.5,3-3.6,2.7-6.2c-0.3-1.9-1.4-3.2-3-4.1c-1.6-0.9-3.4-1.2-5.2-1.5c-2.9-0.4-5.9-0.6-8.8-0.9
		c-3.1-0.3-6.2-0.8-9-2.1c-1.1-0.5-2.3-1.1-3.2-1.9c-4.2-3.3-4.9-9.7-1.7-14.3c2.3-3.2,5.5-5,9.2-5.8c8-1.6,15.6-0.5,22.6,3.7
		c1.7,1,3.3,2.2,5,3.4c-1.5,2.1-2.8,4.1-4.3,6.2c-0.5-0.4-1-0.7-1.5-1.1c-2.8-2.2-5.8-4-9.2-4.9c-3.5-0.9-7-1.2-10.6-0.5
		c-1.4,0.3-2.8,0.9-4,1.8c-2.6,2.1-2.4,5.3,0.6,6.7c1.7,0.8,3.5,1.2,5.3,1.5c2.4,0.4,4.8,0.4,7.2,0.7c3.1,0.3,6.2,0.7,9.1,1.8
		c1.3,0.5,2.7,1.2,3.9,1.9c3.2,2.1,4.8,5.2,5.1,9c0.5,6.3-2.3,10.7-7.7,13.6c-3.2,1.7-6.7,2.3-10.3,2.5c-9,0.3-17.1-2.1-24.1-7.8
		C119.3,351.8,119.1,351.7,118.8,351.4z"/>
	<path class="st1" d="M404.3,335.4c0.3-3.5,0.9-6.9,2.4-10.1c3.2-6.8,8.7-10.7,16.1-12c3.8-0.7,7.6-0.5,11.3,0.5
		c7.2,2,12.1,6.5,14.5,13.6c2.2,6.3,2.1,12.7-0.3,18.9c-3,7.8-9,12.1-17.2,13.3c-3.7,0.6-7.4,0.4-11-0.7c-8.5-2.6-13.4-8.4-15.1-17
		C404.5,339.7,404.5,337.5,404.3,335.4z M427.1,352.7c7.4,0,12.8-4.1,14.7-11.1c0.9-3.4,0.9-6.8,0.1-10.1
		c-1.5-5.6-4.8-9.4-10.5-10.8c-1.7-0.4-3.5-0.5-5.2-0.5c-6.2,0.3-10.6,3.3-13,9.1c-1.3,3.2-1.5,6.5-1.1,9.9
		C413,347.3,419,352.7,427.1,352.7z"/>
	<path class="st1" d="M244.7,339.7c1,1.7,1.8,3.4,2.8,4.9c0.6,0.9,0.6,1.7,0.1,2.6c-0.9,1.7-1.7,3.4-2.5,5.1
		c-0.2,0.3-0.4,0.7-0.7,1.2c-2.7-4.6-5.3-9.1-7.8-13.5c-4.8,0-9.6,0-14.5,0c0,6.2,0,12.3,0,18.5c-2.5,0-4.8,0-7.3,0
		c0-14.9,0-29.7,0-44.6c0.3,0,0.6-0.1,0.9-0.1c8.3,0,16.6,0,24.9,0c1.4,0,2.9,0.2,4.3,0.6c5,1.2,7.9,4.6,8.9,9.5
		c0.4,2,0.4,4.1-0.1,6.1c-1,4.4-3.6,7.4-7.8,9.1C245.6,339.3,245.3,339.4,244.7,339.7z M222.2,320.9c-0.3,1.9-0.3,10.7,0.1,11.9
		c0.3,0,0.6,0,0.9,0c5.6,0,11.1,0,16.7,0c0.6,0,1.2,0,1.8-0.2c2.4-0.4,4.1-1.7,4.5-4.2c0.2-1.1,0.1-2.2-0.1-3.3
		c-0.3-2-1.6-3.3-3.6-3.8c-1.1-0.3-2.4-0.4-3.6-0.4c-5.1,0-10.2,0-15.4,0C223.2,320.9,222.7,320.9,222.2,320.9z"/>
	<path class="st1" d="M93.5,351.7c0.6,0,1.2,0,1.8,0c5.8,0,11.7,0,17.5,0c1,0,1.8,0.2,2.5,1c1.6,1.7,3.2,3.3,4.8,5
		c0.2,0.2,0.4,0.5,0.8,0.9c-11.7,0-23.1,0-34.7,0c0-14.8,0-29.7,0-44.5c1.2-0.3,29.5-0.5,34.8-0.2c-0.3,0.4-0.5,0.7-0.7,0.9
		c-1.7,1.7-3.4,3.4-5,5.2c-0.6,0.7-1.3,0.9-2.3,0.9c-5.9,0-11.8,0-17.6,0c-0.5,0-1.1,0-1.7,0c0,3.5,0,6.8,0,10.3c5.5,0,11,0,16.6,0
		c0,2.4,0,4.7,0,7.1c-5.6,0-11.1,0-16.6,0C93.5,342.9,93.5,347.1,93.5,351.7z"/>
	<path class="st1" d="M340.2,313.9c2,0,3.8,0,5.7,0c7.2,14.8,14.5,29.7,21.8,44.7c-2.8,0-5.4,0-8,0c-1.9-3.7-3.8-7.5-5.7-11.3
		c-7.3,0-14.5,0-21.9,0c-1.8,3.7-3.6,7.5-5.5,11.3c-2.6,0-5.2,0-8,0C325.9,343.6,333,328.8,340.2,313.9z M343.2,325.1
		c-0.1,0-0.3,0-0.4,0c-2.4,4.9-4.7,9.8-7.2,14.9c5,0,9.8,0,14.9,0C348,334.9,345.6,330,343.2,325.1z"/>
	<path class="st1" d="M296.3,358.6c-2.8,0-5.4,0-8,0c-0.2-0.4-0.4-0.8-0.6-1.1c-1.5-3.1-3.1-6.2-4.6-9.3c-0.3-0.7-0.7-1-1.5-1
		c-6.8,0-13.6,0-20.3,0c-0.1,0-0.2,0-0.5,0.1c-1.8,3.7-3.6,7.5-5.5,11.3c-2.7,0-5.2,0-7.9,0c0.2-0.5,0.4-0.9,0.5-1.3
		c6.7-14,13.5-27.9,20.1-41.9c0.6-1.2,1.2-1.7,2.5-1.5c1.3,0.1,2.6,0,4,0C281.8,328.7,289,343.6,296.3,358.6z M279.2,340
		c-2.5-5.1-4.9-10-7.5-15.3c-2.6,5.3-4.9,10.2-7.4,15.3C269.3,340,274.1,340,279.2,340z"/>
	<path class="st1" d="M366,321.1c0,6.6,0,13,0,19.4c-0.1,0-0.1,0-0.2,0.1c-0.2-0.3-0.4-0.6-0.6-1c-2-4-3.9-8-5.9-12
		c-0.5-0.9-0.7-1.9-0.7-2.9c0-3,0-5.9,0-8.9c0-0.5,0-1.1,0-1.7c0.5-0.1,0.9-0.1,1.3-0.1c5.9,0,11.9,0,17.8,0c2.8,0,5.6,0.4,8.3,1.2
		c7.1,2.1,11.7,6.8,13.7,13.9c1.4,4.8,1.4,9.6,0.1,14.4c-2.1,8.1-7.5,12.8-15.6,14.6c-3.2,0.7-6.4,0.7-9.7,0.7
		c-1.1-2.2-2.2-4.5-3.4-7c0.7,0,1.2-0.1,1.6-0.1c2.4-0.1,4.8,0,7.2-0.2c3.5-0.3,6.7-1.5,9.3-4.1c2.3-2.3,3.3-5.2,3.7-8.4
		c0.3-2.7,0.2-5.4-0.6-8.1c-1.6-5.4-5.3-8.5-10.7-9.6c-1.1-0.2-2.3-0.3-3.4-0.4c-3.8,0-7.5,0-11.3,0
		C366.7,320.9,366.5,321,366,321.1z"/>
	<path class="st1" d="M310,358.6c-1.7,0-3.2,0-4.7,0c-7-14.9-14.1-29.7-21.2-44.7c2.8,0,5.3,0,8.1,0c5.1,10.7,10.2,21.6,15.5,32.7
		c5.2-11.1,10.3-21.9,15.4-32.7c2.7,0,5.3,0,8.2,0C324.1,328.9,317.1,343.7,310,358.6z"/>
	<path class="st1" d="M209.8,386c-0.8,0-1.5,0-2.4,0c-1.1-4.8-2.3-9.6-3.5-14.6c-1.3,4.9-2.6,9.7-4,14.6c-0.8,0-1.5,0-2.4,0
		c-1.5-5.9-3-11.7-4.5-17.7c0.8,0,1.5,0,2.4,0c1.1,4.8,2.2,9.6,3.4,14.4c0.1,0,0.2,0,0.2,0c1.3-4.8,2.5-9.6,3.8-14.5
		c0.8,0,1.5,0,2.4,0c1.1,4.8,2.3,9.7,3.5,14.8c1.3-5.1,2.6-9.9,3.8-14.8c0.7,0,1.4,0,2.3,0C213.2,374.2,211.5,380.1,209.8,386z"/>
	<path class="st1" d="M271.8,386c0-5.9,0-11.7,0-17.6c3-0.5,6-0.7,9,0.1c3.3,1,5.3,3.5,5.5,7.1c0.1,1.4,0,2.8-0.4,4.2
		c-1,3.8-3.7,5.7-7.4,6.1C276.4,386.2,274.1,386,271.8,386z M274,384.3c1.9,0.1,3.5,0.2,5.2-0.3c2.2-0.7,3.8-2.1,4.3-4.4
		c0.3-1.2,0.5-2.5,0.4-3.7c-0.4-4.8-5.5-7.7-9.9-5.6C274,374.9,274,379.5,274,384.3z"/>
	<path class="st1" d="M388.1,377.1c0.3-1.4,0.5-2.9,1-4.2c1.3-3.3,4.4-5.3,7.9-5.1c3.7,0.2,6.3,2.5,7.2,6.2c0.6,2.3,0.5,4.7-0.3,7
		c-1.2,3.4-4.1,5.4-7.7,5.3c-3.5-0.1-6.3-2.1-7.4-5.6c-0.2-0.5-0.3-1.1-0.4-1.6c-0.1-0.6-0.1-1.3-0.1-1.9
		C388.2,377.2,388.1,377.2,388.1,377.1z M402.2,376.9c0-1.7-0.4-3.5-1.5-5c-2.2-3.1-6.7-3-8.6,0.2c-2,3.2-2,6.6-0.1,9.8
		c2.1,3.5,6.8,3.4,9,0C401.9,380.4,402.2,378.8,402.2,376.9z"/>
	<path class="st1" d="M144,377.3c0-1.6,0.2-3.1,0.9-4.5c1.5-3.3,4.6-5.2,8.1-4.8c3.7,0.4,6.2,2.7,7.1,6.4c0.4,1.9,0.4,3.8-0.1,5.7
		c-0.9,4-4.3,6.6-8.3,6.4c-4-0.2-7-3.1-7.5-7.3C144.1,378.5,144.1,377.9,144,377.3z M146.5,377.1c-0.1,1.8,0.3,3.6,1.5,5.1
		c2.2,3.1,6.5,3,8.7-0.1c1.9-2.7,1.9-7.2,0-10c-2.2-3.3-6.8-3.3-8.9,0.1C146.8,373.7,146.5,375.3,146.5,377.1z"/>
	<path class="st1" d="M242.4,377.5c1.6,0.9,2.2,2.4,2.6,4c0.3,1.5,0.7,2.9,1.1,4.5c-0.7,0-1.4,0-2.2,0c-0.3-1.2-0.7-2.5-1-3.8
		c-0.8-3.5-2.1-4.3-5.9-3.7c0,2.5,0,4.9,0,7.5c-0.8,0-1.4,0-2.1,0c-0.3-1.1-0.4-14.7-0.1-17.6c2.7-0.4,5.4-0.7,8.1,0.2
		c1.7,0.6,2.6,1.9,2.8,3.6c0.2,1.8-0.4,3.3-1.8,4.4C243.4,376.9,242.9,377.2,242.4,377.5z M237,376.5c1.6,0.1,3.1,0.3,4.5-0.4
		c1.2-0.5,1.8-1.5,1.9-2.8c0.1-1.3-0.4-2.4-1.6-3c-1.5-0.8-3.1-0.6-4.8-0.4C237,372.2,237,374.3,237,376.5z"/>
	<path class="st1" d="M324.7,370.5c-2.1-0.6-4-0.9-6-0.4c-2.6,0.6-4.3,2.2-5,4.9c-0.4,1.7-0.4,3.4,0.2,5c0.7,2.1,2.2,3.5,4.4,4.1
		c1.7,0.4,3.4,0.4,5.1-0.2c0-1.8,0-3.5,0-5.4c-1.2,0-2.2,0-3.4,0c0-0.6-0.1-1.1-0.1-1.8c1.9-0.1,3.7-0.1,5.6,0
		c0.1,0.4,0.2,0.7,0.2,1.1c0,2.1,0,4.2,0,6.3c0,0.8-0.3,1.2-1.1,1.5c-2.2,0.6-4.4,0.7-6.6,0.4c-3.8-0.5-6.4-3.3-6.8-7.2
		c-0.1-1.2-0.1-2.5,0.1-3.7c0.7-3.8,3.6-6.5,7.5-7c2-0.3,4.1-0.3,6.3,0.6C325,369.3,324.8,369.8,324.7,370.5z"/>
	<path class="st1" d="M385.6,386c-0.9,0-1.5,0-2.4,0c-0.6-1.8-1.3-3.6-1.9-5.5c-2.1,0-4.2,0-6.4,0c-0.6,1.8-1.3,3.7-1.9,5.5
		c-0.7,0-1.4,0-2.2,0c1.9-6,4-11.8,6-17.8c0.9,0,1.8,0,2.8,0C381.6,374,383.6,379.9,385.6,386z M380.8,378.6
		c-0.9-2.7-1.7-5.3-2.7-8.2c-0.9,2.9-1.8,5.5-2.7,8.2C377.4,378.6,379,378.6,380.8,378.6z"/>
	<path class="st1" d="M224.5,368.2c2,5.9,4,11.8,6.1,17.8c-0.9,0-1.6,0-2.4,0c-0.6-1.8-1.3-3.6-1.9-5.5c-2.2,0-4.2,0-6.4,0
		c-0.6,1.9-1.3,3.7-1.9,5.5c-0.8,0-1.4,0-2.3,0c2-6,4-11.9,6-17.8C222.6,368.2,223.4,368.2,224.5,368.2z M220.5,378.6
		c1.8,0,3.5,0.1,5.3,0c-0.9-2.8-1.8-5.4-2.7-8.2c-0.9,2.7-1.7,5.2-2.5,7.6C220.5,378.1,220.5,378.3,220.5,378.6z"/>
	<path class="st1" d="M290.8,368.2c3.2,0,6.3,0,9.4,0c0,0.6,0,1.1,0,1.8c-2.4,0-4.7,0-7.2,0c0,2,0,3.7,0,5.7c2.3,0,4.4,0,6.7,0
		c0,0.7,0,1.2,0,1.9c-2.2,0-4.4,0-6.8,0c-0.1,2.2-0.1,4.3,0,6.5c2.6,0,5.1,0,7.6,0c0,0.7,0,1.2,0,1.8c-3.3,0-6.5,0-9.9,0
		C290.8,380.1,290.8,374.2,290.8,368.2z"/>
	<path class="st1" d="M250.6,368.2c3.1,0,6.1,0,9.2,0c0,0.6,0,1.1,0,1.8c-2.4,0-4.7,0-7.2,0c0,1.9,0,3.7,0,5.7c2.2,0,4.4,0,6.7,0
		c0,0.7,0,1.2,0,1.9c-2.2,0-4.4,0-6.8,0c-0.1,2.2-0.1,4.3,0,6.5c2.5,0,5,0,7.6,0c0,0.7,0,1.3,0,1.9c-3.3,0-6.4,0-9.6,0
		C250.2,384.5,250.2,369.2,250.6,368.2z"/>
	<path class="st1" d="M333,370.1c0,1.9,0,3.7,0,5.7c2.3,0,4.4,0,6.7,0c0,0.7,0,1.2,0,1.9c-2.3,0-4.4,0-6.7,0c0,2.2,0,4.3,0,6.5
		c2.5,0,5,0,7.5,0c0.1,0.4,0.1,0.7,0.1,1c0,0.2,0,0.5-0.1,1c-3.2,0-6.5,0-9.8,0c0-6,0-11.9,0-17.8c3.1,0,6.2,0,9.4,0
		c0,0.6,0,1.1,0,1.9C337.8,370.1,335.4,370.1,333,370.1z"/>
	<path class="st1" d="M354.2,368.7c-0.2,0.6-0.4,1.1-0.5,1.5c-1.5-0.2-2.8-0.4-4.1-0.4c-0.9,0-1.7,0.4-2.3,1.2
		c-0.8,1.1-0.6,2.7,0.6,3.5c0.8,0.6,1.7,0.9,2.5,1.4c0.9,0.5,1.9,0.9,2.8,1.5c2.6,2,2.5,6.1-0.3,7.8c-2.8,1.7-5.6,1.3-8.6,0
		c0.2-0.6,0.3-1.1,0.5-1.8c0.4,0.1,0.8,0.2,1.2,0.4c1.3,0.5,2.6,0.7,4,0.5c1.5-0.2,2.5-1.1,2.8-2.4c0.3-1.3-0.2-2.4-1.4-3.2
		c-0.7-0.4-1.4-0.7-2.2-1.1c-0.8-0.4-1.8-0.8-2.5-1.3c-2.9-2.1-2.5-6.2,0.7-7.8C349.5,367.5,351.8,367.7,354.2,368.7z"/>
	<path class="st1" d="M139.8,368.7c-0.2,0.7-0.4,1.2-0.5,1.6c-1.2-0.2-2.3-0.4-3.5-0.5c-0.5,0-1,0-1.5,0.2c-1,0.3-1.7,1.1-1.9,2.1
		c-0.2,1,0.2,1.9,1.1,2.5c0.7,0.5,1.5,0.8,2.2,1.2c0.8,0.4,1.7,0.7,2.4,1.2c1.8,1.1,2.6,2.7,2.3,4.8c-0.3,2-1.5,3.4-3.4,4
		c-2.5,0.8-4.8,0.5-7.3-0.6c0.2-0.6,0.3-1.1,0.5-1.8c0.5,0.2,0.9,0.3,1.3,0.5c1.2,0.5,2.4,0.6,3.7,0.5c1.5-0.2,2.6-1.1,2.8-2.3
		c0.3-1.4-0.2-2.6-1.5-3.4c-0.6-0.4-1.4-0.6-2-1c-0.8-0.4-1.6-0.7-2.3-1.1c-1.5-1-2.3-2.4-2.2-4.2c0.2-1.9,1.2-3.3,3-4
		C135.3,367.6,137.5,367.7,139.8,368.7z"/>
	<path class="st1" d="M167.1,376.1c2.2,0,4.3,0,6.6,0c0,0.7,0.1,1.1,0.1,1.7c-2.2,0.3-4.4,0-6.7,0.2c0,2.6,0,5.3,0,8
		c-0.8,0-1.5,0-2.1,0c-0.3-1.1-0.4-16.1,0-17.7c3.1,0,6.1,0,9.3,0c0,0.6,0,1.1,0,1.8c-2.4,0-4.7,0-7.1,0
		C167.1,372.1,167.1,374,167.1,376.1z"/>
	<path class="st1" d="M182.5,370.1c-1.9,0-3.6,0-5.4,0c0-0.7,0-1.2,0-1.9c4.3,0,8.7,0,13,0c0,0.7,0,1.2,0,2c-1.8,0-3.5,0-5.4,0
		c0,5.4,0,10.6,0,15.9c-0.8,0-1.5,0-2.3,0C182.5,380.7,182.5,375.5,182.5,370.1z"/>
	<path class="st1" d="M363,370.1c-1.9,0-3.6,0-5.4,0c0-0.7,0-1.2,0-1.8c4.3,0,8.6,0,13,0c0,0.6,0,1.1,0,1.8c-1.7,0-3.4,0-5.3,0
		c0,1.9,0,3.6,0,5.3c0,1.8,0,3.5,0,5.3c0,1.7,0,3.5,0,5.3c-0.8,0-1.4,0-2.2,0C363,380.7,363,375.5,363,370.1z"/>
	<path class="st1" d="M504.2,320.5c-3.7,0-6.8-3.1-6.7-6.7c0-3.7,3-6.6,6.6-6.6c3.8,0,6.7,2.9,6.7,6.6
		C510.9,317.5,508,320.5,504.2,320.5z M498.8,313.8c0,3,2.4,5.5,5.4,5.5c3,0,5.5-2.4,5.5-5.4c0-2.9-2.5-5.5-5.4-5.5
		C501.3,308.3,498.8,310.7,498.8,313.8z"/>
	<path class="st0" d="M495.1,376.1c-1.9-3-4.2-5.4-7.3-7.3c0.5,0,1,0,1.5,0c0.5,0,1,0,1.5,0c1.1,0,2.1,0,3.2,0c1,0,1.1,0.2,1.2,1.1
		C495.2,372,495.1,374,495.1,376.1z"/>
	<path class="st1" d="M381.6,364.2c-0.3,2.6-1.2,3.1-3.1,2.3c-0.3-0.1-0.6-0.3-0.9-0.5c-0.5-0.2-0.8-0.1-1.1,0.4
		c-0.4,0.5-0.4,0.5-1.1,0.5c-0.2-2.1,1-3,2.9-2.1c0.3,0.1,0.5,0.3,0.8,0.4c0.5,0.3,1,0.3,1.4-0.3C380.5,364.6,381,364.5,381.6,364.2
		z"/>
	<path class="st0" d="M295.4,157.5c-2-1.5-3.4-3.4-4.4-5.6c1.2,0.9,2.4,1.7,3.5,2.6c0.4,0.3,0.6,0.9,0.8,1.4
		C295.4,156.4,295.4,156.9,295.4,157.5z"/>
	<path class="st0" d="M474.1,416c0.3,4-3.6,7.4-7.4,7.4c-3.6,0-7.3-3.2-7.3-7.3c0-3.8,3.7-7.4,7.4-7.4
		C470.8,408.8,474.5,412.4,474.1,416z"/>
	<path class="st0" d="M482.9,412.8c-3.4,0.2-7.3-3.2-7.2-7.3c0.1-3.9,3.8-7.3,7.5-7.3c3.5,0.1,7.3,3.2,7.2,7.3
		C490.4,409.5,486.6,413.1,482.9,412.8z"/>
	<path class="st0" d="M458.4,403.6c0.2,4.2-3.6,7.5-7.3,7.4c-3.5,0-7.1-2.6-7.2-7.2c-0.1-4.5,3.6-7.4,7.3-7.4
		C455.4,396.4,458.7,400,458.4,403.6z"/>
	<path class="st0" d="M486.8,392.1c0,2.1-1.6,3.8-3.6,3.8c-2.1,0-3.7-1.8-3.7-3.9c0-2,1.6-3.5,3.7-3.4
		C485.4,388.6,486.8,390,486.8,392.1z"/>
	<path class="st0" d="M470.5,402.7c0,2.1-1.7,3.8-3.6,3.8c-1.9,0-3.7-1.9-3.7-3.8c0-1.8,1.8-3.7,3.7-3.7
		C468.9,398.9,470.5,400.6,470.5,402.7z"/>
	<path class="st0" d="M462.6,389.4c0-1.3,0-2.4,0-3.6c0-1.1,0-2.2,0-3.3c0-0.9,0.3-1,1.1-1c1,0,1.6,0.5,2,1.3c0.8,1.8,0.8,3.7,0,5.6
		C465.2,389.4,464.4,389.7,462.6,389.4z"/>
	<path class="st0" d="M440.3,389.4c0-0.8,0-1.6,0-2.4c0-1.5,0-2.9,0-4.4c0-1.1,0.3-1.3,1.4-1.2c0.9,0.1,1.5,0.6,1.8,1.4
		c0.7,1.8,0.7,3.6,0,5.4C443,389.4,442.1,389.7,440.3,389.4z"/>
	<path class="st1" d="M502.6,313.9c-0.1,0.9-0.1,1.8-0.2,3c-0.4-0.4-0.7-0.6-0.7-0.7c0-1.9,0-3.9,0-6c1.3,0,2.6,0,3.8,0
		c0.7,0,1.2,0.5,1.4,1.2c0.2,0.6,0,1.2-0.4,1.6c-0.2,0.2-0.6,0.4-0.9,0.7c0.6,0.9,1.2,1.8,1.8,2.7c-0.5,0.4-0.8,0.3-1-0.1
		c-0.3-0.5-0.7-1-1-1.5C504.7,313.9,503.9,313.5,502.6,313.9z M502.7,313.1c0.9-0.1,1.8-0.1,2.6-0.2c0.6-0.1,0.9-0.5,0.9-1
		c0-0.6-0.4-1-0.9-1c-0.8-0.1-1.7,0-2.5,0C502.7,311.7,502.7,312.3,502.7,313.1z"/>
</g>
</svg>
