<svg id="Camada_1" data-name="Camada 1" xmlns="http://www.w3.org/2000/svg" viewBox="0 0 550 550"><defs><style>.cls-1{fill:#263c7d;}.cls-2{fill:#d49237;}</style></defs><title>logo-hackatur</title><polygon class="cls-1" points="53.95 334.19 53.95 307.15 30.18 307.15 30.18 334.19 15.17 334.19 15.17 269.23 30.18 269.23 30.18 294.16 53.95 294.16 53.95 269.23 68.97 269.23 68.97 334.19 53.95 334.19"/><path class="cls-1" d="M119.68,334.19l-4-12H93.22l-4,12H74.36l21.94-65h17l22.81,65Zm-12.8-38.68c-1.06-3.18-1.83-6.16-2.5-9.05h-.19c-.68,2.89-1.35,5.87-2.41,9.05l-5,14.82h15.1Z"/><path class="cls-1" d="M167.51,335.06c-24,0-30.41-16.27-30.41-31,0-21.08,11.45-35.32,32.91-35.32a45.69,45.69,0,0,1,13.28,1.83l-1.92,13.66a33.9,33.9,0,0,0-11.65-2c-10.49,0-16.16,7.61-16.16,19.35,0,12.8,5.19,19.82,16.93,19.82A27.44,27.44,0,0,0,181.56,319l2.12,13.29a48.35,48.35,0,0,1-16.17,2.79"/><polygon class="cls-1" points="226.11 334.19 208.5 303.68 208.5 334.19 193.49 334.19 193.49 269.23 208.5 269.23 208.5 297.91 226.31 269.23 244.49 269.23 223.03 300.51 245.55 334.19 226.11 334.19"/><path class="cls-1" d="M291.55,334.19l-4-12H265.09l-3.95,12H246.23l21.94-65h17l22.81,65Zm-12.8-38.68c-1.06-3.18-1.83-6.16-2.5-9.05h-.19c-.68,2.89-1.35,5.87-2.41,9.05l-5,14.82h15.11Z"/><polygon class="cls-1" points="332.45 282.03 332.45 334.19 317.54 334.19 317.54 282.03 301.94 282.03 301.94 269.23 348.04 269.23 348.04 282.03 332.45 282.03"/><path class="cls-1" d="M378.83,335.44c-20.11,0-29.92-12.51-29.92-32.91,0-21.17,14.53-34.55,32.23-34.55,17.13,0,29.93,9.91,29.93,32.72,0,21.36-14.24,34.74-32.24,34.74M380,281.65c-7.79,0-15.2,6.06-15.2,19.63,0,12.51,4.62,20.4,14.91,20.4,7.12,0,15.49-5.29,15.49-20,0-13.09-5.29-20-15.2-20"/><path class="cls-1" d="M445.24,335.44c-20.69,0-25.7-11.16-25.7-24.15V269.23h15v41.19c0,7.6,2.41,12.42,11.65,12.42,8.47,0,11.74-3.57,11.74-13.29V269.23h14.82v39.46c0,18.28-10.3,26.75-27.52,26.75"/><path class="cls-1" d="M516.54,334.19l-15.11-25.41h-.86v25.41h-15v-65c5.48-.38,12.51-.48,20.3-.48,15.3,0,24.54,5.49,24.54,19.25a18.37,18.37,0,0,1-13.95,18c1.73,2.51,3.46,4.91,5,7.32l13.38,20.88ZM504.7,281.07c-1.53,0-3.27.1-4.13.19v16.65a34.54,34.54,0,0,0,3.75.19c6.35,0,10.39-3.37,10.39-8.85,0-5.1-3-8.18-10-8.18"/><path class="cls-2" d="M287.64,198.12a11.57,11.57,0,0,1-6.85-3.32,11.52,11.52,0,0,1,9.48-19.56,11.57,11.57,0,0,1,6.84,3.32,11.51,11.51,0,0,1-9.47,19.56m1.92-16.7a5.27,5.27,0,0,0-4.35,1.51,5.29,5.29,0,0,0,0,7.49,5.41,5.41,0,0,0,7.48,0,5.3,5.3,0,0,0-3.12-9"/><path class="cls-2" d="M266.52,249.58l-1.86-1.9A31.48,31.48,0,0,1,257.08,235l-.25,0a29.77,29.77,0,0,0-3.39.35,48.55,48.55,0,0,0-5.86-7.43c-2.07-2-7.86-5-7.86-5s.54-3.42.53-4.14c0-.19,0-.38,0-.55a31.69,31.69,0,0,1-12.42-7.58l-1.88-1.88,1.24-2.34a31.51,31.51,0,0,1,25.54-16.72,80.91,80.91,0,0,1,8.58-10.09c13.76-13.68,29.64-20.29,53.11-22.07l4.18-.32-.34,4.18c-1.92,23.46-8.6,39.31-22.38,53a80.78,80.78,0,0,1-10.13,8.52,31.47,31.47,0,0,1-16.85,25.44Zm-4-22.53.84,3.77a24.55,24.55,0,0,0,4.58,9.77,23.72,23.72,0,0,0,4.5-3.91,24.59,24.59,0,0,0,5.78-11.54l-10.37,1.19,12.22-8.2a74.36,74.36,0,0,0,10.75-8.81c11.62-11.56,17.68-25,19.87-44.26-19.31,2.09-32.74,8.07-44.36,19.63a73.19,73.19,0,0,0-8.87,10.7l-8.26,12.05,1.24-10.23a24.21,24.21,0,0,0-15.51,10.18,24.48,24.48,0,0,0,9.74,4.64l3.78.86s-1.06,5-1,5.73c0,.25,0,.47,0,.68a19.82,19.82,0,0,1,4.84,3.22,22.62,22.62,0,0,1,4.44,5.29l.92.09c.58.06,4.91-.85,4.91-.85"/><path class="cls-2" d="M266.92,212.17a2.54,2.54,0,1,1,0-3.59,2.53,2.53,0,0,1,0,3.59"/><path class="cls-2" d="M276.23,204.7a3.81,3.81,0,1,1,0-5.38,3.81,3.81,0,0,1,0,5.38"/><path class="cls-2" d="M226.54,249.24l7.13-16.61a7.48,7.48,0,0,1,7.93-5,7.53,7.53,0,0,1,4.46,2.16,7.5,7.5,0,0,1,0,10.59,7.54,7.54,0,0,1-2.89,1.78ZM240,233.66a2.18,2.18,0,0,0-1.81.63,2.21,2.21,0,0,0-.56.91l-.2.53L235.55,240l4.8-2a2.13,2.13,0,0,0,.91-.54,2.27,2.27,0,0,0,.66-1.58,2.24,2.24,0,0,0-.64-1.56,2.16,2.16,0,0,0-1.33-.65"/><path class="cls-1" d="M178.52,392.73c-9.94,0-14.06-6.32-14.06-15.07,0-9.44,4.67-16.49,15.12-16.49a26.11,26.11,0,0,1,7.1,1L186,366a21.47,21.47,0,0,0-6.87-1.19c-7.06,0-10.08,5.4-10.08,12.18,0,7.61,3.3,12,10.49,12a16.5,16.5,0,0,0,6.78-1.56l.69,3.67a22.94,22.94,0,0,1-8.48,1.65"/><path class="cls-1" d="M211.6,392.36,209,385.12H195.89l-2.57,7.24H189l11.27-30.92H205l11.36,30.92Zm-7.79-22c-.55-1.51-1-2.88-1.33-4.21h-.09c-.37,1.33-.78,2.7-1.28,4.17L197,381.78h11Z"/><polygon class="cls-1" points="227.22 364.97 227.22 392.36 223.01 392.36 223.01 364.97 214.12 364.97 214.12 361.44 236.15 361.44 236.15 364.97 227.22 364.97"/><path class="cls-1" d="M256.31,392.36l-2.56-7.24H240.6L238,392.36h-4.31L245,361.44h4.67L261,392.36Zm-7.79-22c-.54-1.51-1-2.88-1.32-4.21h-.09c-.37,1.33-.78,2.7-1.29,4.17l-4.12,11.45h11Z"/><path class="cls-1" d="M280.23,392.36,270.1,378.48h-.55v13.88h-4.21V361.44c2.11-.14,4.35-.18,7.74-.18,6.09,0,10.49,2.15,10.49,8.06,0,5.27-4.17,8.34-9.07,8.7.87,1.1,1.88,2.25,2.66,3.3l8.43,11Zm-7.88-27.67c-1.06,0-2,.05-2.8.1v10.53c.46.05,1.38.09,2.61.09,4.45,0,7-2.24,7-5.54,0-3.71-2.33-5.18-6.82-5.18"/><path class="cls-1" d="M309.46,392.36l-2.57-7.24H293.74l-2.56,7.24h-4.31l11.27-30.92h4.67l11.36,30.92Zm-7.79-22c-.55-1.51-1-2.88-1.33-4.21h-.09c-.37,1.33-.78,2.7-1.28,4.17l-4.13,11.45h11Z"/><polygon class="cls-1" points="325.08 364.97 325.08 392.36 320.87 392.36 320.87 364.97 311.98 364.97 311.98 361.44 334.01 361.44 334.01 364.97 325.08 364.97"/><path class="cls-1" d="M354.17,392.36l-2.57-7.24H338.46l-2.57,7.24h-4.31l11.27-30.92h4.68l11.36,30.92Zm-7.79-22c-.55-1.51-1-2.88-1.33-4.21H345c-.37,1.33-.77,2.7-1.28,4.17l-4.12,11.45H350.5Z"/><path class="cls-1" d="M368.51,392.78a25.08,25.08,0,0,1-6.78-.87l.51-4a17.78,17.78,0,0,0,6.5,1.24c3.57,0,6.69-1.47,6.69-5.27,0-7-14-4.21-14-14.06,0-5.09,3.84-8.75,10.81-8.75a25.05,25.05,0,0,1,5.59.6l-.51,3.7a18.82,18.82,0,0,0-5.31-.82c-4.22,0-6.23,1.88-6.23,4.81,0,6.69,14.15,4.26,14.15,14,0,5.55-4.53,9.49-11.45,9.49"/></svg>