<?xml version="1.0" encoding="utf-8"?>
<!-- Generator: Adobe Illustrator 24.0.1, SVG Export Plug-In . SVG Version: 6.00 Build 0)  -->
<svg version="1.1" id="Camada_1" xmlns="http://www.w3.org/2000/svg" xmlns:xlink="http://www.w3.org/1999/xlink" x="0px" y="0px"
	 viewBox="0 0 550 550" style="enable-background:new 0 0 550 550;" xml:space="preserve">
<style type="text/css">
	.st0{fill:#231F20;}
	.st1{fill:#FDB913;}
	.st2{fill:#AD227C;}
	.st3{fill:#D7DF23;}
	.st4{fill:#FFFFFF;}
	.st5{fill:#6FBE44;}
	.st6{font-family:'ArialMT';}
	.st7{font-size:19.3704px;}
</style>
<title>logo-idestur</title>
<path class="st0" d="M89.3,349v-87.7h18.4V349L89.3,349z"/>
<path class="st0" d="M159,349l-0.1-7.9c-4,6.4-10,9.6-18.1,9.6c-3.9,0-7.8-0.8-11.4-2.4c-3.4-1.6-6.5-3.9-8.9-6.9
	c-2.6-3.3-4.6-7-5.8-11c-1.5-4.7-2.2-9.7-2.1-14.7c0-4.6,0.6-9.1,1.8-13.5c1.1-3.8,2.8-7.4,5.2-10.6c2.2-2.9,5.1-5.3,8.4-6.9
	c3.5-1.7,7.4-2.5,11.3-2.4c8,0,14.4,3.4,19.3,10.2v-31.3h16.9V349L159,349z M144.8,336.7c4.1,0,7.9-1.9,10.4-5.2
	c2.8-3.4,4.2-7.9,4.2-13.5c0-14.1-4.8-21.1-14.4-21.1c-9.8,0-14.8,6.7-14.8,20.1c0,5.8,1.4,10.5,4.1,14.2
	C136.6,334.7,140.6,336.8,144.8,336.7z"/>
<path class="st0" d="M198.1,321c0.3,4.9,1.7,8.8,4.3,11.8c2.6,2.9,6.3,4.5,10.2,4.4c2.6,0.1,5.2-0.6,7.5-1.9
	c2.1-1.1,3.6-3.1,4.2-5.4H242c-2,6.7-5.5,11.9-10.6,15.5s-11,5.4-18,5.4c-21.7,0-32.5-11.8-32.5-35.4c-0.1-4.6,0.7-9.2,2.1-13.6
	c1.3-3.9,3.4-7.4,6.1-10.4c2.7-2.9,6.1-5.2,9.8-6.7c4.3-1.6,8.8-2.4,13.3-2.3c10,0,17.6,3.2,22.8,9.6c5.1,6.4,7.7,16.1,7.7,29.1
	L198.1,321z M225.2,310.2c0-2.2-0.5-4.3-1.3-6.3c-0.7-1.7-1.7-3.2-3-4.5c-1.2-1.2-2.7-2.1-4.2-2.6c-1.6-0.6-3.2-0.9-4.9-0.9
	c-3.4,0-6.6,1.3-8.9,3.8c-2.5,2.5-3.9,6-4.3,10.5L225.2,310.2z"/>
<path class="st0" d="M287.3,303.7c-0.4-3-1.6-5.2-3.4-6.5s-4.6-2-8.3-2c-3.5,0-6.2,0.4-8,1.3c-1.7,0.7-2.8,2.4-2.7,4.3
	c0,1.8,1.1,3.4,2.7,4.2c2.5,1.3,5.1,2.3,7.9,3l14.3,4c3.3,0.8,6.4,2.2,9.3,3.9c2.2,1.3,3.9,3.3,5,5.6c1.1,2.9,1.6,6,1.5,9.1
	c0,5.8-2.4,10.6-7.3,14.5c-4.8,3.8-12,5.7-21.5,5.7c-4.3,0.1-8.5-0.5-12.7-1.6c-3.5-0.9-6.8-2.5-9.7-4.5c-5.3-3.8-8.5-9.9-8.5-16.5
	h17.7c-0.1,2.9,1.3,5.6,3.6,7.1c2.4,1.7,5.6,2.5,9.4,2.5c2.9,0.1,5.7-0.4,8.4-1.5c2.3-1,3.5-2.6,3.5-4.7c0.2-2.1-0.8-4-2.6-5.1
	c-2.5-1.3-5.1-2.3-7.9-2.8c-5.2-1.1-10.3-2.6-15.3-4.4c-3.3-1.2-6.3-2.9-9.1-5.1c-2-1.6-3.5-3.7-4.4-6.1c-0.8-2.4-1.2-4.9-1.1-7.4
	c0-2.4,0.5-4.8,1.5-7c1.1-2.3,2.8-4.3,4.8-5.8c2.6-1.9,5.5-3.2,8.6-4c4.2-1.1,8.6-1.6,12.9-1.5c9.3,0,16.2,1.9,20.5,5.7
	c4.3,3.8,6.7,9,7.1,15.7L287.3,303.7z"/>
<path class="st0" d="M346.7,306.2h16v18.5c0,3.3-0.5,6.7-1.5,9.8c-1,3.1-2.6,5.9-4.8,8.3c-2.3,2.5-5.1,4.5-8.2,5.7
	c-3.8,1.5-7.8,2.2-11.8,2.1c-4.2,0.1-8.3-0.6-12.2-2.1c-3.1-1.3-6-3.2-8.3-5.7c-2.2-2.4-3.8-5.2-4.7-8.3c-1-3.3-1.5-6.6-1.4-10
	v-62.8h16.9v22.1h35.9v12.3h-35.9v26.7c0,4.1,0.8,7.3,2.3,9.6c1.5,2.3,4.1,3.4,7.6,3.4c3.5,0,6-1.1,7.6-3.3c1.6-2.2,2.4-5.3,2.4-9.4
	L346.7,306.2z"/>
<path class="st0" d="M411.2,349v-9.1c-4.4,7.2-11.1,10.8-20.2,10.8c-3.1,0-6.1-0.5-8.9-1.7c-2.6-1.1-5-2.8-6.9-4.9
	c-2-2.2-3.5-4.8-4.6-7.5c-1.1-3.1-1.7-6.4-1.7-9.8V284h17.2v40.2c0,8.1,3.7,12.2,11,12.2c4.4,0,7.7-1.4,10-4.2
	c2.3-3,3.5-6.8,3.4-10.6V284h17v65L411.2,349z"/>
<path class="st0" d="M434.3,349v-65h16.1v7.8c1.2-1.9,2.7-3.7,4.4-5.2c1.4-1.2,3-2.1,4.8-2.8c1.6-0.7,3.3-1.1,5-1.3
	c1.7-0.2,3.4-0.3,5.1-0.3h2.3v17.5c-1.6-0.3-3.2-0.4-4.8-0.4c-10.5,0-15.7,5.2-15.7,15.7V349L434.3,349z"/>
<path class="st1" d="M263.8,118.9c-0.2,4.2-3.7,7.5-8,7.3c0,0,0,0,0,0l-36-1.5c-4.2-0.2-7.5-3.7-7.3-8l1.5-36c0.2-4.2,3.7-7.5,8-7.3
	l36,1.5c4.2,0.2,7.5,3.7,7.3,8L263.8,118.9z"/>
<path class="st2" d="M258.5,230.4c-0.2,4.2-3.8,7.5-8,7.3l-36-1.5c-4.2-0.2-7.5-3.7-7.3-8l3.8-82.5c0.2-4.2,3.7-7.5,8-7.3l36,1.5
	c4.2,0.2,7.5,3.7,7.3,8L258.5,230.4z"/>
<path class="st3" d="M221.2,247.1l7.5-148.4l57.4,2.9c9.5,0.4,18.8,2.6,27.5,6.5c8.1,3.6,15.2,8.9,21.1,15.5
	c5.9,6.9,10.3,14.9,13,23.5c3,9.1,4.2,19.3,3.6,30.7c-0.4,10.5-2.5,20.9-6.1,30.7c-3.2,8.6-8,16.5-14.3,23.2
	c-5.9,6.3-13.1,11.2-21.1,14.4c-8.4,3.3-17.4,4.7-26.4,4.2L221.2,247.1z"/>
<path class="st4" d="M266.6,197.2l2.4-47.2l18.3,0.9c3,0.1,6,0.8,8.7,2c2.6,1.1,4.9,2.8,6.7,4.9c1.9,2.2,3.3,4.7,4.2,7.5
	c1,3.2,1.4,6.5,1.1,9.8c-0.1,3.3-0.8,6.6-2,9.8c-1,2.7-2.6,5.2-4.5,7.4c-1.9,2-4.2,3.6-6.7,4.6c-2.7,1-5.5,1.5-8.4,1.3L266.6,197.2z
	"/>
<path class="st5" d="M255,140l-28.3-1.2l-4.9,97.8l28.8,1.2c4.2,0.2,7.8-3.1,8-7.3l3.8-82.5C262.5,143.7,259.3,140.2,255,140
	C255,140,255,140,255,140z"/>
<path class="st2" d="M228.7,98.7l-1.3,26.3l28.5,1.2c4.2,0.2,7.8-3.1,8-7.3c0,0,0,0,0,0l0.8-18.4L228.7,98.7z"/>
<text transform="matrix(1 0 0 1 101.2495 374.8428)" class="st0 st6 st7">I</text>
<text transform="matrix(1 0 0 1 106.0762 374.8428)" class="st0 st6 st7">nstitu</text>
<text transform="matrix(1 0 0 1 152.5317 374.8428)" class="st0 st6 st7">t</text>
<text transform="matrix(1 0 0 1 158.8252 374.8428)" class="st0 st6 st7">o pa</text>
<text transform="matrix(1 0 0 1 193.9302 374.8428)" class="st0 st6 st7">r</text>
<text transform="matrix(1 0 0 1 200.1685 374.8428)" class="st0 st6 st7">a o </text>
<text transform="matrix(1 0 0 1 228.3613 374.8428)" class="st0 st6 st7">D</text>
<text transform="matrix(1 0 0 1 241.3457 374.8428)" class="st0 st6 st7">ese</text>
<text transform="matrix(1 0 0 1 268.4219 374.8428)" class="st0 st6 st7">n</text>
<text transform="matrix(1 0 0 1 278.9238 374.8428)" class="st0 st6 st7">v</text>
<text transform="matrix(1 0 0 1 288.0508 374.8428)" class="st0 st6 st7">olvime</text>
<text transform="matrix(1 0 0 1 342.9785 374.8428)" class="st0 st6 st7">n</text>
<text transform="matrix(1 0 0 1 353.6553 374.8428)" class="st0 st6 st7">t</text>
<text transform="matrix(1 0 0 1 359.9492 374.8428)" class="st0 st6 st7">o do</text>
<text transform="matrix(1 0 0 1 396.2539 374.8428)" class="st0 st6 st7"> </text>
<text transform="matrix(1 0 0 1 399.5664 374.8428)" class="st0 st6 st7">T</text>
<text transform="matrix(1 0 0 1 408.3242 374.8428)" class="st0 st6 st7">u</text>
<text transform="matrix(1 0 0 1 419.002 374.8428)" class="st0 st6 st7">r</text>
<text transform="matrix(1 0 0 1 425.415 374.8428)" class="st0 st6 st7">ismo </text>
<text transform="matrix(1 0 0 1 194.4102 398.0898)" class="st0 st6 st7">e </text>
<text transform="matrix(1 0 0 1 208.2251 398.0898)" class="st0 st6 st7">P</text>
<text transform="matrix(1 0 0 1 218.2192 398.0898)" class="st0 st6 st7">r</text>
<text transform="matrix(1 0 0 1 224.3564 398.0898)" class="st0 st6 st7">oje</text>
<text transform="matrix(1 0 0 1 249.4111 398.0898)" class="st0 st6 st7">t</text>
<text transform="matrix(1 0 0 1 255.7051 398.0898)" class="st0 st6 st7">os Est</text>
<text transform="matrix(1 0 0 1 301.7363 398.0898)" class="st0 st6 st7">r</text>
<text transform="matrix(1 0 0 1 307.9746 398.0898)" class="st0 st6 st7">a</text>
<text transform="matrix(1 0 0 1 317.2402 398.0898)" class="st0 st6 st7">t</text>
<text transform="matrix(1 0 0 1 323.5342 398.0898)" class="st0 st6 st7">é</text>
<text transform="matrix(1 0 0 1 333.2422 398.0898)" class="st0 st6 st7">g</text>
<text transform="matrix(1 0 0 1 343.9561 398.0898)" class="st0 st6 st7">i</text>
<text transform="matrix(1 0 0 1 348.4873 398.0898)" class="st0 st6 st7">c</text>
<text transform="matrix(1 0 0 1 357.0508 398.0898)" class="st0 st6 st7">os</text>
</svg>
