<?xml version="1.0" encoding="utf-8"?>
<!-- Generator: Adobe Illustrator 24.0.1, SVG Export Plug-In . SVG Version: 6.00 Build 0)  -->
<svg version="1.1" id="Camada_1" xmlns="http://www.w3.org/2000/svg" xmlns:xlink="http://www.w3.org/1999/xlink" x="0px" y="0px"
	 viewBox="0 0 550 550" style="enable-background:new 0 0 550 550;" xml:space="preserve">
<style type="text/css">
	.st0{fill:#189B99;}
	.st1{fill:#00B7DA;}
	.st2{fill:#E89048;}
	.st3{fill:#1B364E;}
</style>
<g>
	<g>
		<path class="st0" d="M304.2,144.2c0,8.2,6.7,14.9,14.9,14.9h0v-55.8c0-34.9-28.4-63.3-63.3-63.3h-14.9c0,8.2,6.7,14.9,14.9,14.9
			l0,0c26.7,0,48.4,21.7,48.4,48.4L304.2,144.2z"/>
		<path class="st1" d="M289.3,185.2v-67c0-26.7-21.7-48.4-48.4-48.4h-48.4l0,0c0,8.2,6.7,14.9,14.9,14.9h33.5
			c18.5,0,33.5,15,33.5,33.5v67c0,20.5,16.7,37.2,37.2,37.2v-14.9C299.3,207.5,289.3,197.5,289.3,185.2z"/>
		<g>
			<path class="st2" d="M244.6,170.3c0,8.2,6.7,14.9,14.9,14.9V133c0-18.5-15-33.5-33.5-33.5h-14.9c0,8.2,6.7,14.9,14.9,14.9h0
				c10.3,0,18.6,8.3,18.6,18.6L244.6,170.3L244.6,170.3z"/>
		</g>
	</g>
	<g>
		<g>
			<path class="st3" d="M165.8,294.1c-0.9,0.2-1.9,0.2-3.2,0.2s-2.3-0.1-3.2-0.2v-31.9l0.3-0.3h19.4c0.2,0.7,0.3,1.6,0.3,2.5
				c0,1-0.3,1.7-0.8,2.1c-0.5,0.5-1.4,0.7-2.6,0.7h-10.3l0,4.6v3.5h10.7c0.2,0.7,0.3,1.5,0.3,2.5c0,1-0.1,1.9-0.3,2.6h-10.7
				L165.8,294.1L165.8,294.1z"/>
			<path class="st3" d="M199.9,284.4h-13c0.1,1.7,0.5,3.1,1.2,4.1c0.7,1,1.9,1.5,3.7,1.5c1.8,0,3.9-0.5,6.3-1.6
				c0.9,0.9,1.5,2.2,1.7,3.7c-2.5,1.8-5.5,2.7-9,2.7c-3.3,0-5.8-1-7.6-3.1c-1.7-2.1-2.6-5.1-2.6-9.2c0-1.9,0.2-3.6,0.7-5.1
				c0.4-1.5,1.1-2.8,1.9-3.9c0.8-1.1,1.9-1.9,3.1-2.5c1.2-0.6,2.6-0.9,4.2-0.9c1.6,0,3,0.2,4.2,0.7c1.2,0.5,2.3,1.2,3.1,2.1
				c0.8,0.9,1.5,2,1.9,3.2c0.4,1.2,0.6,2.6,0.6,4c0,0.8,0,1.5-0.1,2.2C200.2,283.1,200.1,283.8,199.9,284.4z M190.8,274.6
				c-2.4,0-3.8,1.9-4,5.6h7.8v-0.6c0-1.5-0.3-2.7-0.9-3.6C193.1,275,192.2,274.6,190.8,274.6z"/>
			<path class="st3" d="M203.5,292.5c0-0.7,0.2-1.5,0.6-2.3c0.4-0.8,0.8-1.5,1.2-2c2.5,1.3,4.7,2,6.5,2c1,0,1.9-0.2,2.5-0.6
				c0.6-0.4,1-1,1-1.6c0-1.1-0.8-2-2.5-2.6l-2.6-1c-4-1.4-5.9-3.7-5.9-6.9c0-1.1,0.2-2.1,0.6-3c0.4-0.9,1-1.7,1.8-2.3
				c0.8-0.6,1.7-1.1,2.8-1.5c1.1-0.3,2.3-0.5,3.6-0.5c0.6,0,1.3,0,2,0.1c0.7,0.1,1.5,0.2,2.2,0.4c0.8,0.2,1.5,0.4,2.2,0.6
				c0.7,0.2,1.3,0.5,1.8,0.7c0,0.8-0.2,1.6-0.5,2.4c-0.3,0.8-0.7,1.5-1.3,1.9c-2.5-1.1-4.6-1.6-6.4-1.6c-0.8,0-1.5,0.2-1.9,0.6
				c-0.5,0.4-0.7,0.9-0.7,1.5c0,1,0.8,1.7,2.4,2.3l2.9,1c2.1,0.7,3.6,1.7,4.6,3c1,1.3,1.5,2.7,1.5,4.4c0,2.2-0.8,4-2.5,5.3
				c-1.7,1.3-4,2-7.2,2C209.1,294.8,206.2,294,203.5,292.5z"/>
			<path class="st3" d="M239,270.7c0.2,0.8,0.3,1.5,0.3,2.2c0,0.7-0.1,1.5-0.3,2.2l-5.7-0.1v12.4c0,1.4,0.7,2.2,2,2.2h2.9
				c0.3,0.9,0.5,1.8,0.5,2.7c0,0.8,0,1.4-0.1,1.6c-1.9,0.3-3.8,0.4-5.6,0.4c-3.8,0-5.6-1.9-5.6-5.7v-13.5l-3.6,0
				c-0.2-0.6-0.2-1.4-0.2-2.2c0-0.8,0.1-1.6,0.2-2.2l3.6,0v-3.4c0-1.4,0.3-2.4,0.8-2.9c0.5-0.6,1.4-0.8,2.6-0.8h2.4l0.3,0.3v6.9
				L239,270.7z"/>
			<path class="st3" d="M251.2,275.5v18.6c-0.5,0.1-1,0.2-1.5,0.2c-0.5,0-1,0-1.6,0c-0.5,0-1.1,0-1.6,0c-0.5,0-1-0.1-1.5-0.2v-16.4
				c0-1.7-0.7-2.6-2.1-2.6h-0.6c-0.2-0.7-0.3-1.4-0.3-2.2c0-0.7,0.1-1.4,0.3-2.2c0.7-0.1,1.4-0.1,2-0.2c0.6,0,1.1-0.1,1.6-0.1h0.8
				c1.4,0,2.5,0.4,3.3,1.3C250.8,272.8,251.2,274,251.2,275.5z M244.1,261.7c0.7-0.4,1.8-0.6,3.1-0.6c0.8,0,1.4,0.1,1.9,0.2
				c0.5,0.1,0.8,0.3,1.1,0.4c0.2,0.2,0.4,0.5,0.4,1c0.1,0.5,0.1,1,0.1,1.5c-0.1,1.6-0.3,2.5-0.6,2.6c-0.3,0.2-1.3,0.3-2.9,0.5
				c-1.8-0.1-2.8-0.3-3.1-0.7c-0.3-0.4-0.4-1.2-0.4-2.4C243.7,263.2,243.8,262.4,244.1,261.7z"/>
			<path class="st3" d="M265.5,289.3l4.8-18.5c0.6-0.2,1.5-0.2,2.5-0.2c1,0,2,0.2,2.9,0.5l0.2,0.3c-3.1,10.7-5.4,18.3-6.9,22.8
				c-1.4,0.2-2.8,0.3-4.3,0.3c-1.5,0-2.5-0.2-3.1-0.6c-0.6-0.4-1.1-1.3-1.5-2.5l-6.1-20c1.3-0.6,2.4-0.9,3.5-0.9
				c1.9,0,3,0.9,3.4,2.8l2.6,9.6c0.3,1.1,0.8,3.2,1.4,6.3C265.1,289.2,265.3,289.3,265.5,289.3z"/>
			<path class="st3" d="M298.2,291.3c-0.2,0.6-0.4,1.2-0.8,1.8c-0.4,0.6-0.8,1.1-1.2,1.4c-2-0.3-3.5-1.1-4.5-2.7c-2,2-4.3,3-6.7,3
				c-1.2,0-2.3-0.2-3.2-0.6c-0.9-0.4-1.7-0.9-2.3-1.6c-0.6-0.7-1.1-1.4-1.4-2.3c-0.3-0.8-0.4-1.7-0.4-2.6c0-1.3,0.2-2.5,0.7-3.5
				c0.5-1,1.1-1.8,1.9-2.5c0.8-0.7,1.8-1.2,2.9-1.5c1.1-0.3,2.3-0.5,3.6-0.5c1.7,0,3,0,4,0.1v-1.3c0-2.4-1.2-3.6-3.5-3.6
				c-1.6,0-4,0.5-7.2,1.6c-0.9-1-1.4-2.4-1.6-4.4c3.3-1.4,6.8-2.1,10.3-2.1c2.4,0,4.3,0.7,5.8,2c1.5,1.3,2.3,3.3,2.3,6v9.7
				C296.9,289.5,297.3,290.7,298.2,291.3z M286.4,290.1c1.6,0,3-0.7,4.4-2.1V284c-0.5,0-1-0.1-1.5-0.1c-0.5,0-0.9,0-1.4,0
				c-1.4,0-2.4,0.3-3.2,0.8c-0.7,0.5-1.1,1.4-1.1,2.6c0,0.9,0.2,1.7,0.7,2.2C284.9,289.9,285.5,290.1,286.4,290.1z"/>
			<path class="st3" d="M311.1,289.6h1.5c0.3,0.9,0.5,1.7,0.5,2.5c0,0.8,0,1.4-0.1,1.8c-1.9,0.3-3.4,0.4-4.6,0.4
				c-1.8,0-3.2-0.5-4-1.4c-0.8-0.9-1.3-2.4-1.3-4.4v-28.8l0.3-0.3h2.4c1.2,0,2.1,0.3,2.6,0.9c0.5,0.6,0.8,1.6,0.8,2.9v24.2
				C309.1,288.9,309.8,289.6,311.1,289.6z"/>
			<path class="st3" d="M335.6,270.3c1.5,0,3.1,0.4,4.8,1.3v-11.8l0.3-0.3h2.4c1.2,0,2.1,0.3,2.6,0.8c0.5,0.6,0.8,1.6,0.8,3v24.1
				c0,1.9,0.4,3.2,1.3,3.9c-0.1,0.6-0.4,1.2-0.8,1.8s-0.8,1.1-1.2,1.4c-2-0.2-3.5-1.1-4.4-2.8c-1.9,2-4.1,3.1-6.7,3.1
				c-1.4,0-2.5-0.3-3.6-0.9c-1-0.6-1.9-1.4-2.6-2.4c-0.7-1.1-1.2-2.3-1.6-3.8c-0.3-1.5-0.5-3.2-0.5-5.1c0-1.9,0.2-3.6,0.7-5.1
				c0.5-1.5,1.1-2.8,2-3.8c0.8-1.1,1.8-1.9,2.9-2.4C333.2,270.6,334.4,270.3,335.6,270.3z M336.2,289.8c1.6,0,3-0.8,4.2-2.4v-11
				c-0.7-0.4-1.4-0.8-2-1c-0.6-0.2-1.2-0.4-1.7-0.4c-1.2,0-2.2,0.6-2.9,1.9c-0.7,1.3-1.1,3.2-1.1,5.7c0,2.4,0.3,4.2,1,5.4
				C334.3,289.2,335.2,289.8,336.2,289.8z"/>
			<path class="st3" d="M372,291.3c-0.2,0.6-0.4,1.2-0.8,1.8c-0.4,0.6-0.8,1.1-1.2,1.4c-2-0.3-3.5-1.1-4.5-2.7c-2,2-4.3,3-6.7,3
				c-1.2,0-2.3-0.2-3.2-0.6c-0.9-0.4-1.7-0.9-2.3-1.6c-0.6-0.7-1.1-1.4-1.4-2.3c-0.3-0.8-0.4-1.7-0.4-2.6c0-1.3,0.2-2.5,0.7-3.5
				c0.5-1,1.1-1.8,1.9-2.5c0.8-0.7,1.8-1.2,2.9-1.5c1.1-0.3,2.3-0.5,3.6-0.5c1.7,0,3,0,4,0.1v-1.3c0-2.4-1.2-3.6-3.5-3.6
				c-1.6,0-4,0.5-7.2,1.6c-0.9-1-1.4-2.4-1.6-4.4c3.3-1.4,6.8-2.1,10.3-2.1c2.4,0,4.3,0.7,5.8,2c1.5,1.3,2.3,3.3,2.3,6v9.7
				C370.7,289.5,371.2,290.7,372,291.3z M360.2,290.1c1.6,0,3-0.7,4.4-2.1V284c-0.5,0-1-0.1-1.5-0.1c-0.5,0-0.9,0-1.4,0
				c-1.4,0-2.4,0.3-3.2,0.8c-0.7,0.5-1.1,1.4-1.1,2.6c0,0.9,0.2,1.7,0.7,2.2C358.7,289.9,359.4,290.1,360.2,290.1z"/>
			<path class="st3" d="M375,292.5c0-0.7,0.2-1.5,0.6-2.3c0.4-0.8,0.8-1.5,1.2-2c2.5,1.3,4.7,2,6.5,2c1,0,1.9-0.2,2.5-0.6
				c0.6-0.4,1-1,1-1.6c0-1.1-0.8-2-2.5-2.6l-2.6-1c-4-1.4-5.9-3.7-5.9-6.9c0-1.1,0.2-2.1,0.6-3c0.4-0.9,1-1.7,1.8-2.3
				c0.8-0.6,1.7-1.1,2.8-1.5c1.1-0.3,2.3-0.5,3.6-0.5c0.6,0,1.3,0,2,0.1c0.7,0.1,1.5,0.2,2.2,0.4c0.8,0.2,1.5,0.4,2.2,0.6
				c0.7,0.2,1.3,0.5,1.8,0.7c0,0.8-0.2,1.6-0.5,2.4c-0.3,0.8-0.7,1.5-1.3,1.9c-2.5-1.1-4.6-1.6-6.4-1.6c-0.8,0-1.5,0.2-1.9,0.6
				c-0.5,0.4-0.7,0.9-0.7,1.5c0,1,0.8,1.7,2.4,2.3l2.9,1c2.1,0.7,3.6,1.7,4.6,3c1,1.3,1.5,2.7,1.5,4.4c0,2.2-0.8,4-2.5,5.3
				c-1.7,1.3-4,2-7.2,2C380.5,294.8,377.6,294,375,292.5z"/>
		</g>
		<g>
			<path class="st3" d="M140.3,393.7l1.3,0h4.9c0,0.3,0.1,0.5,0.1,0.8c0,0.2,0,0.5-0.1,0.8h-4.9c-0.6,0-1,0-1.3,0v7.5
				c-0.2,0-0.5,0.1-0.9,0.1c-0.4,0-0.7,0-0.9-0.1v-16.1l0.1-0.1h9c0.1,0.2,0.1,0.5,0.1,0.8c0,0.6-0.4,0.8-1.1,0.8h-3.8
				c-1.3,0-2.1,0-2.6,0l0,3.3L140.3,393.7L140.3,393.7z"/>
			<path class="st3" d="M157.2,401.8c-0.8,0.8-1.9,1.3-3.3,1.3c-0.8,0-1.5-0.2-2.1-0.5c-0.6-0.3-1.1-0.7-1.6-1.3
				c-0.4-0.5-0.7-1.2-1-1.9c-0.2-0.8-0.3-1.6-0.3-2.5c0-0.9,0.1-1.7,0.3-2.5c0.2-0.8,0.5-1.4,1-1.9c0.4-0.5,0.9-1,1.6-1.3
				c0.6-0.3,1.3-0.5,2.1-0.5c0.8,0,1.5,0.2,2.1,0.5c0.6,0.3,1.1,0.7,1.6,1.3c0.4,0.5,0.7,1.2,1,1.9c0.2,0.8,0.3,1.6,0.3,2.5
				C158.9,399,158.3,400.7,157.2,401.8z M153.9,401.7c1,0,1.8-0.4,2.3-1.3c0.5-0.9,0.8-2,0.8-3.4c0-0.6-0.1-1.2-0.2-1.8
				c-0.1-0.6-0.3-1.1-0.6-1.5c-0.3-0.4-0.6-0.8-1-1c-0.4-0.3-0.9-0.4-1.4-0.4c-0.5,0-1,0.1-1.4,0.4c-0.4,0.2-0.7,0.6-1,1
				c-0.3,0.4-0.4,0.9-0.6,1.5c-0.1,0.6-0.2,1.2-0.2,1.9c0,0.7,0.1,1.3,0.2,1.9c0.1,0.6,0.3,1.1,0.6,1.5c0.2,0.4,0.6,0.8,1,1
				C152.9,401.5,153.4,401.7,153.9,401.7z"/>
			<path class="st3" d="M161,400.9l4.5-6.2l1.9-2.3l-0.1-0.1c-0.3,0-0.8,0.1-1.3,0.1c-0.5,0-1.2,0-2,0h-2.9c0-0.2,0-0.3,0-0.5
				c0-0.1,0-0.3,0-0.5c0-0.2,0-0.3,0.1-0.5h7.8c0.2,0.5,0.3,0.8,0.3,1.1c0,0.2-0.1,0.5-0.3,0.7l-4.4,6c-0.2,0.3-0.4,0.6-0.7,1
				c-0.3,0.4-0.7,0.9-1.1,1.4l0.1,0.1c0.8,0,1.6-0.1,2.4-0.1h1.3c1.3,0,2.3-0.1,2.8-0.3c0.1,0.3,0.1,0.5,0.1,0.8
				c0,0.6-0.4,0.9-1.3,0.9h-7.1c-0.1-0.3-0.2-0.5-0.2-0.7c0-0.2-0.1-0.3-0.1-0.5c0-0.1,0-0.2,0.1-0.3
				C160.8,401.2,160.8,401.1,161,400.9z"/>
			<path class="st3" d="M181.2,390.9c1,0,1.9,0.3,3,1v-6.5l0.1-0.1h0.6c0.4,0,0.6,0.1,0.7,0.3c0.1,0.2,0.2,0.5,0.2,0.9v13
				c0,1.3,0.2,2.1,0.7,2.6c-0.2,0.4-0.4,0.7-0.8,0.9c-0.7-0.3-1.2-0.8-1.5-1.6c-1,1.1-2.1,1.7-3.5,1.7c-1.4,0-2.4-0.5-3.1-1.6
				c-0.7-1.1-1-2.6-1-4.5c0-1,0.1-1.8,0.4-2.6c0.3-0.8,0.6-1.4,1-1.9c0.4-0.5,0.9-0.9,1.4-1.2C180.1,391,180.6,390.9,181.2,390.9z
				 M181.1,401.5c0.5,0,1.1-0.2,1.6-0.5c0.6-0.3,1-0.8,1.4-1.4v-6.3c-1-0.7-2-1.1-2.8-1.1c-0.8,0-1.5,0.4-2,1.2
				c-0.6,0.8-0.8,1.9-0.8,3.5c0,1.6,0.2,2.7,0.7,3.4C179.7,401.2,180.3,401.5,181.1,401.5z"/>
			<path class="st3" d="M197.5,401.8c-0.8,0.8-1.9,1.3-3.3,1.3c-0.8,0-1.5-0.2-2.1-0.5c-0.6-0.3-1.1-0.7-1.6-1.3
				c-0.4-0.5-0.7-1.2-1-1.9c-0.2-0.8-0.3-1.6-0.3-2.5c0-0.9,0.1-1.7,0.3-2.5c0.2-0.8,0.5-1.4,1-1.9c0.4-0.5,0.9-1,1.6-1.3
				c0.6-0.3,1.3-0.5,2.1-0.5c0.8,0,1.5,0.2,2.1,0.5c0.6,0.3,1.1,0.7,1.6,1.3c0.4,0.5,0.7,1.2,1,1.9c0.2,0.8,0.3,1.6,0.3,2.5
				C199.2,399,198.6,400.7,197.5,401.8z M194.2,401.7c1,0,1.8-0.4,2.3-1.3c0.5-0.9,0.8-2,0.8-3.4c0-0.6-0.1-1.2-0.2-1.8
				c-0.1-0.6-0.3-1.1-0.6-1.5c-0.3-0.4-0.6-0.8-1-1c-0.4-0.3-0.9-0.4-1.4-0.4c-0.5,0-1,0.1-1.4,0.4c-0.4,0.2-0.7,0.6-1,1
				c-0.3,0.4-0.4,0.9-0.6,1.5c-0.1,0.6-0.2,1.2-0.2,1.9c0,0.7,0.1,1.3,0.2,1.9c0.1,0.6,0.3,1.1,0.6,1.5c0.2,0.4,0.6,0.8,1,1
				C193.2,401.5,193.7,401.7,194.2,401.7z"/>
			<path class="st3" d="M208.1,402.8v-16.3c0.2,0,0.5-0.1,0.9-0.1c0.4,0,0.7,0,0.9,0.1v16.3c-0.3,0-0.6,0.1-0.9,0.1
				C208.6,402.8,208.3,402.8,208.1,402.8z"/>
			<path class="st3" d="M221.4,392c0.2-0.6,0.6-0.9,1.3-1.2c0.4,0.2,0.6,0.5,0.8,0.9c-0.4,0.4-0.7,1.3-0.7,2.6v7.5
				c0,1.1-0.1,2.1-0.3,2.8c-0.2,0.8-0.5,1.4-0.9,1.9c-0.4,0.5-0.9,0.9-1.4,1.1c-0.6,0.2-1.2,0.3-2,0.3c-1.5,0-2.9-0.3-4.1-0.8
				c0-0.6,0.2-1,0.5-1.4c1.1,0.5,2.2,0.8,3.3,0.8c0.6,0,1.2-0.1,1.6-0.3c0.4-0.2,0.7-0.4,1-0.8c0.2-0.3,0.4-0.7,0.5-1.2
				c0.1-0.5,0.1-1,0.1-1.6v-1.4c-1,1-2.2,1.6-3.5,1.6c-1.3,0-2.3-0.5-3-1.6c-0.7-1.1-1.1-2.6-1.1-4.5c0-1,0.1-1.8,0.4-2.6
				c0.2-0.8,0.6-1.4,1-1.9c0.4-0.5,0.9-0.9,1.4-1.2c0.5-0.3,1.1-0.4,1.7-0.4C219.3,390.8,220.4,391.2,221.4,392z M221.1,399.7v-6.2
				c-0.5-0.4-0.9-0.7-1.4-0.9c-0.5-0.2-0.9-0.3-1.4-0.3c-0.9,0-1.6,0.4-2.1,1.2c-0.5,0.8-0.8,1.9-0.8,3.5c0,1.5,0.2,2.7,0.7,3.4
				c0.5,0.7,1,1.1,1.7,1.1c0.7,0,1.3-0.2,1.9-0.5C220.2,400.6,220.7,400.2,221.1,399.7z"/>
			<path class="st3" d="M226.9,399.2v-5.9c0-0.8-0.1-1.5-0.3-2c0.3-0.3,0.6-0.4,1.1-0.4c0.6,0,0.9,0.4,0.9,1.2v6.6
				c0,1,0.1,1.7,0.4,2.1c0.3,0.4,0.7,0.6,1.3,0.6c0.6,0,1.3-0.2,2-0.5c0.7-0.3,1.3-0.8,1.7-1.3v-8.5c0.1,0,0.2-0.1,0.4-0.1
				c0.2,0,0.3,0,0.5,0s0.3,0,0.5,0c0.2,0,0.3,0,0.4,0.1v8.4c0,1.3,0.2,2.1,0.7,2.6c-0.1,0.4-0.4,0.7-0.8,0.9
				c-0.8-0.3-1.3-0.8-1.5-1.8c-0.5,0.5-1.2,1-1.9,1.3c-0.8,0.3-1.5,0.5-2.3,0.5c-1.1,0-1.8-0.3-2.3-1
				C227.1,401.3,226.9,400.4,226.9,399.2z"/>
			<path class="st3" d="M248.6,402c-0.2,0.4-0.4,0.7-0.8,0.9c-0.8-0.3-1.3-0.8-1.5-1.7c-1.2,1.2-2.4,1.8-3.6,1.8
				c-0.6,0-1.1-0.1-1.6-0.3c-0.4-0.2-0.8-0.4-1.1-0.8c-0.3-0.3-0.5-0.7-0.7-1.1c-0.2-0.4-0.2-0.9-0.2-1.3c0-0.6,0.1-1.2,0.3-1.7
				c0.2-0.5,0.5-0.9,0.9-1.2c0.4-0.3,0.8-0.6,1.3-0.7c0.5-0.2,1.1-0.2,1.6-0.2c1.2,0,2.2,0.1,2.9,0.2v-1.2c0-1.6-0.7-2.4-2.1-2.4
				c-1.1,0-2.4,0.3-3.9,1c-0.4-0.4-0.6-0.8-0.6-1.4c1.7-0.7,3.3-1.1,4.7-1.1c2.5,0,3.7,1.3,3.7,4v4.9c0,0.6,0,1,0.2,1.4
				C248.2,401.5,248.4,401.8,248.6,402z M246.2,399.6v-2.4c-0.4-0.1-0.8-0.1-1.2-0.1c-0.4,0-0.8,0-1.3,0c-0.9,0-1.6,0.2-2.1,0.6
				c-0.5,0.4-0.7,1-0.7,1.7c0,0.7,0.2,1.2,0.5,1.6c0.3,0.4,0.8,0.6,1.4,0.6c0.6,0,1.2-0.2,1.8-0.5
				C245.2,400.7,245.7,400.3,246.2,399.6z"/>
			<path class="st3" d="M254.3,404.5c0.1-0.5,0.3-1,0.5-1.5c-0.7-0.1-1.3-0.3-1.8-0.6c-0.5-0.3-0.9-0.8-1.2-1.3
				c-0.3-0.5-0.6-1.2-0.7-1.8c-0.2-0.7-0.2-1.4-0.2-2.2c0-1,0.1-1.9,0.4-2.7c0.2-0.8,0.6-1.4,1-2c0.4-0.5,0.9-0.9,1.5-1.2
				c0.6-0.3,1.2-0.4,1.9-0.4c0.7,0,1.3,0.1,1.8,0.3c0.5,0.2,0.9,0.5,1.3,0.8c0.3,0.3,0.6,0.7,0.8,1.1c0.2,0.4,0.3,0.8,0.3,1.1
				c0,0.8-0.3,1.1-0.9,1.1c-0.2,0-0.5,0-0.8-0.1v-0.3c0-0.3,0-0.7-0.1-1c-0.1-0.3-0.2-0.6-0.4-0.9c-0.2-0.3-0.5-0.5-0.8-0.6
				c-0.3-0.2-0.7-0.2-1.1-0.2c-0.9,0-1.6,0.4-2.2,1.2c-0.5,0.8-0.8,2-0.8,3.5c0,1.5,0.3,2.7,0.8,3.4c0.5,0.8,1.2,1.1,2.1,1.1
				c0.9,0,2-0.4,3.2-1.3c0.4,0.3,0.7,0.6,0.8,1.1c-1,0.9-2.1,1.5-3.4,1.7c-0.1,0.1-0.1,0.2-0.2,0.3s-0.1,0.2-0.1,0.4
				c0.6,0,1.1,0.3,1.5,0.6c0.4,0.4,0.6,0.9,0.6,1.5c0,0.6-0.3,1.2-0.8,1.6c-0.5,0.4-1.1,0.6-1.8,0.6c-0.7,0-1.3-0.2-1.8-0.5
				c0-0.4,0.2-0.7,0.5-1c0.3,0.2,0.8,0.3,1.2,0.3c0.8,0,1.2-0.3,1.2-1c0-0.7-0.4-1-1.1-1c-0.2,0-0.4,0-0.6,0.1
				C254.5,404.8,254.4,404.7,254.3,404.5z"/>
			<path class="st3" d="M262.7,399.2v-5.9c0-0.8-0.1-1.5-0.3-2c0.3-0.3,0.6-0.4,1.1-0.4c0.6,0,0.9,0.4,0.9,1.2v6.6
				c0,1,0.1,1.7,0.4,2.1c0.3,0.4,0.7,0.6,1.3,0.6c0.6,0,1.3-0.2,2-0.5c0.7-0.3,1.3-0.8,1.7-1.3v-8.5c0.1,0,0.2-0.1,0.4-0.1
				c0.2,0,0.3,0,0.5,0s0.3,0,0.5,0c0.2,0,0.3,0,0.4,0.1v8.4c0,1.3,0.2,2.1,0.7,2.6c-0.1,0.4-0.4,0.7-0.8,0.9
				c-0.8-0.3-1.3-0.8-1.5-1.8c-0.5,0.5-1.2,1-1.9,1.3c-0.8,0.3-1.5,0.5-2.3,0.5c-1.1,0-1.8-0.3-2.3-1
				C262.9,401.3,262.7,400.4,262.7,399.2z"/>
			<path class="st3" d="M286.9,388l-1.3,0v14.7c-0.3,0-0.6,0.1-0.9,0.1c-0.3,0-0.6,0-0.9-0.1V388l-1.3,0h-3.1c0-0.3-0.1-0.5-0.1-0.8
				c0-0.2,0-0.5,0.1-0.8H290c0.1,0.2,0.1,0.5,0.1,0.8c0,0.5-0.4,0.8-1.1,0.8L286.9,388L286.9,388z"/>
			<path class="st3" d="M290.8,391.9c0.1-0.4,0.4-0.7,0.8-1c0.9,0.3,1.5,1,1.7,2.1c0.7-1.4,1.7-2.1,3.2-2.1c0.3,0,0.7,0,1.1,0.1
				c0,0.7-0.1,1.2-0.4,1.7c-0.2,0-0.5,0-0.8,0c-1.3,0-2.3,0.7-2.9,2.2v7.9c-0.2,0-0.5,0.1-0.9,0.1c-0.3,0-0.6,0-0.9-0.1v-8.4
				C291.6,393.2,291.3,392.4,290.8,391.9z"/>
			<path class="st3" d="M308.3,402c-0.2,0.4-0.4,0.7-0.8,0.9c-0.8-0.3-1.3-0.8-1.5-1.7c-1.2,1.2-2.4,1.8-3.6,1.8
				c-0.6,0-1.1-0.1-1.6-0.3c-0.4-0.2-0.8-0.4-1.1-0.8c-0.3-0.3-0.5-0.7-0.7-1.1c-0.2-0.4-0.2-0.9-0.2-1.3c0-0.6,0.1-1.2,0.3-1.7
				c0.2-0.5,0.5-0.9,0.9-1.2c0.4-0.3,0.8-0.6,1.3-0.7c0.5-0.2,1.1-0.2,1.6-0.2c1.2,0,2.2,0.1,2.9,0.2v-1.2c0-1.6-0.7-2.4-2.1-2.4
				c-1.1,0-2.4,0.3-3.9,1c-0.4-0.4-0.6-0.8-0.6-1.4c1.7-0.7,3.3-1.1,4.7-1.1c2.5,0,3.7,1.3,3.7,4v4.9c0,0.6,0,1,0.2,1.4
				C307.9,401.5,308,401.8,308.3,402z M305.9,399.6v-2.4c-0.4-0.1-0.8-0.1-1.2-0.1c-0.4,0-0.8,0-1.3,0c-0.9,0-1.6,0.2-2.1,0.6
				c-0.5,0.4-0.7,1-0.7,1.7c0,0.7,0.2,1.2,0.5,1.6c0.3,0.4,0.8,0.6,1.4,0.6c0.6,0,1.2-0.2,1.8-0.5
				C304.9,400.7,305.4,400.3,305.9,399.6z"/>
			<path class="st3" d="M314.7,401.2l3.2-10.2c0.3-0.1,0.5-0.1,0.7-0.1c0.2,0,0.5,0,0.9,0.1l0,0.1c-1.5,4.5-2.8,8.4-3.9,11.6
				c-0.3,0.1-0.7,0.1-1.1,0.1s-0.8-0.1-0.9-0.2c-0.2-0.1-0.3-0.4-0.5-0.9l-3.6-10.5c0.4-0.2,0.8-0.3,1.1-0.3c0.5,0,0.8,0.2,0.9,0.7
				l1.9,5.7c0.5,1.5,0.9,2.8,1.1,3.8C314.5,401.2,314.6,401.2,314.7,401.2z"/>
			<path class="st3" d="M329.9,397.4h-7.4c0.1,2.7,1.1,4.1,3.1,4.1c1.1,0,2.2-0.3,3.5-1c0.3,0.3,0.6,0.7,0.6,1.2
				c-1.3,0.9-2.8,1.3-4.4,1.3c-0.8,0-1.5-0.2-2.1-0.5c-0.6-0.3-1.1-0.7-1.4-1.3c-0.4-0.5-0.6-1.2-0.8-1.9c-0.2-0.7-0.3-1.6-0.3-2.5
				c0-0.9,0.1-1.7,0.3-2.5c0.2-0.7,0.5-1.4,0.9-1.9c0.4-0.5,0.9-1,1.5-1.3c0.6-0.3,1.2-0.5,2-0.5c0.7,0,1.4,0.1,2,0.4
				c0.6,0.3,1.1,0.6,1.5,1.1c0.4,0.5,0.7,1,0.9,1.6c0.2,0.6,0.3,1.3,0.3,2c0,0.3,0,0.6,0,0.8C329.9,396.9,329.9,397.2,329.9,397.4z
				 M322.5,396.1h5.7v-0.3c0-1.1-0.2-2-0.7-2.6c-0.5-0.7-1.1-1-2.1-1c-0.9,0-1.6,0.4-2.1,1.1C322.8,393.9,322.5,394.9,322.5,396.1z"
				/>
			<path class="st3" d="M336.1,401.4h1c0.1,0.1,0.1,0.3,0.1,0.5c0,0.2,0,0.3,0,0.5c0,0.1,0,0.2,0,0.2c0,0.1,0,0.1,0,0.1
				c-0.3,0-0.5,0.1-0.7,0.1c-0.2,0-0.5,0-0.7,0c-0.7,0-1.2-0.1-1.6-0.4c-0.4-0.3-0.7-0.8-0.7-1.6v-15.5l0.1-0.1h0.6
				c0.4,0,0.6,0.1,0.8,0.3c0.1,0.2,0.2,0.5,0.2,0.9v13.9C335.2,401,335.5,401.4,336.1,401.4z"/>
			<path class="st3" d="M345.4,402.7l1.3-16.3c0.3,0,0.7-0.1,1.2-0.1c0.5,0,0.9,0,1.2,0.1l2.7,8.4c0.1,0.4,0.3,1,0.6,1.9
				c0.2,0.9,0.4,1.4,0.4,1.6h0.1c0.2-1.1,0.5-2.3,1-3.5l2.7-8.4c0.3,0,0.7-0.1,1.2-0.1c0.5,0,0.9,0,1.2,0.1l1.3,16.3
				c-0.3,0.1-0.6,0.1-0.9,0.1c-0.3,0-0.6,0-0.9-0.1l-0.7-9.9c0-0.7-0.1-2.2-0.2-4.5h-0.1l-3.8,11.8c-0.4,0.1-0.7,0.1-1,0.1
				c-0.3,0-0.5,0-0.9-0.1l-3.8-11.8H348c0,0.4,0,1.1-0.1,2.3c0,1.1-0.1,1.9-0.1,2.3l-0.7,9.9c-0.3,0-0.6,0.1-0.9,0.1
				S345.7,402.8,345.4,402.7z"/>
			<path class="st3" d="M373,402c-0.2,0.4-0.4,0.7-0.8,0.9c-0.8-0.3-1.3-0.8-1.5-1.7c-1.2,1.2-2.4,1.8-3.6,1.8
				c-0.6,0-1.1-0.1-1.6-0.3c-0.4-0.2-0.8-0.4-1.1-0.8c-0.3-0.3-0.5-0.7-0.7-1.1c-0.2-0.4-0.2-0.9-0.2-1.3c0-0.6,0.1-1.2,0.3-1.7
				c0.2-0.5,0.5-0.9,0.9-1.2c0.4-0.3,0.8-0.6,1.3-0.7c0.5-0.2,1.1-0.2,1.6-0.2c1.2,0,2.2,0.1,2.9,0.2v-1.2c0-1.6-0.7-2.4-2.1-2.4
				c-1.1,0-2.4,0.3-3.9,1c-0.4-0.4-0.6-0.8-0.6-1.4c1.7-0.7,3.3-1.1,4.7-1.1c2.5,0,3.7,1.3,3.7,4v4.9c0,0.6,0,1,0.2,1.4
				C372.6,401.5,372.7,401.8,373,402z M370.6,399.6v-2.4c-0.4-0.1-0.8-0.1-1.2-0.1c-0.4,0-0.8,0-1.3,0c-0.9,0-1.6,0.2-2.1,0.6
				c-0.5,0.4-0.7,1-0.7,1.7c0,0.7,0.2,1.2,0.5,1.6c0.3,0.4,0.8,0.6,1.4,0.6c0.6,0,1.2-0.2,1.8-0.5
				C369.6,400.7,370.1,400.3,370.6,399.6z"/>
			<path class="st3" d="M375.8,391.9c0.1-0.4,0.4-0.7,0.8-1c0.9,0.3,1.5,1,1.7,2.1c0.7-1.4,1.7-2.1,3.2-2.1c0.3,0,0.7,0,1.1,0.1
				c0,0.7-0.1,1.2-0.4,1.7c-0.2,0-0.5,0-0.8,0c-1.3,0-2.3,0.7-2.9,2.2v7.9c-0.2,0-0.5,0.1-0.9,0.1c-0.3,0-0.6,0-0.9-0.1v-8.4
				C376.6,393.2,376.3,392.4,375.8,391.9z"/>
			<path class="st3" d="M391.8,398.5l0.9,2.1c0.4,0.9,0.8,1.5,1.1,1.8c-0.3,0.3-0.6,0.5-1.1,0.5c-0.4,0-0.8-0.1-0.9-0.3
				c-0.2-0.2-0.4-0.5-0.6-1l-1.1-2.5c-0.3-0.7-0.6-1.2-0.9-1.4c-0.3-0.2-0.7-0.4-1.3-0.4c-0.5,0-1,0-1.5,0.1v5.2
				c-0.2,0-0.5,0.1-0.9,0.1s-0.6,0-0.9-0.1v-17.4l0.1-0.1h0.6c0.4,0,0.6,0.1,0.8,0.3c0.1,0.2,0.2,0.5,0.2,0.9v9.6l1,0
				c0.2,0,0.4-0.1,0.5-0.3l2.6-3.8c0.2-0.3,0.4-0.5,0.6-0.7s0.4-0.2,0.6-0.2c0.2,0,0.6,0,1,0l0.1,0.2l-3,4.4
				c-0.2,0.3-0.4,0.5-0.6,0.7c0.5,0.1,1,0.3,1.4,0.7C391.2,397.3,391.5,397.8,391.8,398.5z"/>
			<path class="st3" d="M404.4,397.4H397c0.1,2.7,1.1,4.1,3.1,4.1c1.1,0,2.2-0.3,3.5-1c0.3,0.3,0.6,0.7,0.6,1.2
				c-1.3,0.9-2.8,1.3-4.4,1.3c-0.8,0-1.5-0.2-2.1-0.5c-0.6-0.3-1.1-0.7-1.4-1.3c-0.4-0.5-0.6-1.2-0.8-1.9c-0.2-0.7-0.3-1.6-0.3-2.5
				c0-0.9,0.1-1.7,0.3-2.5c0.2-0.7,0.5-1.4,0.9-1.9c0.4-0.5,0.9-1,1.5-1.3c0.6-0.3,1.2-0.5,2-0.5c0.7,0,1.4,0.1,2,0.4
				c0.6,0.3,1.1,0.6,1.5,1.1c0.4,0.5,0.7,1,0.9,1.6c0.2,0.6,0.3,1.3,0.3,2c0,0.3,0,0.6,0,0.8C404.4,396.9,404.4,397.2,404.4,397.4z
				 M397,396.1h5.7v-0.3c0-1.1-0.2-2-0.7-2.6c-0.5-0.7-1.1-1-2.1-1c-0.9,0-1.6,0.4-2.1,1.1C397.3,393.9,397,394.9,397,396.1z"/>
			<path class="st3" d="M413.2,391c0,0.2,0.1,0.5,0.1,0.7c0,0.2,0,0.4-0.1,0.7l-3,0v8c0,0.7,0.3,1,0.9,1h1.8
				c0.1,0.3,0.2,0.5,0.2,0.8c0,0.3,0,0.4,0,0.5c-0.7,0.1-1.5,0.1-2.3,0.1c-1.5,0-2.3-0.7-2.3-2v-8.5l-1.7,0c0-0.2-0.1-0.5-0.1-0.7
				c0-0.2,0-0.4,0.1-0.7l1.7,0v-2.5c0-0.4,0.1-0.7,0.2-0.9c0.1-0.2,0.4-0.3,0.7-0.3h0.6l0.1,0.1v3.6L413.2,391z"/>
		</g>
		<g>
			<path class="st3" d="M123.4,348.1l3.4,4.9c-4.5,3.5-9.5,5.6-15.3,5.6c-14.7,0-25.7-10.5-25.7-23.6c0-13.1,11.1-23.7,25.7-23.7
				c3.8,0,7.2,0.9,10.4,2.5c2.8,1.4,3.7,4.9,1.9,7.5l-3,4.3c-2.8-2.1-5.9-3.2-9.2-3.2c-7.8,0-13.6,5.5-13.6,12.5
				c0,7,5.9,12.5,13.6,12.5c2,0,3.9-0.4,5.7-1.2C119.4,345.4,122,346.1,123.4,348.1z"/>
			<path class="st3" d="M160.8,349.6h-20.3l-3.1,8h-2.9c-3.7,0-6.2-3.7-4.9-7.1l14.4-38.2h9.6c2.2,0,4.2,1.4,5,3.4l15.8,41.8h-7
				c-2.1,0-4-1.3-4.8-3.3L160.8,349.6z M156.9,339.1l-6.2-16.3l-6.2,16.3H156.9z"/>
			<path class="st3" d="M240.9,349.6h-20.3l-3.1,8h-2.9c-3.7,0-6.2-3.7-4.9-7.1l14.4-38.2h9.6c2.2,0,4.2,1.4,5,3.4l15.8,41.8h-7
				c-2.1,0-4-1.3-4.8-3.3L240.9,349.6z M236.9,339.1l-6.2-16.3l-6.2,16.3H236.9z"/>
			<path class="st3" d="M332,349.6h-20.3l-3.1,8h-2.9c-3.7,0-6.2-3.7-4.9-7.1l14.4-38.2h9.6c2.2,0,4.2,1.4,5,3.4l15.8,41.8h-7
				c-2.1,0-4-1.3-4.8-3.3L332,349.6z M328,339.1l-6.2-16.3l-6.2,16.3H328z"/>
			<path class="st3" d="M412,349.6h-20.3l-3.1,8h-2.9c-3.7,0-6.2-3.7-4.9-7.1l14.4-38.2h9.6c2.2,0,4.2,1.4,5,3.4l15.8,41.8h-7
				c-2.1,0-4-1.3-4.8-3.3L412,349.6z M408,339.1l-6.2-16.3l-6.2,16.3H408z"/>
			<path class="st3" d="M210.1,322.9h-13.2v34.8h-7.3c-2.8,0-5.1-2.3-5.1-5.1v-29.7h-8.1c-2.8,0-5.2-2.3-5.2-5.2v-5.3h33.6
				c2.9,0,5.3,2.4,5.3,5.3L210.1,322.9L210.1,322.9z"/>
			<path class="st3" d="M274.7,343.1h-4.5v14.5h-7.4c-2.8,0-5-2.2-5-5v-40.2h18.5c10.9,0,17.7,6.7,17.7,15.3
				c0,5.4-2.6,10.1-7.3,12.8l9.9,17.1h-10.5c-1.9,0-3.6-1-4.6-2.6L274.7,343.1z M270.1,332.6h5.8c5.3,0,7-2,7-4.9
				c0-2.8-1.7-4.8-7-4.8h-5.8V332.6z"/>
			<path class="st3" d="M381.2,322.9H368v34.8h-7c-2.9,0-5.3-2.4-5.3-5.3v-29.4h-8.1c-2.9,0-5.2-2.3-5.2-5.2v-5.3h33.8
				c2.8,0,5,2.3,5,5V322.9z"/>
			<path class="st3" d="M464.2,345.4c-1,12.8-13.8,14-21.3,13.2c-4.6-0.5-9-2-12.6-3.7c-2.6-1.3-3.6-4.6-2-7.1l3.1-5.1
				c5.1,5.8,18.4,7.8,19.5,2.8c1.7-8.1-24-3.8-21.8-21.8c0.8-6.7,5.8-13.1,19.6-12.3c3.9,0.2,6.9,1,9.2,1.8c2.8,1,4.1,4.3,2.9,7.1
				l-2.4,5.2c-4.1-3.9-15.7-6.2-16.8-0.9C440,331.5,465.4,329.1,464.2,345.4z"/>
		</g>
	</g>
</g>
</svg>
