<?xml version="1.0" encoding="utf-8"?>
<!-- Generator: Adobe Illustrator 24.0.1, SVG Export Plug-In . SVG Version: 6.00 Build 0)  -->
<svg version="1.1" id="Camada_1" xmlns="http://www.w3.org/2000/svg" xmlns:xlink="http://www.w3.org/1999/xlink" x="0px" y="0px"
	 viewBox="0 0 550 550" style="enable-background:new 0 0 550 550;" xml:space="preserve">
<style type="text/css">
	.st0{fill:#FDFDFD;}
	.st1{fill:#848688;}
	.st2{fill:#C5C6C6;}
	.st3{fill:#C1C2C3;}
	.st4{fill:#04C0F2;}
	.st5{fill:#EE4B37;}
	.st6{fill:#00A958;}
	.st7{fill:#FDC22B;}
	.st8{fill:#0086CA;}
	.st9{fill:#838587;}
	.st10{fill:#BCBEC0;}
	.st11{fill:#858789;}
	.st12{fill:#C5C6C8;}
	.st13{fill:#BD9591;}
	.st14{fill:#868889;}
	.st15{fill:#86888A;}
	.st16{fill:#C0C1C3;}
	.st17{fill:#DADBDB;}
	.st18{fill:#E3E4E4;}
	.st19{fill:#C7C7C8;}
	.st20{fill:#C8C9CA;}
	.st21{fill:#B2B3B4;}
	.st22{fill:#B6B8B9;}
	.st23{fill:#FEFEFE;}
</style>
<g>
	<path class="st0" d="M181.2,360.7c0-100.8,0-201.6,0-302.4c0-0.7,0.2-0.9,0.9-0.9c68.3,0,136.7,0,205,0c0.7,0,0.9,0.2,0.9,0.9
		c0,124,0,248,0,372c0,0.7-0.2,0.9-0.9,0.9c-59.8,0-119.5,0-179.3,0c0.1-0.5,0.5-0.5,0.9-0.6c2.2-0.8,3-2,3-4.3c0-3.7,0-7.4,0-11.1
		c0-1.3-0.1-1.3-1.3-1.4c-1.3-0.2-2.6-0.2-3.9,0.1c-1.5,0.4-2.6,1.3-3.2,2.7c-0.9,2-1,4.1-0.2,6.2c1,2.5,4.2,3.1,6.2,1.2
		c0.4-0.3,0.6-1.1,1.2-0.9c0.6,0.2,0.3,1,0.3,1.6c0,0.9-0.1,1.7-0.2,2.6c-0.3,1.3-1.1,2.1-2.4,2.5c-1.2,0.3-2.4,0.2-3.5,0
		c-0.4-0.1-0.9-0.5-1.1,0.1c-0.2,0.5,0.2,0.7,0.6,1c0.1,0.1,0.2,0.2,0.1,0.3c-7.4,0-14.7,0-22.1,0c-0.6,0-0.8-0.1-0.8-0.7
		c0-5.3,0-10.5,0-15.8c0.1-0.1,0.2-0.1,0.3-0.2c0.3-0.1,0.6-0.1,0.9,0c1.1,0.2,1.3,0.4,1.3,1.5c0,2.5,0,5,0,7.4c0,0.3,0,0.6,0,0.9
		c0,0.3,0.1,0.5,0.5,0.5c0.3,0,0.5-0.2,0.5-0.5c0-0.3,0-0.6,0-0.9c-0.1-1.6,0.1-3.2,0.2-4.9c0.1-0.7,0.2-1.3,0.5-1.9
		c0.5-1,1.2-1.8,2.4-1.9c0.5,0,1-0.2,0.8-0.8c-0.2-0.6-0.7-0.3-1.1-0.2c-0.6,0.1-1.1,0.5-1.5,0.9c-0.3,0.3-0.5,0.7-0.8,1
		c-0.2,0.1-0.3,0-0.4-0.2c0-0.1-0.1-0.1-0.1-0.2c-0.2-1.6-0.2-1.6-1.9-1.5c-0.5,0-0.9,0.2-1.4,0.1c-0.1,0-0.2-0.1-0.3-0.2
		c0-17.4,0-34.7,0-52.1c0.1-0.1,0.2-0.1,0.3-0.2c1.7-0.2,2.2,0.2,2.2,1.9c0,2.2,0,4.5,0,6.7c0,0.3,0,0.5,0,0.8c0,0.3,0,0.7,0.5,0.7
		c0.5,0,0.5-0.4,0.5-0.7c0-3.1,0-6.1,0-9.2c0-0.6-0.3-0.8-0.8-0.8c-0.8,0-1.5,0-2.3,0C181.4,360.8,181.3,360.7,181.2,360.7z"/>
	<path class="st1" d="M204.1,431.2C204,431.2,204,431.1,204.1,431.2c-1.2-0.6-1.2-0.6-0.9-2.1c1.5,0.4,3,0.7,4.6,0.4
		c1.6-0.3,2.2-1.1,2.5-2.7c0.2-1.2,0.1-2.4,0.2-3.8c-0.4,0.5-0.7,0.9-1.1,1.3c-2.1,2-5.7,1.2-6.6-1.6c-0.6-1.9-0.6-3.8,0-5.6
		c0.9-2.6,3.1-3.8,6.3-3.7c0.3,0,0.6,0.1,0.9,0.1c2.1,0.2,2.1,0.2,2.1,2.3c0,3.4,0,6.8,0,10.1c0,3.1-1,4.3-4,5.1
		c-0.1,0-0.1,0.1-0.2,0.2C206.6,431.2,205.3,431.2,204.1,431.2z"/>
	<path class="st2" d="M181.2,360.7c0.1,0,0.1,0,0.2,0c0.3,0.3,0.3,0.6,0.1,1c-0.1,0-0.2,0-0.2,0.1
		C181.2,361.3,181.2,361,181.2,360.7z"/>
	<path class="st3" d="M181.2,413.7c0.1,0,0.1,0,0.2,0c0.2,0.3,0.3,0.6,0,1c-0.1,0-0.1,0-0.2,0C181.2,414.4,181.2,414.1,181.2,413.7z
		"/>
	<path class="st4" d="M371.2,151.9c0.2,3.2-0.1,6.4-0.4,9.6c-0.9,9.3-3.1,18.3-6.9,26.9c-13.1,29.6-35.5,48.2-67,55.7
		c-6.3,1.5-12.8,2.1-19.3,2.1c-0.2,0-0.4,0-0.6,0c-0.3-0.4-0.3-0.8-0.3-1.2c0-8.4,0-16.7,0-25.1c0-0.4,0-0.9,0.3-1.2
		c7.8,0,15.5-1.2,22.8-4.1c23.1-9.1,37.3-25.8,42.6-50.2c0.9-4.1,1.2-8.2,1.2-12.4c0-0.1,0-0.3,0.2-0.3c0.5-0.2,1-0.2,1.5-0.2
		c8.1,0,16.2,0,24.3,0C370.2,151.5,370.8,151.3,371.2,151.9z"/>
	<path class="st5" d="M210.4,246.2c-0.3,0-0.6,0-0.9,0c-8.6,0-17.1,0-25.7,0c-0.8,0-1-0.2-1-1c0.4-22.9,8-43.2,23-60.6
		c13.2-15.3,29.7-25.3,49.4-30.1c6.5-1.6,13.1-2.4,19.8-2.5c0.7,0,1.4-0.2,2,0.1c0.3,0.5,0.2,1,0.2,1.5c0,8.1,0,16.2,0,24.3
		c0,1.8,0,1.8-1.8,2c-2.6,0.2-5.3,0.3-7.9,0.7c-6.3,0.9-12.4,2.7-18.2,5.4c-6.1,2.8-11.7,6.5-16.7,11c-5.9,5.4-10.8,11.6-14.5,18.7
		c-3.4,6.5-5.6,13.4-6.8,20.7c-0.4,2.8-0.7,5.6-0.7,8.5C210.7,245.3,210.8,245.8,210.4,246.2z"/>
	<path class="st6" d="M371.2,151.9c-7.7,0-15.4,0-23,0c-1.5,0-3,0-4.5,0c-0.5-0.3-0.3-0.8-0.3-1.2c-0.2-12.2-3.6-23.5-10.1-33.9
		c-3.1-4.9-6.7-9.4-11-13.4c-8.2-7.6-17.8-13-28.7-15.7c-5.1-1.3-10.2-2-15.5-2.1c-0.4,0-0.7,0-1-0.3c0-0.3-0.1-0.6-0.1-0.9
		c0-8.6,0-17.1,0-25.7c0-0.8,0.2-1.1,1-1c27.5,0.7,50.6,11.1,69.1,31.4c11.7,12.9,19.1,28,22.5,45.1c1.1,5.6,1.6,11.2,1.7,16.9
		C371.3,151.3,371.3,151.6,371.2,151.9z"/>
	<path class="st7" d="M277.1,85.2c16.8,0.1,31.5,5.7,44.1,16.7c10.6,9.4,17.5,21,20.8,34.8c1.1,4.5,1.7,9.1,1.7,13.7
		c0,0.4,0,0.9,0.1,1.3c0,0.1,0,0.1-0.1,0.2c-6.3,0-12.5,0-18.8,0c-1,0-1.3-0.2-1.3-1.3c-0.3-21.4-16.3-40.4-37.3-44.5
		c-2.8-0.5-5.6-0.8-8.4-0.9c-0.4,0-0.8,0-0.8-0.6C277.1,98.2,277.1,91.7,277.1,85.2z"/>
	<path class="st8" d="M210.4,246.2c0-28.1,17.5-52.4,42.4-62.1c7.2-2.8,14.7-4.3,22.4-4.5c1.9-0.2,1.9-0.2,1.9,1.7
		c0,6.1,0,12.2,0,18.3c-1.4,0.1-2.8,0.2-4.1,0.3c-19.7,1.5-36.9,16.5-41.2,35.9c-0.7,3.2-1.1,6.4-1.2,9.6c0,0.5,0,0.8-0.6,0.8
		C223.4,246.2,216.9,246.2,210.4,246.2C210.5,246.2,210.4,246.2,210.4,246.2z"/>
	<path class="st9" d="M228.7,329.5c0,2.7,0,5.4,0,8c0,0.5,0,0.9-0.6,1.1c-6.6,2.4-13.2,3.2-20,1.1c-6.3-1.9-10.4-7.2-10.9-13.8
		c-0.4-4.2,0-8.3,1.9-12.1c2.8-5.6,7.5-8.6,13.4-9.9c5.1-1.1,10.2-0.5,15.2,0.7c0.7,0.2,0.9,0.5,0.8,1.2c-0.6,2.4-1,4.8-1.5,7.2
		c-0.1,0.7-0.3,1-1.2,0.7c-3.4-1.2-6.9-1.7-10.5-1.1c-4.5,0.8-7.1,3.8-7.4,8.4c-0.1,2.1,0,4.1,0.8,6c1.4,3.4,6.1,5.6,9.6,4.5
		c0.6-0.2,0.5-0.6,0.5-1c0-3,0-6.1,0-9.1c0-0.8,0.2-1.1,1-1c2.6,0.1,5.3,0,7.9,0c0.8,0,1,0.2,1,1
		C228.6,324.2,228.7,326.9,228.7,329.5z"/>
	<path class="st9" d="M243.7,316.5c0,3.4,0,6.8,0,10.1c0,0.8,0,1.6,0.2,2.4c0.5,2.3,1.5,3.3,3.8,3.6c1.2,0.2,2.4,0.2,3.6-0.2
		c1.7-0.4,2.5-1.7,2.8-3.3c0.2-1,0.2-2,0.2-3c0-7,0-14,0-21c0-1,0.3-1.2,1.2-1.2c2.6,0.1,5.2,0,7.7,0c0.7,0,1,0.1,1,0.9
		c0,7.2,0,14.3,0,21.5c0,3.3-0.7,6.5-2.7,9.3c-2.2,3-5.4,4.4-8.9,5c-3.4,0.5-6.7,0.5-10-0.4c-5.3-1.4-8.4-5.3-8.7-10.9
		c-0.3-6.3-0.1-12.6-0.1-19c0-1.9,0-3.8,0-5.7c0-0.6,0.2-0.8,0.8-0.8c2.8,0,5.6,0,8.4,0c0.8,0,0.8,0.4,0.8,1
		C243.7,308.8,243.7,312.6,243.7,316.5z"/>
	<path class="st9" d="M387.2,316.3c0,3.7,0.1,7.4,0,11.1c-0.1,4-1.3,7.6-4.5,10.2c-2,1.7-4.4,2.6-6.9,3c-3.6,0.6-7.1,0.6-10.6-0.4
		c-4.8-1.4-7.6-4.8-8.2-9.8c-0.1-1.3-0.2-2.5-0.2-3.8c0-7.2,0-14.4,0-21.7c0-0.7,0.1-1,1-1c2.7,0.1,5.4,0.1,8,0c0.8,0,1,0.3,1,1
		c0,7.1,0,14.2,0,21.3c0,0.8,0,1.6,0.2,2.4c0.4,2.4,1.5,3.5,3.8,3.9c0.9,0.1,1.9,0.1,2.8,0c2.4-0.4,3.6-1.7,3.8-4.2
		c0.1-1.1,0.1-2.1,0.1-3.2c0-6.7,0-13.4,0-20.2c0-0.8,0.2-1.1,1-1.1c2.6,0.1,5.2,0.1,7.7,0c0.9,0,1.1,0.3,1.1,1.1
		C387.2,308.9,387.2,312.6,387.2,316.3C387.2,316.3,387.2,316.3,387.2,316.3z"/>
	<path class="st9" d="M295.5,340.3c-1.5,0-2.9,0-4.4,0c-0.8,0-1.1-0.2-1.3-1c-0.4-1.4-0.9-2.8-1.3-4.3c-0.1-0.5-0.3-0.6-0.8-0.6
		c-3.3,0-6.6,0-9.9,0c-0.5,0-0.7,0.2-0.8,0.6c-0.4,1.5-0.9,2.9-1.3,4.4c-0.2,0.7-0.5,0.9-1.2,0.9c-2.7,0-5.4-0.1-8,0
		c-0.9,0-0.9-0.2-0.6-0.9c3.8-11.5,7.5-23,11.2-34.5c0.2-0.6,0.5-0.8,1.1-0.8c3.2,0,6.5,0,9.7,0c0.6,0,0.9,0.2,1.1,0.8
		c3.9,11.5,7.9,23.1,11.8,34.6c0.3,0.8,0,0.8-0.6,0.8C298.6,340.2,297,340.3,295.5,340.3z"/>
	<path class="st9" d="M343.8,303.4c1.9-0.1,3.7,0.2,5.5,0.4c0.7,0.1,1,0.4,0.9,1.2c-0.3,2.2-0.5,4.5-0.7,6.7c-0.1,0.7-0.2,1-1,0.7
		c-2.2-0.7-4.4-1.1-6.7-0.7c-0.4,0.1-0.8,0.2-1.2,0.4c-1.4,0.7-1.7,2.2-0.6,3.4c0.6,0.7,1.5,1,2.3,1.4c1.5,0.7,3.1,1.3,4.7,2
		c8.4,3.7,7.5,13.1,3.2,17.5c-2.8,2.9-6.3,4.2-10.2,4.5c-3.2,0.2-6.5,0-9.7-0.7c-0.6-0.1-0.7-0.3-0.7-0.9c0.2-2.7,0.5-5.3,0.7-8
		c0.1-0.6,0.3-0.7,0.9-0.5c2.6,1,5.3,1.5,8,1.4c1.9-0.1,3-1.2,2.9-2.8c-0.1-0.9-0.5-1.5-1.3-2c-1.1-0.7-2.3-1.1-3.5-1.6
		c-1.2-0.4-2.3-0.9-3.5-1.5c-4.2-2.2-5.6-6-5.2-10.4c0.5-6.1,5-9.1,10.1-10.2C340.5,303.5,342.1,303.4,343.8,303.4z"/>
	<path class="st9" d="M316.9,303.4c1.9,0,3.8,0.2,5.7,0.5c0.6,0.1,0.8,0.3,0.7,1c-0.3,2.3-0.5,4.6-0.7,6.9c-0.1,0.7-0.2,0.9-0.9,0.7
		c-2.2-0.7-4.4-1.1-6.7-0.7c-0.4,0.1-0.7,0.1-1,0.3c-1.8,0.8-2,2.6-0.5,3.8c1,0.8,2.1,1.2,3.3,1.7c1.3,0.6,2.6,1.1,3.9,1.7
		c6.3,3.1,6.9,9.4,4.7,14.1c-1.9,4.2-5.5,6.4-9.9,7.3c-4,0.8-8.1,0.4-12.1-0.3c-0.6-0.1-0.7-0.4-0.7-0.9c0.3-2.6,0.5-5.3,0.7-7.9
		c0.1-0.8,0.3-0.7,0.9-0.5c2.5,1,5,1.4,7.7,1.4c0.5,0,1.1-0.1,1.6-0.3c2-0.7,2.4-2.9,0.8-4.3c-1-0.9-2.2-1.2-3.3-1.7
		c-1.6-0.6-3.3-1.2-4.8-2.1c-2.8-1.7-4.1-4.3-4.4-7.6c-0.5-7.2,3.9-11.2,10.1-12.5C313.6,303.5,315.2,303.4,316.9,303.4z"/>
	<path class="st10" d="M277.2,218.6c0,8.2,0,16.4,0,24.6c0,1,0,2,0,3c-9.1,0-18.3,0-27.4,0c-0.4,0-0.8,0-0.7-0.6
		c0.3-3.3,0.8-6.6,2.2-9.7c4-9,10.8-14.6,20.4-16.7C273.4,218.8,275.3,218.6,277.2,218.6z"/>
	<path class="st9" d="M305,153.6c-0.7,12.3-10.4,23.2-22.5,25.4c-1.2,0.2-2.3,0.4-3.5,0.4c-1.9,0.2-1.9,0.2-1.9-1.7
		c0-8.2,0-16.5,0-24.7c0-0.4-0.1-0.7,0.1-1.1c0.5-0.4,1-0.3,1.5-0.3c8.2,0,16.5,0,24.7,0C305.2,151.7,305.2,151.8,305,153.6z"/>
	<path class="st10" d="M277.2,124.4c5.6-0.1,10.7,1.5,15.3,4.5c4.4,2.9,7.7,6.7,9.9,11.5c1.6,3.3,2.6,6.9,2.6,10.6
		c0.3,0.7,0,0.9-0.7,0.9c-8.8,0-17.6,0-26.4,0c-0.6,0-0.8-0.1-0.8-0.7c0-8.8,0-17.5,0-26.3C277.1,124.7,277.1,124.5,277.2,124.4z"/>
	<path class="st9" d="M193,322.1c0,5.7,0,11.4,0,17.1c0,0.8-0.2,1.1-1,1c-2.7-0.1-5.4,0-8,0c-0.7,0-0.9-0.2-0.9-0.9
		c0-11.5,0-23,0-34.5c0-0.7,0.2-0.9,0.9-0.9c2.7,0,5.4,0.1,8.1,0c0.8,0,1,0.3,1,1C193,310.8,193,316.5,193,322.1z"/>
	<path class="st9" d="M233.6,277.2c-0.1,4.5-1,8.5-4,11.9c-3.1,3.6-7.2,5.1-11.9,4.9c-1.6-0.1-3.2-0.3-4.7-0.9
		c-2.9-1.1-5.2-3.1-6.5-5.9c-2.5-5.8-2.7-11.6-0.2-17.4c2.6-5.9,8.6-9,15.1-8.3c6.7,0.7,10.8,5.3,11.9,11.8
		C233.5,274.6,233.6,276,233.6,277.2z"/>
	<path class="st9" d="M285.5,277.4c-0.1,5-1.3,9.6-5.2,13.1c-3.1,2.7-6.7,3.8-10.8,3.5c-2.9-0.2-5.6-0.9-7.9-2.8
		c-2.6-2.1-3.9-5-4.6-8.2c-0.9-4.6-0.7-9.1,1.3-13.4c2.7-5.8,8.7-8.8,15-8.1c7.2,0.8,11.1,5.9,12,12.5
		C285.5,275,285.5,276.2,285.5,277.4z"/>
	<path class="st1" d="M182.6,277.6c0-5,0-9.9,0-14.9c0-0.8,0.2-1,1-1c2.7,0,5.4,0,8.1,0c1.9,0,3.7,0.5,5.3,1.5
		c4.2,2.4,5.5,8.1,2.9,12.5c-1.9,3.1-4.8,4.6-8.2,5.3c-1.5,0.3-3,0.3-4.4,0.1c-0.9-0.1-1,0.2-1,1c0,3.5,0,7,0,10.4
		c0,0.8-0.2,1.1-1,1.1c-2.6,0-2.6,0-2.6-2.6C182.6,286.6,182.6,282.1,182.6,277.6z"/>
	<path class="st9" d="M240,277.6c0-5,0-9.9,0-14.9c0-0.7,0.1-1,0.9-1c0.8,0.1,1.9-0.3,2.5,0.2c0.6,0.5,0.2,1.6,0.2,2.5
		c0,8.4,0,16.8,0,25.1c0,0.8,0.2,1.1,1,1.1c3.3,0,6.6,0,9.9,0c0.7,0,0.9,0.1,0.9,0.9c0,2.2,0,2.2-2.2,2.2c-4.1,0-8.2,0-12.3,0
		c-0.8,0-1-0.2-1-1C240,287.6,240,282.6,240,277.6z"/>
	<path class="st1" d="M293.6,388.9c0.8-1.3,2.1-2,3.6-2.1c1.6-0.1,2.6,0.6,3.4,2.5c0.8-1.2,1.7-2.2,3.2-2.4c2.5-0.4,4.1,0.7,4.2,3.2
		c0.1,2.6,0,5.3,0,7.9c0,0.8-0.6,0.5-1,0.6c-0.5,0.1-0.8,0-0.8-0.6c0-2,0-4,0-6.1c0-0.4,0-0.9,0-1.3c-0.1-0.9-0.2-1.9-1.2-2.2
		c-1-0.4-2-0.1-2.8,0.6c-1.1,1-1.6,2.4-1.6,3.8c0,1.7-0.1,3.4,0,5.1c0,0.7-0.3,0.8-0.9,0.8c-0.5,0-0.9,0-0.9-0.8
		c0.1-2.3,0-4.7,0-7.1c0-1-0.1-2.1-1.3-2.5c-1.2-0.4-2.2,0-3,0.9c-0.9,1-1.2,2.2-1.3,3.5c0,1.7,0,3.4,0,5.1c0,0.7-0.3,0.8-0.9,0.8
		c-0.5,0-0.9,0-0.9-0.8c0-2.8,0-5.7,0-8.5c0-0.8-0.2-1.1-1-1.1c-0.2,0-0.5-0.1-0.7-0.1c-0.4,0-0.4-0.3-0.4-0.6
		c0-0.3,0.1-0.5,0.5-0.5c0.7,0,1.3-0.1,2-0.1c1.3-0.1,1.3-0.1,1.3,1.3C293.3,388.9,293.3,388.9,293.6,388.9z"/>
	<path class="st1" d="M189.6,396.9c-0.8,1.2-1.9,1.9-3.4,2c-2.1,0.1-3.6-0.9-4.2-2.9c-0.5-1.6-0.5-3.3,0-4.9c0.7-2.6,2.6-4,5.3-4.1
		c0.1,0,0.2,0,0.3,0c2.2,0,2.2,0,2.2-2.2c0-0.2,0-0.3,0-0.5c0.2-1-0.2-1.4-1.2-1.4c-0.4,0-0.8,0.1-0.8-0.6c0-0.6,0.5-0.5,0.9-0.6
		c0.7-0.1,1.4,0,2.1-0.1c0.7-0.1,0.9,0.2,0.9,0.9c0,4.5,0,9,0,13.5c0,1.1,0.3,1.5,1.3,1.5c0.4,0,0.7,0,0.7,0.5
		c0,0.6-0.4,0.6-0.7,0.6c-0.8,0.1-1.6,0-2.4,0.1c-0.6,0.1-0.7-0.3-0.7-0.8c0.1-0.3,0.1-0.6,0.1-1
		C189.8,396.7,189.7,396.8,189.6,396.9z"/>
	<path class="st1" d="M280.5,362.3c1.4-1.9,3.4-2.5,5.3-1.7c1.9,0.8,2.4,2.5,2.6,4.3c0.1,1,0,2-0.2,3.1c-0.6,2.6-2.6,4.2-5.3,4.3
		c-0.2,0-0.3,0-0.5,0c-0.6,0-1.6-0.3-1.9,0c-0.4,0.5-0.1,1.4-0.1,2.1c0,0.9,0,1.9,0,2.8c0,0.7-0.2,0.9-0.8,0.8c-0.6,0-1-0.1-0.9-0.9
		c0-4.1,0-8.2,0-12.3c0-0.4,0-0.9,0-1.3c0-1.5,0-1.5-1.5-1.8c-0.3-0.1-0.5-0.2-0.5-0.5c0-0.3,0-0.6,0.4-0.6c1,0,1.9-0.2,2.9-0.1
		c0.9,0.1,0.3,0.9,0.4,1.4C280.3,362,280,362.4,280.5,362.3z"/>
	<path class="st1" d="M371.4,396.4c-0.8,1.4-1.8,2.1-3.2,2.3c-2.1,0.3-3.9-0.8-4.5-2.8c-0.5-1.8-0.5-3.7,0.1-5.5
		c0.8-2.2,2.6-3.5,5-3.6c0.2,0,0.5,0,0.7,0c2,0,2,0,2-2c0-0.2,0-0.3,0-0.5c0-1.7,0.3-1.4-1.4-1.7c-0.3-0.1-0.7,0-0.7-0.5
		c0-0.5,0.3-0.6,0.6-0.6c0.9,0,1.8-0.1,2.7-0.1c0.7,0,0.5,0.5,0.5,0.9c0,2.8,0,5.7,0,8.5c0,1.7,0.1,3.4,0,5.2c0,0.9,0.2,1.3,1.1,1.3
		c0.4,0,0.9-0.2,0.9,0.5c0,0.7-0.6,0.5-1,0.7c-0.1,0-0.2,0-0.3,0C371.6,398.7,371.6,398.7,371.4,396.4z"/>
	<path class="st1" d="M354,423c-0.9,1.3-1.9,2.1-3.3,2.3c-1.7,0.3-3.2-0.4-3.7-1.8c-0.6-1.5-0.1-3,1.4-4c1.4-0.9,3-1.2,4.6-1.2
		c0.7,0,0.8-0.3,0.8-0.9c0-2-0.9-2.8-2.9-2.7c-0.9,0.1-1.8,0.3-2.6,0.6c-0.3,0.1-0.6,0.2-0.7-0.2c0-0.4-0.6-0.9,0.2-1.2
		c1.8-0.6,3.7-1,5.6-0.4c1.3,0.4,2,1.4,2.1,2.9c0,2.1,0.1,4.2,0,6.3c0,0.7,0.2,1.1,1,1.1c0.3,0,0.5,0.1,0.8,0.1
		c0.4,0.1,0.3,0.3,0.3,0.6c0,0.3-0.1,0.4-0.4,0.4c-0.9,0.1-1.8,0.1-2.7,0.2c-0.6,0-0.7-0.2-0.6-0.7C354,424.1,354,423.7,354,423z"/>
	<path class="st1" d="M298,423c-1.2,1.8-2.6,2.7-4.7,2.4c-1.2-0.2-2.1-0.8-2.4-2.1c-0.3-1.3,0-2.4,1-3.3c1-0.9,2.3-1.2,3.6-1.4
		c0.3,0,0.6,0,0.8-0.1c0.5-0.3,1.4,0.4,1.5-0.6c0.2-1.4-0.4-2.5-1.4-2.9c-1.3-0.4-2.6-0.1-3.9,0.4c-0.3,0.1-0.7,0.6-0.9-0.2
		c-0.1-0.5-0.3-1,0.5-1.2c1.6-0.4,3.1-0.8,4.8-0.4c1.8,0.4,2.7,1.4,2.7,3.3c0,2,0,4.1,0,6.2c0,0.7,0.2,1.1,0.9,1
		c0.3,0,0.5,0.1,0.8,0.1c0.4,0.1,0.3,0.4,0.3,0.6c0,0.3-0.1,0.4-0.4,0.4c-0.8,0-1.6,0.1-2.4,0.2c-0.7,0.1-0.9-0.2-0.9-0.9
		C298,423.9,298,423.5,298,423z"/>
	<path class="st1" d="M297.6,370.2c-0.9,1.3-2.1,2-3.7,2c-1.5,0-2.6-0.7-3-1.9c-0.5-1.4-0.1-2.8,1.1-3.7c1.4-1,3.1-1.4,4.8-1.4
		c0.9,0,1-0.3,1-1.1c-0.1-1.8-0.9-2.5-2.6-2.5c-1,0-1.9,0.2-2.8,0.6c-0.2,0.1-0.6,0.5-0.7-0.1c-0.1-0.4-0.5-1,0.1-1.2
		c2-0.7,4-1,6-0.2c1.4,0.6,1.8,1.9,1.8,3.3c0,1.9,0.1,3.8,0,5.7c0,0.9,0.3,1.3,1.2,1.2c0.3,0,0.7-0.1,0.8,0.3
		c0.1,0.5,0.1,0.9-0.6,0.9c-1,0-2,0-3,0c-0.1-0.5,0-1-0.1-1.5C297.9,370.3,297.9,370.1,297.6,370.2z"/>
	<path class="st1" d="M229.1,423c-0.9,1.5-2.1,2.2-3.5,2.4c-1.4,0.2-2.9-0.5-3.4-1.7c-0.6-1.3-0.2-2.9,1-3.8c1.5-1.1,3.2-1.4,5-1.5
		c0.8,0,0.9-0.3,0.8-1c-0.2-2.1-1.2-2.9-3.3-2.6c-0.8,0.1-1.6,0.3-2.3,0.6c-0.3,0.2-0.6,0.2-0.7-0.2c0-0.4-0.5-0.9,0.1-1.1
		c2-0.7,4-1.1,6-0.3c1.2,0.5,1.7,1.5,1.8,2.8c0,2.1,0.1,4.2,0,6.4c0,0.7,0.2,1.1,0.9,1c0.3,0,0.6,0.1,0.9,0.1
		c0.3,0.1,0.3,0.3,0.3,0.5c0,0.3-0.1,0.5-0.4,0.5c-1,0.1-1.9,0.1-2.9,0.2c-0.4,0-0.5-0.2-0.5-0.6C229.1,424.2,229.1,423.7,229.1,423
		z"/>
	<path class="st1" d="M383.9,396.5c-1,1.6-2.3,2.4-4.1,2.3c-1.3-0.1-2.3-0.6-2.7-1.8c-0.5-1.2-0.3-2.4,0.7-3.4
		c1.2-1.3,2.9-1.5,4.5-1.8c0.6-0.1,1.5,0.5,1.6-0.7c0.1-1.6-0.4-2.6-1.7-2.9c-1.2-0.2-2.4,0-3.6,0.4c-0.3,0.1-0.7,0.7-0.9-0.1
		c-0.1-0.5-0.4-1.1,0.5-1.3c1.5-0.4,2.9-0.7,4.5-0.4c1.9,0.3,2.9,1.4,3,3.2c0,2,0.1,4,0,6c0,0.9,0.3,1.3,1.2,1.3
		c0.3,0,0.8-0.2,0.9,0.5c0,0.7-0.5,0.6-0.9,0.7c-0.1,0-0.3,0-0.4,0C384.1,398.7,384.1,398.7,383.9,396.5z"/>
	<path class="st1" d="M318.9,369.9c-1.1,1.7-2.4,2.4-4.1,2.4c-1.3,0-2.3-0.6-2.8-1.8c-0.5-1.2-0.2-2.5,0.8-3.5
		c1.2-1.2,2.9-1.4,4.5-1.7c0.5-0.1,1.5,0.5,1.6-0.7c0.1-1.6-0.5-2.6-1.7-2.8c-0.7-0.1-1.5-0.1-2.2,0.1c-0.5,0.1-1,0.3-1.5,0.4
		c-0.3,0.1-0.7,0.5-0.8-0.1c-0.1-0.4-0.6-0.9,0.2-1.2c1.6-0.6,3.3-0.8,5-0.5c1.8,0.3,2.7,1.4,2.7,3.3c0,2,0.1,4,0,6.1
		c0,0.8,0.3,1.2,1.1,1.1c0.2,0,0.3,0,0.5,0c0.4,0,0.5,0.2,0.6,0.5c0,0.4-0.2,0.6-0.6,0.6c-0.8,0-1.5,0-2.3,0.1
		c-0.7,0.1-0.9-0.2-0.9-0.9C318.9,370.8,318.9,370.5,318.9,369.9z"/>
	<path class="st1" d="M264,392.5c0,3.2-1.6,5.6-4.3,6.2c-3.2,0.7-5.8-1.1-6.2-4.4c-0.2-2,0-4,1.3-5.6c1.5-1.8,3.9-2.4,6.1-1.6
		c1.9,0.6,3,2.4,3.1,4.7C264.1,392.1,264,392.3,264,392.5z"/>
	<path class="st1" d="M345.5,393c0-3.5,1.8-5.8,5-6.2c2.6-0.3,4.7,0.9,5.4,3.5c0.5,1.7,0.4,3.5-0.3,5.2c-1,2.5-3.3,3.7-6,3.3
		c-2.4-0.4-3.9-2.2-4.1-4.9C345.5,393.6,345.5,393.3,345.5,393z"/>
	<path class="st1" d="M330.6,419c0,2-0.4,3.8-2,5.1c-1.7,1.5-3.6,1.7-5.7,0.9c-1.9-0.7-2.6-2.3-2.9-4.3c-0.2-1.7-0.1-3.2,0.8-4.7
		c1.2-2.1,3.5-3.1,5.9-2.6c2.3,0.5,3.7,2.1,3.9,4.6C330.6,418.4,330.6,418.7,330.6,419z"/>
	<path class="st1" d="M245.3,369.7c-1.1,1.9-2.6,2.7-4.6,2.5c-1.8-0.1-2.9-1.2-2.9-3c-0.1-2.1-0.1-4.2,0-6.3c0-0.9-0.2-1.3-1.2-1.3
		c-0.4,0-0.9,0.1-0.9-0.6c0-0.8,0.6-0.6,1-0.6c2.8-0.2,2.8-0.2,2.8,2.6c0,1.9-0.1,3.8,0.1,5.7c0.2,1.8,1.6,2.6,3.3,1.8
		c1.7-0.8,2.2-2.3,2.3-4c0.1-1.8,0.1-3.5,0-5.3c0-0.7,0.2-0.9,0.9-0.9c0.7,0,0.9,0.2,0.9,0.9c0,2.8,0,5.6,0,8.3
		c0,0.9,0.3,1.2,1.1,1.2c0.4,0,0.9-0.1,0.9,0.6c0,0.8-0.6,0.6-1,0.6c-0.2,0-0.3,0-0.5,0C245.3,372.1,245.3,372.1,245.3,369.7z"/>
	<path class="st1" d="M234.3,419.6c-0.1-4.4,3.1-7.1,7.1-6c1.2,0.3,2.2,1,2.8,2.1c1.2,2.6,1.2,5.2-0.5,7.6c-1.3,1.9-3.7,2.6-6,1.9
		c-1.9-0.6-3.2-2.3-3.4-4.7C234.3,420.2,234.3,419.9,234.3,419.6z"/>
	<path class="st1" d="M279.9,415.7c1-1.7,2.4-2.4,4.1-2.4c2,0,3.3,1.1,3.4,3.1c0.1,2.7,0,5.4,0,8.1c0,0.8-0.6,0.5-1,0.6
		c-0.5,0.1-0.8,0-0.8-0.7c0-2.5,0-5,0-7.4c0-1.9-1.3-2.7-3.1-2.2c-0.9,0.3-1.5,0.9-1.9,1.7c-0.5,0.9-0.7,2-0.7,3.1
		c0,1.6,0,3.2,0,4.8c0,0.7-0.3,0.8-0.9,0.8c-0.6,0-0.9-0.1-0.9-0.8c0-2.7,0-5.5,0-8.2c0-1-0.3-1.4-1.2-1.4c-0.1,0-0.3,0-0.4,0
		c-0.4,0-0.4-0.2-0.4-0.5c0-0.3,0.1-0.5,0.4-0.5c1-0.2,1.9-0.1,2.9-0.1c0.4,0,0.5,0.3,0.5,0.6C279.9,414.6,279.9,415,279.9,415.7z"
		/>
	<path class="st1" d="M232.1,389.2c0.9-1.3,2-2.1,3.5-2.3c2.4-0.3,4,0.9,4.1,3.3c0.1,2.6,0,5.2,0,7.8c0,0.8-0.5,0.6-0.9,0.6
		c-0.5,0-0.9,0.1-0.9-0.7c0-2.3,0-4.6,0-7c0-1.1-0.1-2.2-1.3-2.6c-1.2-0.4-2.6,0.1-3.4,1.2c-0.7,1-1,2.2-1,3.5c0,1.6,0,3.2,0,4.8
		c0,0.7-0.2,0.8-0.9,0.8c-0.6,0-0.9-0.1-0.9-0.9c0-2.8,0-5.6,0-8.3c0-0.8-0.2-1.3-1.1-1.2c-0.2,0-0.4,0-0.6-0.1
		c-0.3-0.1-0.4-0.3-0.4-0.6c0-0.3,0.2-0.5,0.5-0.5c0.8,0,1.6-0.1,2.4-0.2c0.8-0.1,1,0.2,0.9,1C232,388.2,232.1,388.6,232.1,389.2z"
		/>
	<path class="st1" d="M329.1,366.6c-0.2-4,2.4-6.6,6.3-6.3c1.8,0.2,3.2,1,3.8,2.8c0.9,2.6,0.8,5.1-0.9,7.3c-1.3,1.7-3.7,2.3-5.9,1.6
		c-1.8-0.5-3-2.2-3.2-4.3C329.2,367.3,329.1,366.9,329.1,366.6z"/>
	<path class="st1" d="M269.8,365.9c0,2-0.5,3.8-2,5.1c-1.7,1.5-3.6,1.6-5.6,0.9c-1.9-0.6-2.7-2.2-2.9-4c-0.4-2.7,0-5.1,2.4-6.8
		c1.8-1.2,3.8-1.2,5.7-0.3C269.4,361.9,269.7,363.9,269.8,365.9z"/>
	<path class="st1" d="M196.1,419.1c-1.1,0-2.2,0-3.3,0c-0.3,0-0.5-0.1-0.6,0.3c-0.4,1.8,1,4.1,2.8,4.4c1.3,0.2,2.5,0.1,3.7-0.3
		c0.2-0.1,0.7-0.4,0.7,0.2c0,0.4,0.5,0.9-0.3,1.2c-1.7,0.5-3.5,0.8-5.3,0.3c-1.3-0.3-2.3-1.1-2.9-2.4c-0.9-2.3-0.9-4.6,0.2-6.8
		c1.1-2.2,3.5-3.1,5.9-2.4c1.9,0.6,3.1,2.5,3,4.9c0,0.5-0.2,0.7-0.7,0.7C198.3,419.1,197.2,419.1,196.1,419.1z"/>
	<path class="st1" d="M336,415.8c1-1.6,2.3-2.4,4-2.4c2.2,0,3.5,1.2,3.5,3.4c0,2.5,0,5.1,0,7.6c0,0.6-0.1,0.9-0.8,0.9
		c-0.6,0-1-0.1-1-0.8c0-2.3,0-4.6,0-6.9c0-1.1,0-2.2-1.3-2.6c-1.2-0.4-2.5,0.1-3.3,1.2c-0.9,1.2-1.1,2.5-1.1,3.9c0,1.4,0,2.8,0,4.2
		c0,0.7,0,1-0.9,1c-0.8,0-0.8-0.4-0.8-1c0-2.7,0-5.4,0-8.1c0-1-0.3-1.3-1.2-1.3c-0.3,0-0.7,0.1-0.8-0.2c-0.2-0.4-0.3-0.8,0.4-0.9
		c0.8-0.1,1.6-0.1,2.5-0.2c0.6,0,0.8,0.2,0.8,0.8C335.9,414.7,336,415.2,336,415.8z"/>
	<path class="st1" d="M326.5,389.1c0.8-1.3,1.9-2.1,3.4-2.3c2.4-0.3,4,0.9,4.1,3.4c0,2.5,0,5.1,0,7.6c0,0.7-0.3,0.8-0.9,0.8
		c-0.5,0-0.9,0-0.9-0.8c0.1-2.3,0-4.6,0-6.9c0-1.6-0.4-2.4-1.4-2.7c-1.3-0.4-2.6,0.2-3.4,1.4c-0.7,1-0.9,2.2-0.9,3.4
		c0,1.5,0,3,0,4.6c0,0.6-0.1,1-0.8,1c-0.7,0-0.9-0.3-0.9-0.9c0-2.8,0-5.6,0-8.3c0-0.8-0.2-1.2-1-1.1c-0.2,0-0.5,0-0.7-0.1
		c-0.3-0.1-0.4-0.3-0.4-0.6c0-0.3,0.2-0.5,0.5-0.5c0.3,0,0.6,0,0.9,0c0.7-0.1,1.6-0.4,2.1,0C326.8,387.4,326.2,388.3,326.5,389.1z"
		/>
	<path class="st1" d="M191.6,362.7c1.1-1.8,2.5-2.6,4.5-2.4c1.7,0.1,2.9,1.1,3,2.8c0.1,2.8,0.1,5.6,0.1,8.4c0,0.8-0.6,0.5-1,0.5
		c-0.5,0.1-0.8-0.1-0.8-0.7c0-2,0-3.9,0-5.9c0-0.5,0-0.9,0-1.4c0-0.9-0.2-1.8-1.2-2.2c-1-0.4-2-0.2-2.9,0.5
		c-1.4,1.1-1.7,2.7-1.7,4.4c0,1.5,0,3,0,4.5c0,0.6-0.2,0.9-0.8,0.9c-0.6,0-0.9-0.1-0.9-0.8c0-2.8,0-5.6,0-8.3c0-0.9-0.3-1.2-1.1-1.2
		c-0.4,0-1,0.2-1-0.6c0-0.8,0.7-0.6,1.1-0.6c0.6-0.1,1.1,0,1.7-0.1c0.8-0.1,1.1,0.2,1,1C191.5,361.8,191.6,362.1,191.6,362.7z"/>
	<path class="st1" d="M222.6,392.5c-1.1,0-2.1,0-3.2,0c-0.5,0-0.7,0.2-0.7,0.7c-0.1,2.9,1.7,4.5,4.6,4.1c0.6-0.1,1.2-0.2,1.8-0.4
		c0.3-0.1,0.7-0.4,0.9,0.3c0.1,0.5,0.2,0.9-0.5,1.1c-1.4,0.4-2.9,0.6-4.4,0.4c-2.3-0.3-3.5-1.5-4-3.8c-0.4-1.9-0.4-3.9,0.6-5.7
		c1.1-2.1,3.5-3,5.9-2.2c1.9,0.6,3.1,2.6,2.9,4.9c0,0.5-0.2,0.6-0.7,0.6C224.8,392.5,223.7,392.5,222.6,392.5z"/>
	<path class="st1" d="M200.8,392.5c-1.1,0-2.1,0-3.2,0c-0.5,0-0.7,0.1-0.7,0.7c-0.1,2.8,1.8,4.6,4.6,4.2c0.6-0.1,1.2-0.2,1.8-0.4
		c0.4-0.1,0.7-0.4,0.9,0.3c0.1,0.5,0.3,0.9-0.4,1.1c-1.5,0.5-3,0.7-4.6,0.4c-2.1-0.3-3.4-1.6-3.9-3.7c-0.4-2-0.4-3.9,0.6-5.7
		c1.1-2.1,3.5-3,5.9-2.3c2,0.6,3.1,2.5,2.9,4.9c0,0.5-0.2,0.6-0.6,0.6C203,392.5,201.9,392.5,200.8,392.5z"/>
	<path class="st1" d="M316.9,392.5c-1,0-2.1,0-3.1,0c-0.5,0-0.7,0.1-0.7,0.7c0,2.9,1.8,4.5,4.6,4.1c0.7-0.1,1.3-0.2,1.9-0.4
		c0.3-0.1,0.6-0.2,0.7,0.3c0,0.4,0.4,0.9-0.3,1.1c-2.1,0.7-4.1,0.9-6.2,0c-0.9-0.4-1.6-1.1-2-2c-0.9-2.4-1-4.8,0.2-7.1
		c1.1-2,3.5-2.9,5.8-2.2c1.9,0.6,3.1,2.6,2.9,4.9c0,0.5-0.3,0.6-0.7,0.6C319.1,392.5,318,392.5,316.9,392.5z"/>
	<path class="st1" d="M230.8,356.2c0,1.2,0,2.3,0,3.5c0,0.6,0.2,0.8,0.8,0.8c0.7,0,1.3,0,2,0c0.5,0,0.7,0.2,0.7,0.7
		c0,0.5-0.1,0.7-0.7,0.7c-0.6,0-1.3,0-1.9,0c-0.7-0.1-0.9,0.2-0.9,0.9c0,1.9,0,3.7,0,5.6c0,2.2,0.3,2.5,2.5,2.3
		c0.6,0,0.9,0.1,0.9,0.7c0,0.5-0.2,0.7-0.6,0.8c-0.9,0.1-1.7,0.2-2.6,0c-1.3-0.2-1.9-1.1-2-2.7c0-2.2-0.1-4.4,0-6.5
		c0-0.8-0.2-1.2-1.1-1.1c-0.3,0-0.6,0-0.9,0c-0.6,0.1-0.6-0.3-0.6-0.7c0-0.5,0.1-0.6,0.6-0.7c0.6,0,1.4,0.3,1.8-0.2
		c0.4-0.5,0.1-1.3,0.1-1.9c0-0.1,0-0.3,0-0.4C229.1,356.4,229.1,356.4,230.8,356.2z"/>
	<path class="st1" d="M276.9,396.5c1.1-3,2.1-5.8,3.1-8.6c0.3-1,0.8-1.2,1.8-1c0.7,0.2,0.2,0.6,0.1,0.8c-1.1,3-2.3,6-3.5,9.1
		c-0.1,0.3-0.2,0.5-0.3,0.8c-0.2,0.7-0.6,0.9-1.3,0.9c-0.8,0-1-0.4-1.2-1c-1.2-3.2-2.4-6.4-3.6-9.7c-0.1-0.3-0.6-0.7-0.1-1
		c0.6-0.4,1.7,0,1.9,0.6c0.9,2.6,1.9,5.3,2.8,7.9C276.6,395.8,276.7,396.1,276.9,396.5z"/>
	<path class="st1" d="M255.7,411.5c0,2.1,0,2.1,2.2,2.1c0.5,0,1.3-0.4,1.3,0.7c0,0.5-0.1,0.7-0.7,0.7c-0.7,0-1.3,0-2,0
		c-0.6,0-0.8,0.2-0.8,0.8c0,2,0,4,0,6c0,1.9,0.6,2.4,2.5,2.1c0.5-0.1,0.9-0.2,0.9,0.6c0.1,0.6-0.1,0.9-0.8,0.9
		c-0.4,0-0.7,0.1-1.1,0.1c-2.2,0.2-3.3-0.8-3.3-2.9c0-2.2,0-4.4,0-6.7c0-0.7-0.2-1-0.9-0.9c-0.3,0-0.7,0-1,0c-0.5,0-0.7-0.1-0.7-0.7
		c0-0.6,0.2-0.7,0.7-0.7c1.8,0,1.8-0.1,1.8-1.9c0-0.4,0-0.7,0-1.1c0-0.8,0.6-1.3,1.4-1.2c0.4,0,0.4,0.3,0.4,0.6
		C255.7,410.4,255.7,410.9,255.7,411.5z"/>
	<path class="st1" d="M247.1,396.5c1.1-3,2.1-5.8,3.1-8.7c0.1-0.4,0.1-0.9,0.7-0.9c0.4,0,1-0.1,1.2,0.1c0.4,0.3-0.1,0.8-0.2,1.2
		c-1.2,3.2-2.5,6.3-3.6,9.5c-0.3,0.7-0.7,0.9-1.4,0.9c-0.7,0-0.9-0.4-1.2-0.9c-1.2-3.2-2.4-6.4-3.6-9.6c-0.1-0.3-0.7-0.8-0.1-1.1
		c0.6-0.3,1.7,0,1.8,0.6c1,2.7,1.9,5.3,2.8,8C246.8,395.8,246.9,396.1,247.1,396.5z"/>
	<path class="st1" d="M338.4,392.3c0-1.1,0-2.1,0-3.2c0-0.7-0.2-0.9-0.8-0.8c-0.3,0-0.7,0-1,0c-0.6,0-0.7-0.3-0.7-0.7
		c0-0.4,0.1-0.7,0.6-0.7c0.6,0,1.3,0.3,1.7-0.2c0.4-0.5,0.1-1.3,0.2-1.9c0-0.3,0-0.6,0-0.9c0-0.8,0.7-1.4,1.5-1.2
		c0.4,0.1,0.3,0.3,0.3,0.5c0,0.9,0.1,1.7,0,2.6c-0.1,1,0.3,1.2,1.2,1.1c0.5-0.1,1.1,0,1.6,0c0.5,0,0.7,0.2,0.7,0.7
		c0,0.5-0.2,0.7-0.7,0.7c-0.1,0-0.1,0-0.2,0c-2.5,0-2.5,0-2.5,2.5c0,1.3,0,2.6,0,4c0,2.1,0.5,2.6,2.5,2.3c0.8-0.1,0.9,0.2,1,0.8
		c0.1,0.4,0,0.6-0.5,0.6c-0.1,0-0.3,0-0.4,0.1c-3.2,0.6-4.4-0.4-4.4-3.7C338.4,394.1,338.4,393.2,338.4,392.3z"/>
	<path class="st1" d="M213.8,365.9c0-1.1,0-2.2,0-3.3c0-0.6-0.1-0.9-0.8-0.8c-0.3,0-0.7,0-1,0c-0.6,0.1-0.7-0.2-0.7-0.7
		c0-0.6,0.3-0.6,0.7-0.7c1.8-0.1,1.8-0.1,1.8-1.9c0-0.3,0-0.7,0-1c0-0.9,0.5-1.4,1.4-1.4c0.5,0,0.3,0.3,0.3,0.5c0,1,0.1,1.9,0,2.9
		c0,0.7,0.2,0.9,0.9,0.9c0.6,0,1.2,0,1.8,0c0.6,0,0.8,0.2,0.7,0.7c0,0.5-0.2,0.7-0.7,0.7c-0.1,0-0.1,0-0.2,0c-0.8,0-1.8-0.3-2.3,0.1
		c-0.6,0.5-0.2,1.6-0.2,2.4c0,1.3,0,2.6,0,4c0,2,0.4,2.4,2.5,2.3c0.4,0,0.8-0.2,0.9,0.5c0.1,0.7,0,1-0.7,1c-0.1,0-0.2,0-0.3,0
		c-3.3,0.3-4.2-0.5-4.2-3.8C213.8,367.5,213.8,366.7,213.8,365.9z"/>
	<path class="st1" d="M252.1,366.1c0-1.2,0-2.3,0-3.5c0-0.7-0.2-0.9-0.8-0.8c-0.3,0-0.7,0-1,0c-0.6,0.1-0.7-0.2-0.7-0.7
		c0-0.5,0.2-0.7,0.7-0.7c1.9-0.1,1.9-0.1,1.9-2c0-0.4,0-0.7,0-1.1c0-0.7,0.7-1.3,1.4-1.2c0.4,0.1,0.3,0.4,0.3,0.6c0,1,0,2,0,3
		c0,0.5,0.2,0.7,0.7,0.7c0.7,0,1.4,0,2.1,0c0.5,0,0.7,0.1,0.7,0.7c0,0.5-0.1,0.7-0.7,0.7c-0.7,0-1.5,0-2.2,0c-0.5,0-0.6,0.2-0.6,0.6
		c0.1,2.1-0.1,4.3,0.1,6.4c0.1,1.5,0.5,1.8,2,1.8c0.3,0,0.5,0,0.8,0c0.6,0,0.5,0.4,0.6,0.7c0.1,0.3,0.1,0.6-0.4,0.7
		c-1.1,0.2-2.1,0.3-3.1,0c-1.1-0.3-1.5-1.2-1.6-2.3C252.1,368.6,252.1,367.3,252.1,366.1C252.1,366.1,252.1,366.1,252.1,366.1z"/>
	<path class="st1" d="M209.6,398.9c-0.5,0-1-0.1-1.5-0.1c-0.7,0-0.9-0.4-0.8-1.1c0.1-0.8,0.6-0.5,1.1-0.5c0.9,0.2,1.8,0.3,2.7,0
		c0.9-0.3,1.6-0.7,1.7-1.7c0.1-1-0.6-1.5-1.4-1.8c-0.7-0.3-1.5-0.5-2.3-0.7c-1.2-0.4-2-1.3-2-2.7c0-1.3,0.6-2.4,1.8-3
		c1.4-0.7,2.9-0.7,4.5-0.4c0.7,0.1,0.4,0.7,0.4,1.1c0,0.6-0.4,0.3-0.7,0.3c-0.9-0.1-1.8-0.3-2.7,0c-0.8,0.2-1.3,0.7-1.4,1.5
		c-0.1,0.8,0.3,1.4,1.1,1.7c0.8,0.3,1.6,0.6,2.4,0.8c1.1,0.4,2,1.1,2.1,2.3c0.2,1.4-0.4,2.5-1.6,3.3
		C211.9,398.7,210.8,398.9,209.6,398.9z"/>
	<path class="st1" d="M204.9,372.2c-0.5,0-0.9-0.1-1.4-0.1c-0.9,0-1-0.5-0.8-1.2c0.1-0.4,0.2-0.5,0.7-0.4c1.1,0.3,2.2,0.5,3.3,0.1
		c0.8-0.3,1.5-0.8,1.5-1.8c0-0.9-0.6-1.4-1.3-1.6c-0.8-0.3-1.6-0.5-2.3-0.8c-1.2-0.4-1.9-1.3-2-2.6c-0.1-1.2,0.4-2.3,1.5-2.9
		c1.5-0.9,3.1-0.8,4.7-0.5c0.7,0.1,0.4,0.7,0.4,1.1c0,0.5-0.4,0.3-0.7,0.3c-0.8-0.2-1.5-0.2-2.3-0.1c-1.1,0.1-1.7,0.6-1.8,1.5
		c-0.1,1,0.4,1.5,1.3,1.9c0.7,0.3,1.4,0.5,2.2,0.7c1.2,0.4,2.1,1.1,2.2,2.4c0.2,1.4-0.4,2.5-1.6,3.3
		C207.3,372.1,206.2,372.3,204.9,372.2z"/>
	<path class="st1" d="M308.6,425.3c-3.6,0-5.3-1.6-5.4-5c0-0.9,0-1.8,0.2-2.8c0.6-2.6,2.6-4.2,5.3-4.2c0.7,0,1.4,0.2,2.2,0.3
		c0.7,0.1,0.8,0.5,0.6,1.1c-0.1,0.4-0.3,0.7-0.7,0.4c0,0-0.1,0-0.1,0c-3.8-0.9-5.7,0.6-5.7,4.4c0,3.5,2,5,5.5,4
		c0.3-0.1,0.8-0.7,1.1,0.2c0.3,0.8-0.1,1.1-0.8,1.2C310,425.2,309.2,425.3,308.6,425.3z"/>
	<path class="st1" d="M362.1,416.7c0,2.5,0,5.1,0,7.6c0,0.7-0.2,0.9-0.9,0.9c-0.7,0-0.9-0.2-0.9-0.9c0-4.6,0-9.2,0-13.8
		c0-0.9-0.3-1.2-1.1-1.2c-0.4,0-1,0.1-0.9-0.6c0-0.7,0.6-0.5,1-0.5c2.8-0.2,2.8-0.2,2.8,2.7C362.1,412.8,362.1,414.7,362.1,416.7z"
		/>
	<path class="st1" d="M269.2,390.1c0,2.5,0,5,0,7.5c0,0.6,0,1-0.9,1c-0.9,0-0.9-0.4-0.9-1.1c0-4.5,0-9,0-13.5c0-0.9-0.3-1.3-1.2-1.3
		c-0.4,0-0.9,0.2-0.9-0.6c0-0.7,0.6-0.5,1-0.6c2.8-0.3,2.8-0.3,2.8,2.4C269.2,386.1,269.2,388.1,269.2,390.1z"/>
	<path class="st1" d="M264.6,415.3c0.7-1.3,1.8-1.9,3.2-2c0.4,0,0.6,0.2,0.6,0.6c-0.1,0.4,0.3,1.1-0.4,1.1c-0.9,0-1.8,0.1-2.4,0.9
		c-0.8,0.9-1,2.1-1.1,3.2c-0.1,1.7-0.1,3.4,0,5.1c0,0.7-0.1,1-0.9,1c-0.9,0-0.9-0.4-0.9-1c0-2.8,0-5.6,0-8.3c0-0.7-0.1-1.1-0.9-1
		c-0.2,0-0.5-0.1-0.7-0.1c-0.3,0-0.5-0.2-0.5-0.5c0-0.3,0-0.5,0.4-0.6c1-0.2,2-0.2,3-0.1c0.5,0,0.3,0.5,0.4,0.7
		C264.4,414.6,264.1,415,264.6,415.3z"/>
	<path class="st1" d="M181.4,414.7c0-0.3,0-0.6,0-1c0.9-0.2,1.8-0.2,2.7-0.2c0.8-0.1,1.1,0.2,0.9,1c-0.1,0.3,0,0.7-0.1,1
		c-0.1,0.2,0,0.4-0.1,0.5c0.1-0.1,0.2-0.3,0.3-0.4c0.7-1.6,2-2.4,3.3-2.3c0.3,0,0.7,0.1,0.5,0.5c-0.1,0.4,0.3,1.2-0.4,1.2
		c-0.9,0.1-1.8,0.1-2.4,0.9c-0.7,0.9-0.9,2-1,3.1c-0.2,1.7-0.1,3.5-0.1,5.3c0,0.7-0.3,0.9-0.9,0.9c-0.7,0-0.8-0.3-0.8-0.9
		c0-2.7-0.1-5.4,0-8.1c0-1-0.3-1.4-1.3-1.4C181.9,414.8,181.7,414.7,181.4,414.7z"/>
	<path class="st1" d="M306.5,362.6c0.7-1.6,1.9-2.4,3.3-2.3c0.3,0,0.7,0,0.6,0.4c-0.1,0.4,0.3,1.1-0.5,1.2c-2.5,0.5-3.2,1.4-3.4,4
		c-0.1,1.8-0.1,3.6-0.1,5.4c0,0.7-0.3,0.8-0.9,0.8c-0.7,0-0.8-0.2-0.8-0.9c0-2.8,0-5.6,0-8.3c0-0.9-0.3-1.2-1.1-1.2
		c-0.4,0-1,0.1-0.9-0.6c0.1-0.7,0.6-0.5,1-0.5c0.2,0,0.5,0,0.7,0c2.1-0.1,2.1-0.1,1.9,2c-0.1,0.1-0.1,0.3,0,0.4
		C306.4,362.7,306.4,362.7,306.5,362.6z"/>
	<path class="st11" d="M316.8,419.3c0,1.7,0,3.4,0,5.1c0,0.8-0.3,0.8-1,0.9c-0.7,0-0.8-0.2-0.8-0.9c0-2.8,0-5.6,0-8.4
		c0-0.7-0.2-1.1-0.9-1.1c-0.2,0-0.4-0.1-0.6-0.1c-0.4,0-0.5-0.2-0.5-0.6c0-0.3,0.1-0.5,0.5-0.5c1-0.2,1.9-0.1,2.9-0.1
		c0.5,0,0.4,0.4,0.4,0.7C316.8,415.9,316.8,417.6,316.8,419.3z"/>
	<path class="st11" d="M273.4,419.4c0,1.6,0,3.2,0,4.8c0,0.6,0.1,1.1-0.8,1.1c-0.8,0-1-0.3-1-1.1c0-2.6,0-5.3,0-7.9
		c0-1-0.2-1.5-1.2-1.5c-0.3,0-0.8,0.1-0.8-0.6c0-0.7,0.5-0.5,0.8-0.6c0.8-0.1,1.5-0.1,2.3-0.1c0.5,0,0.7,0.2,0.7,0.7
		C273.4,415.9,273.4,417.7,273.4,419.4z"/>
	<path class="st1" d="M286.9,392.8c0,1.7,0,3.3,0,5c0,0.7-0.3,0.9-0.9,0.9c-0.7,0-0.9-0.2-0.9-0.9c0-2.8,0-5.6,0-8.4
		c0-0.8-0.2-1.1-1-1.1c-0.3,0-0.5-0.1-0.8-0.1c-0.3-0.1-0.3-0.3-0.3-0.6c0-0.3,0.1-0.5,0.4-0.5c0.1,0,0.3,0,0.4,0c1,0,2.1-0.6,2.8,0
		c0.6,0.6,0.2,1.8,0.2,2.7C286.9,390.8,286.9,391.8,286.9,392.8z"/>
	<path class="st11" d="M224.3,366.2c0,1.7,0,3.4,0,5.1c0,0.7-0.3,0.7-0.8,0.7c-0.5,0-0.9,0-0.9-0.8c0-2.8,0-5.6,0-8.3
		c0-1-0.3-1.3-1.2-1.3c-0.4,0-0.8,0.1-0.8-0.5c0-0.7,0.5-0.6,0.9-0.6c2.9-0.2,2.9-0.2,2.9,2.7C224.3,364.2,224.3,365.2,224.3,366.2z
		"/>
	<path class="st1" d="M218.6,419.4c0,1.7,0,3.4,0,5.1c0,0.6-0.2,0.8-0.8,0.8c-0.6,0-0.9-0.1-0.9-0.8c0-2.7,0-5.4,0-8
		c0-1.8,0.2-1.3-1.4-1.6c-0.1,0-0.2,0-0.3,0c-0.4,0-0.4-0.2-0.4-0.5c0-0.3,0.1-0.5,0.4-0.5c0.9-0.1,1.7-0.1,2.6-0.2
		c0.6,0,0.8,0.2,0.8,0.8C218.6,416,218.6,417.7,218.6,419.4z"/>
	<path class="st1" d="M181.5,361.6c0-0.3,0-0.6-0.1-1c1-0.3,2.1-0.2,3.1-0.2c0.5,0,0.5,0.3,0.5,0.6c0,3.4,0,6.9,0,10.3
		c0,0.8-0.5,0.6-0.9,0.6c-0.5,0-0.8-0.1-0.8-0.7c0-2.7,0-5.4,0-8.1c0-1.5,0-1.5-1.4-1.6C181.8,361.6,181.6,361.6,181.5,361.6z"/>
	<path class="st12" d="M277.2,124.4c0,8.7,0,17.5,0,26.2c0,0.9,0.2,1.2,1.2,1.2c8.5,0,17.1,0,25.6,0c0.6,0,1.2,0.1,1.1-0.8
		c0.3,0.9,0.3,1.7,0,2.6c-0.1-1.6-0.1-1.6-1.8-1.6c-8.7,0-17.4,0-26.1,0c-0.1,0.1-0.1,0.1-0.2,0c-0.7,0-1.3,0-2-0.1
		c0.2,0,0.3-0.1,0.5-0.1c1.5-0.1,1.5-0.1,1.5-1.6c0-8.2,0-16.5,0-24.7C277,125.2,276.8,124.7,277.2,124.4z"/>
	<path class="st1" d="M228,411.1c-0.7,0-1.2-0.4-1.8-0.8c-1.1-0.8-1.4-0.8-2.4,0.2c-0.4,0.4-0.5,0.1-0.8-0.1
		c-0.3-0.2-0.3-0.4-0.1-0.7c0.8-1.3,2.4-1.6,3.6-0.8c0.2,0.1,0.4,0.3,0.6,0.4c0.8,0.6,1.5,0.6,2.2-0.2c0.3-0.3,0.4-0.4,0.8-0.1
		c0.4,0.3,0.4,0.5,0.1,0.9C229.6,410.6,229,411.2,228,411.1z"/>
	<path class="st13" d="M276.9,152c0.1,0,0.1,0,0.2,0c0,8.8,0,17.7,0,26.5c0,0.7,0.3,0.9,0.9,0.9c0.3,0,0.6,0,0.9,0
		c-0.1,0-0.2,0.1-0.3,0.1c-1.6,0.2-1.6,0.2-1.6,1.8c0,5.7,0,11.5,0,17.2c0,0.3,0,0.6-0.1,1c0-6,0-12,0-17.9c0-1.9,0-1.9-1.8-2
		c0.1,0,0.1-0.1,0.2-0.1c1.6-0.2,1.6-0.2,1.6-1.9C277,169.1,276.9,160.6,276.9,152z"/>
	<path class="st11" d="M219,409.9c-0.1,0.7-0.5,1.1-1.2,1.1c-0.7,0-1.2-0.4-1.2-1.2c0-0.7,0.5-1.2,1.2-1.2
		C218.5,408.6,218.9,409.1,219,409.9z"/>
	<path class="st11" d="M223.4,355.5c0.8,0.1,1.3,0.4,1.3,1.2c0,0.7-0.4,1.2-1.1,1.2c-0.7,0-1.2-0.4-1.2-1.1
		C222.3,356,222.8,355.6,223.4,355.5z"/>
	<path class="st11" d="M184.2,355.5c0.7,0.1,1.2,0.5,1.2,1.2c0,0.8-0.5,1.1-1.2,1.1c-0.7,0-1.2-0.5-1.2-1.2
		C183.1,355.9,183.5,355.6,184.2,355.5z"/>
	<path class="st14" d="M272.5,411c-0.7-0.1-1.1-0.5-1.1-1.2c0-0.7,0.5-1.2,1.2-1.1c0.7,0,1.2,0.5,1.1,1.2
		C273.7,410.5,273.3,411,272.5,411z"/>
	<path class="st15" d="M317.1,409.8c0,0.7-0.4,1.1-1.2,1.2c-0.7,0-1.1-0.4-1.2-1.1c0-0.7,0.4-1.2,1.1-1.2
		C316.6,408.6,317.1,409,317.1,409.8z"/>
	<path class="st11" d="M284.9,383.1c0.1-0.6,0.5-1,1.2-1c0.7,0,1.1,0.5,1.1,1.1c0,0.7-0.5,1.2-1.2,1.2
		C285.3,384.4,284.9,384,284.9,383.1z"/>
	<path class="st16" d="M297.6,370.2c0.1-0.1,0.1-0.3,0.2-0.4c0.1,0,0.1,0,0.2,0c0,0.7,0,1.5,0,2.2
		C297.5,371.5,298.1,370.7,297.6,370.2z"/>
	<path class="st17" d="M189.6,396.9c0.1-0.2,0.2-0.3,0.2-0.5c0.1,0.5,0.2,1,0,1.5C189.7,397.5,189.9,397.1,189.6,396.9z"/>
	<path class="st18" d="M264.6,415.3c-0.1,0.2-0.1,0.3-0.2,0.5c-0.1-0.5-0.2-1,0-1.5C264.5,414.6,264.3,415,264.6,415.3z"/>
	<path class="st19" d="M293.6,388.9c-0.1,0.2-0.1,0.4-0.4,0.5c0-0.4-0.1-0.7,0.1-1.1C293.5,388.5,293.4,388.7,293.6,388.9z"/>
	<path class="st20" d="M280.5,362.3c-0.1,0.2-0.2,0.3-0.3,0.5c-0.2-0.4-0.1-0.7,0.1-1C280.4,362,280.3,362.2,280.5,362.3z"/>
	<path class="st21" d="M185.2,415.7c-0.1,0.2-0.2,0.4-0.3,0.8c-0.1-0.4-0.1-0.7,0.1-0.9C185,415.6,185.1,415.6,185.2,415.7z"/>
	<path class="st22" d="M306.5,362.6c-0.1,0.2-0.1,0.3-0.2,0.6c-0.2-0.3-0.2-0.5,0-0.7C306.4,362.5,306.4,362.5,306.5,362.6z"/>
	<path class="st23" d="M210.4,417.8c0,1.3,0,2.9-0.8,4.3c-0.6,1-1.3,1.8-2.6,1.8c-1.3,0-2.1-0.5-2.5-1.7c-0.6-1.7-0.6-3.5,0.1-5.2
		c0.6-1.6,1.9-2.2,3.5-2.2c2.2-0.1,2.3,0,2.3,2.2C210.4,417.2,210.4,417.3,210.4,417.8z"/>
	<path class="st23" d="M282.6,315.8c0.9,3.4,2,6.7,3,10.1c0.2,0.5,0,0.6-0.5,0.6c-1.7,0-3.3,0-5,0c-0.3,0-0.7,0.1-0.5-0.4
		C280.6,322.7,281.8,319.3,282.6,315.8z"/>
	<path class="st23" d="M229.7,277.5c0.1,3.5-0.6,6.6-2.6,9.2c-2.5,3.3-5.9,4.6-10,4c-3.7-0.6-6.2-2.8-7.5-6.3
		c-1.6-4.4-1.8-8.9,0-13.3c3-7.3,10.6-7.9,15.1-5.1c2.6,1.7,3.8,4.3,4.5,7.2C229.6,274.7,229.8,276.2,229.7,277.5z"/>
	<path class="st23" d="M260.4,277.6c0-3.8,0.8-7.3,3.5-10.1c4.3-4.6,13.5-4.2,16.3,2.9c2,5,2.2,10.1-0.4,15
		c-3.2,6.3-10.8,6.8-15.1,3.5c-2.6-2-3.6-4.9-4.1-8C260.5,279.8,260.4,278.7,260.4,277.6z"/>
	<path class="st23" d="M186.2,271.2c0-1.9,0-3.8,0-5.7c0-0.8,0.2-1,1-0.9c1.7,0.1,3.5-0.1,5.2,0.2c2.8,0.6,4.4,2.2,4.9,4.6
		c0.5,3-0.1,5.6-2.8,7.3c-2.4,1.6-5.1,1.6-7.8,1.3c-0.6-0.1-0.4-0.5-0.4-0.8C186.2,275.2,186.2,273.2,186.2,271.2z"/>
	<path class="st23" d="M189.8,391.2c0,1.3,0.1,2.5-0.4,3.7c-0.3,0.8-0.7,1.5-1.4,2c-1.6,1.1-3.6,0.5-4.1-1.4c-0.5-1.5-0.4-3.1,0-4.7
		c0.7-2.2,3.5-3.3,5.6-2.3c0.3,0.2,0.3,0.4,0.3,0.6C189.8,389.8,189.8,390.5,189.8,391.2z"/>
	<path class="st23" d="M280.3,368c0-1.2-0.1-2.4,0.4-3.6c0.3-0.9,0.8-1.7,1.7-2.3c1.4-0.9,3.2-0.4,3.8,1.2c0.7,1.9,0.7,3.8-0.2,5.7
		c-0.8,1.7-3.6,2.5-5.3,1.6c-0.3-0.2-0.3-0.4-0.3-0.7C280.3,369.3,280.3,368.6,280.3,368z"/>
	<path class="st23" d="M371.4,390.9c0,1.2,0,2.4-0.3,3.6c-0.3,0.9-0.7,1.6-1.4,2.2c-1.5,1.2-3.5,0.7-4.2-1c-0.7-1.8-0.6-3.6,0.1-5.4
		c0.5-1.3,1.6-1.9,2.9-2c0.3,0,0.5,0,0.8,0c2,0,2,0,2,2C371.4,390.5,371.4,390.7,371.4,390.9z"/>
	<path class="st23" d="M353.1,419.6c0.7-0.2,0.9,0.2,0.8,1c-0.2,1.8-1.6,3.2-3.2,3.3c-0.9,0-1.6-0.3-2-1.2c-0.3-0.9,0-1.7,0.8-2.2
		C350.5,419.8,351.7,419.7,353.1,419.6z"/>
	<path class="st23" d="M296.6,419.7c1.4-0.1,1.4,0,1.1,1.4c-0.4,1.7-1.5,2.7-3,2.9c-1,0.1-1.8-0.3-2-1.2c-0.3-1,0-1.8,0.9-2.3
		C294.5,419.9,295.6,419.7,296.6,419.7z"/>
	<path class="st23" d="M294.8,370.8c-1.3,0-2-0.4-2.3-1.2c-0.3-0.8-0.1-1.5,0.6-2c1.3-1,2.8-0.9,4.3-1.1c0.2,0,0.4,0.1,0.4,0.4
		C297.7,368.7,296.5,370.8,294.8,370.8z"/>
	<path class="st23" d="M225.9,424c-1.1,0-1.8-0.4-2.1-1.2c-0.3-0.8-0.1-1.6,0.6-2.1c1.3-0.9,2.8-1,4.2-1c0.2,0,0.3,0.1,0.3,0.4
		C229.2,421.9,227.4,424,225.9,424z"/>
	<path class="st23" d="M383.2,393c0.5-0.1,0.7,0.3,0.6,0.9c-0.2,1.7-1.3,3.1-2.8,3.4c-1,0.2-2-0.3-2.3-1.1c-0.3-0.9,0-1.8,0.9-2.4
		C380.6,393.2,381.8,393.2,383.2,393z"/>
	<path class="st23" d="M315.3,370.8c-0.9,0-1.5-0.4-1.8-1.2c-0.3-0.8-0.2-1.6,0.6-2.1c1.2-0.9,2.7-0.9,4.2-1c0.3,0,0.4,0.2,0.4,0.4
		C319,368.7,317.2,370.8,315.3,370.8z"/>
	<path class="st23" d="M262.3,392.6c0,1-0.1,2-0.6,2.8c-0.7,1.3-1.7,1.9-3.2,1.8c-1.4-0.1-2.4-0.8-2.8-2.1c-0.5-1.4-0.5-2.9-0.1-4.3
		c0.5-1.8,1.8-2.7,3.6-2.6c1.6,0.1,2.6,1,3,2.9C262.2,391.6,262.3,392.2,262.3,392.6z"/>
	<path class="st23" d="M347.3,392.6c0-0.7,0.1-1.5,0.4-2.3c0.6-1.5,1.8-2.2,3.4-2.1c1.4,0.1,2.4,0.9,2.9,2.4
		c0.4,1.5,0.4,3.1-0.2,4.6c-0.6,1.4-1.7,2.1-3.2,2c-1.5,0-2.5-0.8-3-2.2C347.4,394.3,347.3,393.6,347.3,392.6z"/>
	<path class="st23" d="M321.8,419.6c0-1.1,0.1-1.9,0.4-2.6c0.6-1.4,1.9-2.3,3.3-2.2c1.6,0.1,2.7,1,3.1,2.6c0.3,1.2,0.3,2.3,0,3.5
		c-0.5,2-1.8,3-3.6,2.9c-1.7-0.1-2.9-1.3-3.1-3.3C321.8,420.2,321.8,419.7,321.8,419.6z"/>
	<path class="st23" d="M243.1,419.2c0,0.8,0,1.8-0.5,2.8c-0.6,1.3-1.6,2-3.1,1.9c-1.4,0-2.5-0.7-3-2c-0.6-1.5-0.6-3-0.1-4.6
		c0.5-1.7,2-2.6,3.5-2.5c1.7,0.2,2.8,1.3,3.1,3.1C243,418.2,243,418.6,243.1,419.2z"/>
	<path class="st23" d="M330.9,366.2c0-1.1,0.1-2.2,0.8-3.1c0.8-1.1,1.9-1.5,3.2-1.4c1.3,0.1,2.2,0.9,2.6,2.1c0.5,1.5,0.6,3.1,0,4.7
		c-0.5,1.5-1.8,2.4-3.2,2.3c-1.6,0-2.7-1-3.2-2.6C331,367.5,331,366.9,330.9,366.2z"/>
	<path class="st23" d="M268,365.9c0,1.2-0.2,2.1-0.6,3c-0.6,1.2-1.6,1.9-3,1.9c-1.4,0-2.5-0.7-3-2.1c-0.6-1.6-0.7-3.3,0-4.9
		c0.6-1.5,1.9-2.2,3.5-2.1c1.4,0.1,2.5,1,2.9,2.6C267.9,364.9,268,365.5,268,365.9z"/>
	<path class="st23" d="M195.2,417.8c-0.8,0-1.5,0-2.3,0c-0.3,0-0.6,0-0.5-0.5c0.2-1.4,1.5-2.6,3-2.6c1.5,0,2.6,0.9,2.8,2.4
		c0.1,0.6-0.1,0.7-0.6,0.7C196.8,417.7,196,417.8,195.2,417.8z"/>
	<path class="st0" d="M221.8,391.2c-0.8,0-1.5,0-2.3,0c-0.4,0-0.6-0.1-0.6-0.6c0.1-1.3,1.4-2.5,2.7-2.6c1.4-0.1,2.5,0.7,2.9,2.1
		c0.2,0.7,0.1,1.1-0.8,1.1C223.2,391.2,222.5,391.2,221.8,391.2z"/>
	<path class="st0" d="M199.9,391.2c-0.8,0-1.5,0-2.3,0c-0.4,0-0.6,0-0.6-0.5c0.1-1.3,1.5-2.6,2.9-2.6c1.4,0,2.6,0.9,2.8,2.3
		c0.1,0.6,0,0.9-0.7,0.9C201.4,391.2,200.7,391.2,199.9,391.2z"/>
	<path class="st0" d="M316,391.2c-0.8,0-1.5,0-2.3,0c-0.4,0-0.5-0.1-0.5-0.5c0.1-1.3,1.5-2.5,2.8-2.6c1.5-0.1,2.6,0.8,2.9,2.3
		c0.1,0.6,0,0.9-0.7,0.9C317.6,391.2,316.8,391.2,316,391.2z"/>
</g>
</svg>
