<?xml version="1.0" encoding="utf-8"?>
<!-- Generator: Adobe Illustrator 24.0.1, SVG Export Plug-In . SVG Version: 6.00 Build 0)  -->
<svg version="1.1" id="Layer_1" xmlns="http://www.w3.org/2000/svg" xmlns:xlink="http://www.w3.org/1999/xlink" x="0px" y="0px"
	 viewBox="0 0 550 550" style="enable-background:new 0 0 550 550;" xml:space="preserve">
<style type="text/css">
	.st0{fill:#FEFEFE;}
	.st1{fill:#4B3E27;}
	.st2{fill:#FFFEFE;}
	.st3{fill:#74AE4F;}
	.st4{fill:#3B685A;}
	.st5{fill:#E2A136;}
	.st6{fill:#75AE4F;}
	.st7{fill:#75AE50;}
	.st8{fill:#443925;}
	.st9{fill:#463A26;}
	.st10{fill:#3F3523;}
	.st11{fill:#597F3F;}
	.st12{fill:#3D3322;}
	.st13{fill:#352D1E;}
	.st14{fill:#77AF52;}
	.st15{fill:#2F291B;}
	.st16{fill:#639548;}
	.st17{fill:#263F3C;}
	.st18{fill:#3A6256;}
	.st19{fill:#362E1F;}
	.st20{fill:#2E271A;}
	.st21{fill:#70AA50;}
	.st22{fill:#35564D;}
	.st23{fill:#D49533;}
	.st24{fill:#385C52;}
	.st25{fill:#BB812C;}
	.st26{fill:#DD9D35;}
	.st27{fill:#233C39;}
	.st28{fill:#6DA54F;}
	.st29{fill:#699E4D;}
	.st30{fill:#C78A2E;}
	.st31{fill:#325049;}
	.st32{fill:#516F39;}
	.st33{fill:#2A4541;}
	.st34{fill:#D99933;}
	.st35{fill:#2E4A44;}
	.st36{fill:#B37A2C;}
	.st37{fill:#506D38;}
	.st38{fill:#6AA14E;}
	.st39{fill:#CA8C2F;}
	.st40{fill:#AC742A;}
	.st41{fill:#5B8341;}
	.st42{fill:#A06B29;}
	.st43{fill:#56793C;}
	.st44{fill:#27403D;}
	.st45{fill:#6DA64F;}
	.st46{fill:#C1852C;}
	.st47{fill:#946227;}
	.st48{fill:#679B4B;}
	.st49{fill:#CD8F31;}
	.st50{fill:#649548;}
	.st51{fill:#619046;}
	.st52{fill:#5E8A44;}
	.st53{fill:#A7702A;}
	.st54{fill:#B47B2C;}
	.st55{fill:#A06A29;}
	.st56{fill:#956227;}
	.st57{fill:#885C27;}
	.st58{fill:#FFFFFF;}
	.st59{fill:#79AF50;}
	.st60{fill:#7CB151;}
	.st61{fill:#83B453;}
	.st62{fill:#88B755;}
	.st63{fill:#8EB957;}
	.st64{fill:#4E4129;}
	.st65{fill:#53452C;}
	.st66{fill:#57472F;}
	.st67{fill:#5C4D31;}
	.st68{fill:#3F6A5D;}
	.st69{fill:#427063;}
	.st70{fill:#406C5F;}
	.st71{fill:#46756A;}
	.st72{fill:#48796F;}
	.st73{fill:#497D74;}
	.st74{fill:#E3A639;}
	.st75{fill:#E4AA3B;}
	.st76{fill:#E6AF3D;}
	.st77{fill:#E8B341;}
	.st78{fill:#DD9C35;}
	.st79{fill:#E9B745;}
	.st80{fill:#AE752B;}
	.st81{fill:#FDFDFD;}
	.st82{fill:#FDFDFC;}
	.st83{fill:#FCFDFA;}
	.st84{fill:#F7F9F4;}
	.st85{fill:#BB802C;}
</style>
<g>
	<path class="st0" d="M434.4,419.6c-104.2,0-208.5,0-312.7,0c0.1-1.3,1.3-1.2,2-1.4c1.5-0.5,3.1-1,4.5-1.9c1.5-0.9,2.1-2.9,1.3-4.2
		c-1-1.6-2.4-1.1-3.7-0.4c-4.5,2.1-9.1,2.3-13.8,1.3c-8.4-1.9-12.8-8.7-11.9-18c0.7-7.8,7.2-14,14.9-14.4c3.5-0.2,6.8,0.4,9.9,1.7
		c1.3,0.5,2.9,1.3,3.8-0.4c0.9-1.5,0.1-3.5-1.8-4.4c-12.3-5.9-27.6-0.7-31.6,12.6c-0.3,0.9-0.2,2.1-1.6,2.3
		c0-100.5,0-201.1-0.1-301.6c0-2.1,0.5-2.3,2.4-2.3c119.1,0.1,238.4,0.1,357.5,0c1.9,0,2.4,0.3,2.4,2.3
		c-0.1,108.9-0.1,217.8,0,326.7c0,1.8-0.4,2.3-2.2,2.2c-3.1-0.2-6.4-0.1-9.5-0.1c0.2-1.3,1.3-1.2,2.1-1.4c6.5-2.2,9-6.5,7.8-13.3
		c-0.6-3.5-3-5.6-5.8-7.3c-3-1.8-6.3-2.7-9.5-3.8c-1.9-0.6-3.8-1.3-5.6-2.4c-2-1.2-3-2.8-2.9-5.2c0.2-2.4,1.6-3.8,3.8-4.7
		c3-1.3,6-1.1,9-0.4c1.7,0.3,3.2,1,4.8,1.5c1.3,0.4,2.6,0.9,3.4-0.6c0.7-1.3,0.1-3.4-1.3-4.2c-2.5-1.4-5.3-2-8.1-2.4
		c-3.8-0.5-7.4-0.1-10.9,1.5c-4,1.9-6,4.9-6.3,9.3c-0.3,4.6,2,7.7,5.7,9.9c2.6,1.5,5.5,2.5,8.3,3.4c2.3,0.7,4.7,1.5,6.7,2.8
		c3.6,2.2,4.5,5.9,2.2,8.6c-1.3,1.6-3.1,2.3-5.1,2.5c-4.4,0.4-8.8,0.2-12.9-1.7c-0.6-0.3-1.2-0.5-1.8-0.7c-1.3-0.4-2.7-0.7-3.4,0.8
		c-0.6,1.4-0.4,3,1.1,3.8c1.8,1.3,3.8,1.7,5.8,2.3C433,418.3,434.3,418.2,434.4,419.6z"/>
	<path class="st1" d="M434.4,419.6c-2.5-1.3-5.5-1.6-8.1-3c-1.4-0.7-2.2-1.7-2.2-3.4c0-3.1,1.7-4.3,4.6-3c4.3,2.1,8.9,3,13.6,2.5
		c1.1-0.1,2.1-0.3,3-0.6c3.9-1.3,4.7-5.7,1.6-8.5c-2.1-2-5-2.6-7.6-3.6c-2.8-1-5.6-1.8-8.1-3.2c-5.3-3-7.4-6.9-6.6-12.5
		c0.8-5.2,4.4-8,9.1-9.3c5.9-1.6,11.7-0.7,17.2,1.9c1.9,0.9,2.7,3.8,1.6,5.4c-1.2,1.9-2.8,1.4-4.5,0.6c-4.1-1.9-8.3-2.6-12.7-1.3
		c-2.1,0.5-3.7,1.7-4,4c-0.4,2.4,0.8,4,2.9,5.2c3.2,1.8,6.8,2.6,10.1,3.9c1.6,0.6,3.3,1.3,4.8,2.1c5.2,3,7.1,7,6.1,13.2
		c-0.6,4.3-4.3,7.7-9.5,8.9c-0.4,0.1-1-0.1-1.3,0.5C441.2,419.6,437.8,419.6,434.4,419.6z"/>
	<path class="st1" d="M94.1,392.4c0.8-0.7,0.7-1.7,1-2.6c4.7-14.9,21.7-18.8,33.4-12.5c1.7,0.9,2.4,3.7,1.3,5.3
		c-1.2,1.7-2.7,1.3-4.3,0.6c-4.4-2.1-9-2.7-13.7-1.3c-7.9,2.4-12.3,9.9-10.8,18.5c1.3,7.8,7.7,12.7,16.3,12.5
		c3.1-0.1,6.1-0.6,8.9-2.1c1.6-0.9,3.1-0.9,4.2,0.8c1,1.6,0.3,4.2-1.3,5.2c-2.2,1.4-4.9,1.8-7.3,2.9c-3.4,0-6.8,0-10.2,0
		c-6.6-1.2-11.7-4.5-15.2-10.3c-1.3-2.1-1.7-4.5-2.3-6.7C94.1,399.2,94.1,395.8,94.1,392.4z"/>
	<path class="st2" d="M94.1,402.6c0.4,0.1,0.4,0.4,0.5,0.7c2.1,8.2,7.5,13.2,15.6,15.7c0.4,0.2,1.2-0.1,1.4,0.7
		c-5.5,0-10.8,0-16.3,0c-1.1,0-1.3-0.2-1.3-1.3C94.1,413.1,94.1,407.8,94.1,402.6z"/>
	<path class="st3" d="M299.8,180.8c4.6,4.5,9.1,8.9,13.6,13.3c5.5,5.3,11.2,10.4,16.5,15.8c4.2,4.2,8.3,8.4,12.5,12.5
		c6.2,6.1,14.1,7.2,21.6,3.1c6.5-3.5,10.3-11.9,8.6-19.1c-2.1-8.6-8.5-13.7-16.7-14c-5.6-0.2-10,1.7-13.8,5.8
		c-1.3,1.3-2.3,3-4.2,3.6c-2.6-2-4.5-4.6-6.6-6.9c-3-3.1-6.2-6.1-9.1-9.3c7.8-9,17.2-14.9,29.4-16.2c20.8-2.2,40.8,13,44,33.6
		c3.7,23.5-11.5,44.5-35.3,47.5c-12.8,1.7-24.2-2.2-33.6-11.3c-4.5-4.3-8.9-8.8-13.2-13.2c-2.7-1.7-4.7-4.1-6.8-6.5
		c-3-3.3-6-6.5-9.5-9.4c-4.2-3.9-8.1-8.1-12.2-12.1c-0.5-0.5-1-1.1-1.1-1.8c0.1-1,0.7-1.6,1.4-2.1c4.6-3.8,8.4-8.1,12.7-12.3
		C298.5,181.5,299,180.9,299.8,180.8z"/>
	<path class="st1" d="M305.6,233.9c-4.3,4.4-8.6,8.7-12.9,13.1c-0.6,0.6-1.4,1.1-1.7,2c-0.2,1.1-1.1,1.6-1.7,2.2
		c-4.7,4.7-9.5,9.5-14.1,14.2c-4.4,4.4-8.8,8.6-13,13.1c-5,5.3-6.4,11.5-3.7,18.4c2.7,7,8.9,11.2,16,11.2
		c7.8,0.1,13.4-3.5,16.6-10.5c3.1-7.2,1.6-13.7-3.6-19.5c-1.3-1.5-3.1-2.6-3.9-4.6c0-0.6,0.4-1.1,0.8-1.4c5-4.9,9.8-10,14.9-14.9
		c7.8,6.9,13.5,14.9,15.8,25.4c4.5,21.3-10.1,43.8-31.4,47.9c-22.8,4.5-43.6-8.8-48.7-31.4c-3.1-14,0.6-26.4,10.4-36.9
		c4.3-4.6,9-9,13.4-13.4c2.2-3,5.2-5.4,7.7-8.1c2.7-2.9,5.8-5.4,8.2-8.6c4.3-4.6,8.9-9,13.3-13.4c0.5-0.5,1.1-1.3,2.1-1.1
		c4.6,4.7,9.2,9.2,13.9,13.9C304.5,232.3,305.3,232.8,305.6,233.9z"/>
	<path class="st4" d="M250.1,239.8c-4.6-4.5-9.1-9-13.7-13.5c-4.7-4-9-8.8-13.4-13.1c-1.1-1-2-2.1-3.4-2.7
		c-4.1-4.4-8.4-8.6-12.6-12.7c-4.8-4.7-10.7-6.3-17.3-4.5c-6.7,1.8-11,6.4-12.5,13.2c-1.7,7.5,1.8,15.5,8.4,19.1
		c7.3,4,15.2,3,21-2.7c1.3-1.3,2.4-3.1,4.4-3.7c4.4,5.6,10.6,9.3,14.5,15.3c0.3,0.4,0.7,0.8,0.9,1.4c-19.2,22.5-53.4,19.6-67.8-5.8
		c-13.5-23.9,0.4-54.5,27.5-59.9c14.5-2.9,26.9,1.1,37.5,11.4c4.2,4.1,8.3,8.3,12.5,12.5c2.6,1.4,4.2,3.9,6.4,5.8
		c0.9,0.8,1.7,1.7,2.6,2.5c2.4,2.3,4.6,4.9,7.3,7c0.2,0.1,0.4,0.3,0.5,0.4c4.1,3.9,8.1,8.1,12.2,12.1c0.6,0.6,1.4,1.2,1.2,2.2
		C260.2,228.7,255.6,234.6,250.1,239.8z"/>
	<path class="st5" d="M248.7,161.3c-12.6-11.3-17.5-25.3-13.4-41.7c4-16.1,14.9-26.4,31.2-29.8c24.7-5.2,46,12.2,48.9,34.4
		c1.8,13.7-2.4,25.3-12,35.1c-4.1,4.1-8.2,8.2-12.4,12.4c-0.3,1.1-1.2,1.7-1.9,2.5c-4.7,4.7-9.2,9.2-13.9,13.9
		c-3.9,3.9-7.9,7.9-11.8,11.8c-0.7,0.7-1.3,1.7-2.5,1.7c-3.2-3-5.7-6.5-8.6-9.8c-2.1-2.4-4.4-4.5-5.9-7.3c4.1-4.2,8.3-8.4,12.4-12.6
		c1.3-2.2,3.5-3.7,5.1-5.7c1.1-0.9,2.1-1.9,3-2.9c1.1-0.9,1.7-2.1,2.9-3c1-0.6,1.8-1.5,2.6-2.3c0.9-0.8,1.8-1.7,2.4-2.7
		c4-4.5,8.4-8.5,12.6-12.8c5.4-5.5,6.7-11.9,3.9-19c-2.7-7-8.3-10.8-15.7-11.2c-7.3-0.4-13,3.1-16.4,9.7c-3.2,6.2-2.6,12.4,1.3,18.2
		c1.3,2,3,3.6,4.7,5.3c0.7,0.7,1.6,1.3,1.8,2.5c-2.2,2.5-5.5,3.6-8.2,5.3c-3,1.8-5.5,3.8-7.6,6.5
		C250.4,160.2,249.8,161.1,248.7,161.3z"/>
	<path class="st1" d="M284.8,403.7c3.7,3.3,7.4,6.5,11.1,9.8c2.1,1.9,2.2,3.4,0.9,4.7c-1.2,1.2-4.4,1.2-5.7-0.3
		c-4-4.1-8.1-8.2-11.8-12.5c-1.5-1.7-3.1-2.1-5.3-2.1c-5.6,0.1-5.6,0-5.6,5.5c0,2.3,0.1,4.7,0,7.1c-0.1,2.3-1.1,3-3.7,3.1
		c-2.1,0-3.1-1-3.1-3c0-12.6,0-25.2,0-37.9c0-1.8,0.7-3.2,2.5-3.1c6.3,0.1,12.6-0.7,18.9,0.4c8.7,1.6,13.6,9.1,11.7,17.5
		C294,397.2,291.7,399.5,284.8,403.7z"/>
	<path class="st1" d="M156.3,408.3c-2.8,0-5.6,0.1-8.2,0c-1.5-0.1-2.3,0.4-3,1.8c-0.9,2.4-2.1,4.7-3.2,7.1c-0.9,1.9-3.5,2.9-5.4,1.8
		c-2-1.2-1.7-2.8-0.9-4.6c5.6-12.2,11.2-24.3,16.7-36.5c0.8-1.8,1.8-3,3.9-2.9c2.1,0,3,1.1,3.8,2.8c5.6,12.3,11.2,24.5,16.8,36.7
		c0.8,1.7,1.2,3.3-0.8,4.4c-1.8,1.1-4.5,0.3-5.4-1.6c-1.2-2.5-2.3-4.9-3.4-7.5c-0.4-1.2-1.2-1.5-2.4-1.5
		C162.2,408.3,159.3,408.3,156.3,408.3z"/>
	<path class="st1" d="M250,419.1c-1.6,0.3-2.7-0.5-3.4-2.2c-1.1-2.4-2.2-4.8-3.3-7.3c-0.4-1.1-1.1-1.4-2.2-1.4
		c-5.9,0.1-11.8,0.1-17.7,0c-1.2,0-1.7,0.4-2.1,1.4c-1,2.4-2.1,4.8-3.3,7.3c-1,2.1-3.5,3-5.5,1.9c-2.1-1.2-1.5-2.9-0.7-4.6
		c5.7-12.3,11.4-24.6,17-37c0.7-1.6,1.7-2.3,3.5-2.4c1.9,0,3,0.6,3.8,2.3c5.6,12.4,11.4,24.8,17,37.2
		C254.3,417.3,253.2,419.1,250,419.1z"/>
	<path class="st1" d="M398.6,408.3c-2.7,0-5.4,0.2-8-0.1c-2.1-0.2-3,0.7-3.8,2.5c-0.9,2.1-1.9,4.3-2.9,6.4c-0.9,1.9-3.5,2.9-5.3,1.9
		c-2-1.1-1.8-2.8-0.9-4.6c5.6-12.2,11.3-24.4,16.8-36.7c0.8-1.7,1.7-2.8,3.8-2.8c2.1,0,3.1,1.1,3.9,2.9
		c5.6,12.2,11.1,24.3,16.7,36.5c0.8,1.8,1.3,3.4-0.8,4.6c-1.9,1.1-4.5,0.2-5.5-1.9c-1.1-2.2-2.2-4.5-3-6.8c-0.6-1.5-1.5-2-3.1-1.9
		C403.9,408.4,401.3,408.3,398.6,408.3z"/>
	<path class="st1" d="M340.3,419.1c-1.6,0.3-2.7-0.5-3.4-2.1c-1.1-2.4-2.2-4.8-3.3-7.3c-0.4-1.1-1.1-1.4-2.2-1.4
		c-5.9,0.1-11.8,0.1-17.7,0c-1.2,0-1.7,0.4-2.1,1.4c-1.1,2.5-2.2,5-3.4,7.5c-0.9,1.9-3.5,2.7-5.4,1.6s-1.6-2.7-0.8-4.4
		c5.6-12.4,11.4-24.6,17-37c0.7-1.6,1.7-2.6,3.7-2.6c1.9,0,3,0.7,3.8,2.4c5.6,12.4,11.4,24.8,17,37.1
		C344.6,417.4,343.5,419.1,340.3,419.1z"/>
	<path class="st1" d="M357.1,399.7c0-5.5-0.1-10.8,0-16.3c0-1.3-0.4-1.8-1.8-1.7c-3.2,0.1-6.4,0.1-9.8,0c-2.6,0-3.6-1-3.6-3.4
		c0-2.3,1-3.3,3.5-3.3c9.8,0,19.8,0,29.6,0c2.6,0,3.7,1,3.7,3.4c0,2.3-1.1,3.3-3.8,3.3c-3,0-5.8,0.1-8.8,0c-2-0.1-2.6,0.4-2.6,2.4
		c0.1,10.5,0.1,20.9,0.1,31.3c0,3-0.9,3.8-3.8,3.7c-2.1,0-3-1.1-3-3.2C357.2,410.5,357.1,405.1,357.1,399.7z"/>
	<path class="st1" d="M197.7,399.7c0,5.3,0,10.6,0,15.8c0,2.8-0.8,3.6-3.3,3.7c-2.6,0-3.6-0.9-3.6-3.7c0-10.5-0.1-20.9,0.1-31.3
		c0-2.1-0.6-2.6-2.5-2.4c-3,0.2-6,0.1-9,0c-2.5,0-3.3-0.9-3.3-3.4c0-2.4,0.9-3.3,3.4-3.3c9.8,0,19.8,0,29.6,0c2.6,0,3.6,1,3.6,3.5
		c0,2.4-0.9,3.3-3.4,3.3c-3.1,0-6.4,0.1-9.5,0c-1.6-0.1-2.1,0.4-2.1,2C197.8,388.9,197.7,394.3,197.7,399.7z"/>
	<path class="st6" d="M112.6,359.8c0,4.2-0.4,4.7-4.7,4.8c-5.5,0.2-8.9-3-9-7.9c-0.4-7.7,7.3-9.7,12.5-7.7c1.8,0.6,1.1,2.3,0.9,3.4
		c-0.3,1.5-1.3,0.2-1.9,0.1c-4.5-1.3-7.5,0.8-7.2,4.9c0.2,1.6,1.1,2.7,2.5,3.3c2.1,0.9,2.8,0.4,3-2c0.1-1.2-1.3-3,1.5-3.2
		c1.9-0.1,2.7,0.4,2.4,2.4C112.5,358.5,112.6,359.1,112.6,359.8z"/>
	<path class="st7" d="M143.2,364c-0.4,1-0.3,2-0.3,3c0.1,1.5-0.1,2.3-2,2.3c-2,0-2.1-0.9-2-2.3c0.1-3.7,0.2-7.4,0-11.1
		c-0.1-2.1,0.9-2.6,2.5-2.1c1.3,0.4,2.2,0.2,3.5-0.2c2.1-0.6,4,0.1,5.3,1.9c1.4,1.9,1.4,5,0.1,7.1c-1.3,1.9-3.1,2.5-5.3,2.1
		C144.5,364.4,143.9,364.2,143.2,364z"/>
	<path class="st6" d="M152.9,358.9c0-3.5,2.4-5.9,6-5.8c3.6,0,6.1,2.5,6.1,5.8c0,3.3-2.5,5.6-6,5.6
		C155.2,364.6,152.9,362.5,152.9,358.9z"/>
	<path class="st7" d="M136.4,359c0,0.5,0,1.2,0,1.7c0,3.6,0,3.5-3.6,3.1c-0.4,0-0.9,0.3-1.3,0.4c-3.5,1.2-5.9-0.4-6.1-4.1
		c-0.1-1.4,0.1-3,0-4.4c-0.1-1.5,0.2-2.3,2.1-2.3c2,0,2.1,0.9,2,2.3c-0.1,1.3,0,2.6,0,3.8c0,0.9,0.5,1.6,1.4,1.6
		c1,0,1.7-0.4,1.7-1.6c0-1.3,0.1-2.6,0-3.8c-0.1-1.5,0.2-2.2,2.1-2.3c2.1,0,2,1,1.9,2.4C136.4,356.8,136.4,357.9,136.4,359z"/>
	<path class="st8" d="M305.6,233.9c-5.3-4.7-10-9.9-15-14.9c-0.3-0.3-0.4-0.9-0.5-1.3c0.2-1.5,1.1-2.2,2.5-2.5c2.3,1.5,4,3.7,6,5.6
		c3.4,3.3,6.8,6.7,10.1,10.1C307.7,232,306.8,233.1,305.6,233.9z"/>
	<path class="st9" d="M299.3,257.3c-0.1,0.3-0.1,0.7-0.3,0.9c-5.1,5.1-9.9,10.4-15.4,15.1c-1.7-0.4-2.7-1.3-3-3
		c4.7-4.6,9.2-9.2,13.9-13.8c0.7-0.6,1.3-1.5,2.2-1.7C297.7,255.5,298.6,256.3,299.3,257.3z"/>
	<path class="st10" d="M296.8,254.8c-4.9,5-9.8,10-14.9,15c-0.3,0.3-0.9,0.4-1.3,0.5c-1.4-0.2-2.3-1-2.4-2.5
		c4.7-4.6,9.2-9.2,13.9-13.8c0.7-0.6,1.3-1.5,2.2-1.7C295.3,253.1,296.2,253.8,296.8,254.8z"/>
	<path class="st11" d="M314.3,193.4c0.6-0.6,1.3-1.3,2-2c1.1-0.6,1.7,0.1,2.2,0.7c4.1,4.7,8.7,8.9,12.9,13.3c0.5,0.5,0.9,1.2,0.8,2
		c-0.4,1.2-1,2-2.2,2.1C324.7,204.4,319.2,199.2,314.3,193.4z"/>
	<path class="st12" d="M308.6,230.9c-0.3-0.1-0.7-0.1-0.9-0.3c-5.1-5.1-10.5-9.9-15.2-15.4c0.1-1.3,0.8-1.9,2.1-2
		c2.8,2,4.9,4.7,7.3,7c3,2.9,5.9,5.7,8.7,8.7C310,229.8,309.3,230.5,308.6,230.9z"/>
	<path class="st13" d="M294.4,252.3c-4.9,5-9.9,10-14.9,15c-0.3,0.3-0.9,0.4-1.3,0.5c-1.3-0.2-2-0.8-1.9-2.1c4.7-4.5,9-9,13.6-13.5
		c0.7-0.7,1.3-1.6,2.5-1.8C293.4,250.8,293.9,251.6,294.4,252.3z"/>
	<path class="st14" d="M115.1,358.7c0-1.1,0.1-2.1,0-3.1c-0.4-2.1,0.9-2.4,2.4-2c1.3,0.4,2.3,0.3,3.5-0.2c0.7-0.3,1.9-0.6,1.7,0.7
		c-0.1,0.9,1.1,2.6-1.1,2.8c-2.1,0.2-2.8,1.3-2.6,3.3c0.1,0.7-0.1,1.4,0,2.1c0.2,1.5-0.4,2-1.9,2c-1.4,0-2.3-0.3-2.1-2
		C115.3,361.1,115.1,359.9,115.1,358.7z"/>
	<path class="st15" d="M297.4,210c3.1,1.9,5.4,4.8,7.8,7.4c2.8,2.9,5.9,5.5,8.2,8.8c-0.5,0.4-1.1,0.9-1.6,1.3
		c-0.8,0.5-1.2-0.1-1.6-0.5c-4.2-4.4-8.6-8.6-12.9-13c-0.6-0.7-1.4-1.3-1.3-2.4C296.1,210.8,296.5,210.2,297.4,210z"/>
	<path class="st16" d="M331.8,207.6c0-0.6-0.4-1.1-0.7-1.4c-4.4-4.4-8.8-8.7-12.9-13.3c-0.5-0.6-1.1-1.3-2-1.3c0.6-0.6,1.3-1.3,2-2
		c1.1-0.6,1.4,0.3,2,0.8c4.6,4.1,8.1,9.2,13,13.1c0.6,0.5,1.2,1.2,1,2.1C333.6,206.6,333.4,207.8,331.8,207.6z"/>
	<path class="st17" d="M274.9,232.6c0,0.2,0,0.4-0.1,0.4c-5.2,5.5-10.3,11-16.1,15.8c-0.4-0.6-0.9-1.2-1.3-1.8
		c-0.4-0.9,0.3-1.3,0.8-1.9c4.6-4.6,9.5-8.9,14.1-13.5c0.4-0.4,0.8-0.5,1.3-0.6C274.3,231.2,274.8,231.7,274.9,232.6z"/>
	<path class="st18" d="M250.1,239.8c0.1-0.3,0.1-0.7,0.3-0.9c5.3-4.9,9.3-11.1,15.8-14.7c1.2-0.4,1.5,0.4,1.7,1.3
		c-1.1,2.3-3.3,3.6-5.1,5.1c-3.3,2.8-5.9,6.2-9,9.1c-0.6,0.6-1.2,1.3-2.1,1.6C251.1,240.7,250.6,240.3,250.1,239.8z"/>
	<path class="st19" d="M296.3,211.4c0.1,0.4,0.2,0.9,0.4,1.1c5,5,10,10,15,15c-0.2,0.7-0.8,1.1-1.3,1.4c-0.3-0.1-0.7-0.1-0.9-0.3
		c-5.1-5.1-10.4-9.9-15.1-15.4C294.4,212.1,295.1,211.4,296.3,211.4z"/>
	<path class="st20" d="M292.5,250.6c-4.8,4.9-9.7,9.8-14.5,14.7c-0.4,0.4-1,0.8-1.7,0.9c-0.7,0-1.2-0.4-1.3-1.1
		c5.2-5.5,10.5-10.9,16-16C291.8,249.2,291.7,250.1,292.5,250.6z"/>
	<path class="st21" d="M322.1,185.7c0.6,0,1.1,0.4,1.4,0.7c4.6,4.7,9.1,9.4,13.6,14.1c0.3,0.3,0.3,0.7,0.4,1.1
		c0.3,1.2-0.6,1.2-1.3,1.3c-2.3-0.5-3.5-2.5-4.9-4c-2.9-3.4-6.1-6.4-9.1-9.6c-0.6-0.7-1.5-1.3-1.7-2.2
		C321,186.5,321.5,186.1,322.1,185.7z"/>
	<path class="st18" d="M226.5,235.9c-2.2-1.4-3.2-3.9-5.1-5.7c-2.7-2.6-5.5-5.2-8.2-7.8c-0.9-0.8-1.7-1.7-1.9-3
		c-0.4-1.2,0.4-1.5,1.3-1.7c4.4,4.3,8.9,8.6,13,13.2c0.9,1,1.9,2,2.7,3C228,234.8,227.2,235.3,226.5,235.9z"/>
	<path class="st21" d="M299.8,180.8c-4.1,4.5-8.3,8.9-12.9,12.9c-1,0.9-2.1,1.7-2.8,3c-1.3-0.3-2.3-0.7-2.4-2.1
		c3.2-2.5,6.3-5.3,9-8.4c2.2-2.5,5.3-4.2,7.3-7.1C298.7,179.3,299.3,180,299.8,180.8z"/>
	<path class="st22" d="M254.5,244.2c-0.8-0.5-1.4-1.2-2-2c-0.3-0.7,0.2-1.3,0.6-1.7c4.2-3.4,7.7-7.6,11.6-11.2
		c1.3-1.1,2.3-2.5,4.2-2.5c0.8,0.3,1.6,0.6,1.6,1.7C265.2,233.6,259.9,238.9,254.5,244.2z"/>
	<path class="st22" d="M231.3,231c-0.3,0.8-1.1,0.9-1.6,1.3c-1.2,0.7-1.9-0.3-2.4-0.9c-3.9-4.6-8.3-8.7-12.5-13.1
		c-0.5-0.6-1.1-1.3-1-2.1c0.3-0.9,0.7-1.5,1.8-1.6c2.2,1,3.1,3.2,4.7,4.7C224.1,223.3,227.8,227,231.3,231z"/>
	<path class="st23" d="M251.1,163.7c-0.6-0.4-1.1-0.8-1.4-1.4c-0.6-1,0.3-1.3,0.8-1.7c5.8-3.4,11.6-6.8,17.5-10.1
		c0.5-0.3,1.1-0.4,1.6-0.3c0.9,0.3,1.6,0.8,1.6,1.9c-3.7,2.6-7.8,4.6-11.6,6.9C256.8,160.7,254.1,162.4,251.1,163.7z"/>
	<path class="st24" d="M214.1,216.4c0,0.5,0.3,0.9,0.6,1.3c4.5,4.5,9,8.9,13.2,13.6c0.4,0.5,1,1.1,1.8,1.1c0,1-1,0.9-1.4,1.4
		c-0.8,0-1.3-0.5-1.8-1.1c-3.8-4.7-8.3-8.6-12.4-12.9c-0.5-0.5-0.9-1.3-1.3-2C212.5,216.7,213,216.3,214.1,216.4z"/>
	<path class="st23" d="M242.9,187.7c0.4-0.6,0.8-1.1,1.4-1.4c2.3,0.9,3.3,3.1,4.7,4.8c2.8,3.1,5.4,6.4,8.1,9.6
		c0.7,0.9,1.6,1.8,1.5,3.1c-0.2,0.6-0.5,1.1-1.3,1.2c-2-0.9-3-2.8-4.3-4.4c-2.9-3.6-6.1-6.8-8.9-10.5
		C243.8,189.4,243,188.7,242.9,187.7z"/>
	<path class="st25" d="M254.5,167.2c-0.5-0.4-1.2-0.7-1.4-1.4c-0.6-0.8,0.1-1.2,0.5-1.5c5.6-3.7,11.6-6.8,17.5-10.3
		c0.5-0.4,1.3-0.4,1.9-0.3c0.6,0.2,1.1,0.5,1.2,1.3c-0.9,1.9-2.8,2.4-4.4,3.3C264.7,161.2,259.6,164.2,254.5,167.2z"/>
	<path class="st26" d="M246.4,184.3c4.2,3.8,7.3,8.3,11,12.5c1.3,1.4,2.7,2.8,3.5,4.6c0,1-0.5,1.5-1.6,1.4
		c-5-5.6-9.6-11.4-14.4-17.1C245.2,185.1,245.7,184.7,246.4,184.3z"/>
	<path class="st27" d="M219.9,210.4c0.5-0.3,1-0.2,1.5,0.3c4.9,4.9,9.8,9.8,14.7,14.8c0.2,0.2,0.2,0.4,0.3,0.6
		c-0.4,0.3-0.9,0.5-1.3,0.8c-1.9,0.1-2.7-1.5-3.6-2.6c-3.3-3.9-7.1-7.3-10.7-11c-0.6-0.7-1.5-1.3-1.6-2.3
		C219.3,210.7,219.5,210.4,219.9,210.4z"/>
	<path class="st28" d="M320.7,187.2c4.8,4.1,9,9,13.4,13.6c0.7,0.7,1.3,1.6,2.4,2.1c0.2,1.3-0.4,1.8-1.6,2
		c-5.5-5.2-10.2-11-15.7-16.2C319.5,188,320,187.5,320.7,187.2z"/>
	<path class="st24" d="M268.9,227.1c-1.3,0.5-2.5,1.4-3.5,2.5c-4.3,4.2-8.6,8.4-12.9,12.6c-0.4-0.4-0.6-0.6-1-1
		c4.1-4.5,8.1-9.1,12.9-12.9c1.1-0.8,2.1-1.9,3-2.8C268.4,225.7,269.3,225.8,268.9,227.1z"/>
	<path class="st29" d="M319.1,188.6c0.7,0,1.2,0.4,1.6,0.9c4.5,4.7,9,9.3,13.4,14c0.3,0.3,0.4,0.7,0.4,1.1c0.2,0.9,0,1.3-1,0.9
		c-0.4-1.9-2.4-2.2-3.5-3.6c-3.4-4.1-7.3-7.7-11-11.6c-0.4-0.4-0.6-0.7-1.2-0.7C318.5,189.2,318.9,189,319.1,188.6z"/>
	<path class="st30" d="M273,154.1c-3,0.4-5.1,2.6-7.7,3.9c-4,2.1-8,4.6-11.9,7c-0.3,0.2-0.3,0.5-0.4,0.8c-0.4-0.4-0.6-0.7-1-1.1
		c-0.6-0.9,0-1.4,0.6-1.8c6.3-3.6,12.3-7.4,18.7-10.6C272.5,152.5,273.1,153,273,154.1z"/>
	<path class="st31" d="M231.3,231c-2.1-0.4-3.1-2.3-4.3-3.7c-3.8-4.2-8.1-7.8-11.5-12.4c-0.4-0.8,0.3-1.1,0.9-1.2
		c3.6,2.5,6.4,5.7,9.3,9c2.1,2.4,4.7,4.3,6.4,7.2C232.2,230.6,231.8,230.8,231.3,231z"/>
	<path class="st31" d="M254.5,244.2c0-0.7,0.4-1.2,0.9-1.7c4.7-4.5,9.4-9,14.1-13.5c0.3-0.3,0.7-0.3,1.1-0.4
		c0.8-0.3,1.1,0.3,1.2,0.9c-3.9,4.3-8.1,8.4-12.6,12.2c-1.3,1.1-1.8,3-3.6,3.5C255.1,244.8,254.8,244.5,254.5,244.2z"/>
	<path class="st32" d="M314.3,193.4c1,0,1.6,0.7,2.1,1.4c3.8,4.7,8.3,8.7,12.5,13c0.4,0.4,1,0.9,1,1.6c0,0.4-0.2,0.5-0.5,0.6
		c-1.2-1.1-2.2-2.1-3.4-3.1c-3.8-3.6-7.4-7.2-11.1-10.7c-0.6-0.6-1.5-1.1-1.4-2.1C313.7,193.9,313.9,193.7,314.3,193.4z"/>
	<path class="st33" d="M273.5,231.4c-2,1.9-4,3.8-5.9,5.7c-3.2,3.5-7.3,6.1-10.2,9.9c-0.4-0.4-0.6-0.6-1-1c-0.4-0.9,0.3-1.3,0.8-1.9
		c4.6-4.6,9-9.2,13.9-13.3c0.4-0.4,0.9-0.7,1.5-0.7C273.1,230.3,273.7,230.6,273.5,231.4z"/>
	<path class="st34" d="M269.6,150.7c-0.5,0.1-1.2,0.2-1.6,0.4c-5.7,3.3-11.5,6.6-17.1,9.9c-0.5,0.3-1.3,0.4-1.3,1.3
		c-0.4-0.4-0.6-0.6-1-1c0.5-0.8,1.1-1.4,1.9-1.9c0.7-1,1.7-1.7,2.8-2.3c3.9-2.1,7.7-4.5,11.5-6.7c1.2-0.6,2.2-1.4,3.6-1.2
		C269.3,149.6,269.7,149.9,269.6,150.7z"/>
	<path class="st33" d="M234.3,228.1c-0.4,0.4-0.6,0.6-1,1c-1.2,0.3-1.8-0.6-2.4-1.3c-3.5-4.3-7.6-7.9-11.4-11.8c-1-1-2-2-1.8-3.5
		c0.2-0.6,0.5-1.1,1.3-1.1c4.7,5.1,9.8,9.8,14.2,15.1C233.6,227,234.1,227.5,234.3,228.1z"/>
	<path class="st35" d="M218.1,212.5c0.1,0.9,0.5,1.7,1.2,2.3c4.4,4.5,9,8.8,13.1,13.5c0.3,0.3,0.6,0.4,1,0.7
		c-0.1,0.6-0.9,0.4-1.1,0.9c-5.6-4.9-10.3-10.8-15.6-16C216.5,212.9,217,212.3,218.1,212.5z"/>
	<path class="st35" d="M272.5,230.5c-5.7,4.8-11.1,10.1-16.1,15.7c-0.4-0.4-0.6-0.7-1-1c3.4-4.7,8.1-8.2,12.3-12.2
		c1.3-1.2,1.7-3.2,3.8-3.5C272.3,229.3,272.6,229.7,272.5,230.5z"/>
	<path class="st36" d="M254.5,167.2c0-1.3,1.2-1.4,2-1.9c5.8-3.4,11.7-6.8,17.5-10.2c0.4-0.2,0.7,0.2,0.9,0.5
		c-0.5,1.1-1.4,1.8-2.4,2.5c-2.8,1.4-5.6,2.7-7.9,4.7c-2.8,2.2-5.8,3.9-9.1,5.4C255.2,167.8,254.9,167.5,254.5,167.2z"/>
	<path class="st37" d="M274.8,187.6c5.2-5.6,10.5-11,16.1-16c0.2,0.3,0.4,0.6,0.5,0.9c0.6,1.3-0.4,2.1-1.1,2.7
		c-4.5,3.8-8.5,8.1-12.7,12.3c-0.6,0.6-1.3,1.3-2.3,1.1C275,188.3,274.7,188.1,274.8,187.6z"/>
	<path class="st38" d="M296.3,177.5c0.8,0.1,1.1,0.5,1.1,1.3c0.3,1.4-0.9,2.1-1.7,2.6c-4.4,3.3-8.1,7.3-11.7,11.4
		c-0.7,0.8-1.5,1.5-2.6,1.5c-0.6-0.1-1.1-0.4-1.2-1.2c0.4-1.2,1.3-1.9,2.1-2.6c4.4-3.6,8.1-7.8,12.2-11.7
		C295,178.3,295.5,177.7,296.3,177.5z"/>
	<path class="st39" d="M242.9,187.7c3,3.5,6.1,7,9,10.5c1.9,2.1,3.8,4.4,5.6,6.5c0,1.1-0.5,1.5-1.6,1.5c-4-5.2-8.3-10.1-12.6-15.1
		c-0.6-0.7-1.3-1.4-1.4-2.4C242.2,188.3,242.6,188,242.9,187.7z"/>
	<path class="st40" d="M238.5,192c0.4-0.4,0.6-0.6,1-1c1.1-0.7,1.6,0.2,2.1,0.8c3.9,4.7,8.1,9.4,12,14.2c0.4,0.5,0.9,1.2,0.8,2
		c-0.2,0.6-0.5,1.1-1.3,1.1c-3.3-3.2-5.9-7.2-9-10.7C242.2,196.4,240.3,194.3,238.5,192z"/>
	<path class="st41" d="M292.5,173.5c0.4,0.2,0.8,0.5,1,1c0.4,0.9-0.4,1.3-0.8,1.9c-4.3,4.7-9.3,8.8-13.8,13.2
		c-0.4,0.4-0.9,0.7-1.5,0.7c-0.7-0.1-1.1-0.4-1.2-1.2c1.3-2.1,3.4-3.4,5.1-5.1c3-3,6-6.1,9.1-9C291.1,174.6,291.6,173.7,292.5,173.5
		z"/>
	<path class="st42" d="M238.5,192c2.2,0.4,2.8,2.5,4,3.9c3.6,3.9,6.9,8.1,10.3,12.4c0.2,0.3,0.2,0.6,0.3,0.9c0,0.5-0.2,0.8-0.7,0.9
		c-0.1,0-0.3-0.1-0.4-0.2c-4.2-4.8-8.3-9.7-12.4-14.6c-0.7-0.9-1.6-1.6-1.8-2.9C238.1,192.4,238.3,192.2,238.5,192z"/>
	<path class="st43" d="M292.5,173.5c-3.9,4.4-8.1,8.6-12.4,12.4c-1.3,1.1-2.4,2.1-3.6,3.2c-0.8,0.2-1.2-0.2-1-1
		c0.7,0,1.2-0.4,1.6-0.9c4.3-4.1,8.2-8.6,12.9-12.4c0.7-0.6,1.5-1.3,1.6-2.3C291.8,172.9,292.2,173.1,292.5,173.5z"/>
	<path class="st34" d="M244.8,185.7c1.9,0.3,2.3,2.1,3.4,3.2c3.7,4.2,7.3,8.5,10.7,12.7c0.3,0.3,0.3,0.7,0.4,1.1c0,0.7-0.3,1-1,1
		c-0.7-2.6-2.9-4.2-4.5-6.2c-3.1-3.8-6.4-7.6-9.6-11.4C244.6,186.1,244.7,185.9,244.8,185.7z"/>
	<path class="st44" d="M234.3,228.1c-2.7-2.8-5.6-5.5-8.1-8.3c-1.5-1.7-3-3.4-4.7-4.7c-1.2-0.9-2.1-2.1-2.4-3.5
		c-0.1-0.4,0.1-0.5,0.4-0.5c5.2,5.4,10.4,10.7,15.6,16.1C235.2,227.6,234.6,227.8,234.3,228.1z"/>
	<path class="st45" d="M281.4,194c1.5-0.3,2.2-1.5,3.1-2.5c3.1-3.7,6.5-7.1,10.5-9.9c1-0.7,1.6-1.8,2.4-2.7c0.2,0,0.3,0.1,0.4,0.2
		c0.2,1.3-0.8,2.1-1.6,2.8c-4.3,3.5-8,7.8-12,11.5c-0.6,0.6-1.3,1.3-2.2,1.2c-0.2,0.1-0.4,0.2-0.6-0.1
		C281.3,194.2,281.3,194.2,281.4,194z"/>
	<path class="st46" d="M241.9,188.7c4.4,5.1,8.8,10.3,13.2,15.4c0.5,0.6,0.9,1.3,1,2.2c-0.1,0.4-0.4,0.5-0.7,0.4
		c-4-4.2-7.6-8.8-11.4-13.2c-1-1.2-2.1-2.2-3-3.6c0-0.1-0.1-0.2-0.1-0.4C241.3,189.3,241.6,189,241.9,188.7z"/>
	<path class="st47" d="M237.9,192.5c3.6,4.2,7.3,8.3,10.7,12.6c1.3,1.5,3.2,2.6,3.5,4.7c-2.7-2.1-5-4.7-7.3-7.3
		c-2.1-2.5-4.4-4.8-6.4-7.3c-0.5-0.6-1.3-1.1-1.3-1.9C237.3,193.2,237.6,192.8,237.9,192.5z"/>
	<path class="st48" d="M296.3,177.5c-5.1,5.5-10.3,10.7-16,15.5c-0.8,0.3-1.1-0.3-1.2-0.9c0.6-1.4,2.1-2.1,3.2-3.1
		c4.6-3.9,8.7-8.3,13-12.5C295.7,176.8,296,177.1,296.3,177.5z"/>
	<path class="st49" d="M271.6,152.6c-5.9,3.4-11.7,6.7-17.6,10.1c-0.7,0.4-1.9,0.7-1.9,2c-0.4-0.4-0.6-0.6-1-1
		c0.5-1.5,2.1-1.7,3.2-2.3c5.6-3.1,10.8-6.9,16.8-9.3C271.5,152.1,271.7,152.3,271.6,152.6z"/>
	<path class="st50" d="M295.4,176.4c-0.2,0.4-0.3,1-0.5,1.3c-4.9,5-9.8,10.1-15.4,14.3c-0.4,0.3-0.6,0-0.7-0.4
		c1.8-2.9,4.5-5,6.9-7.3c2.6-2.4,5.2-4.8,7.7-7.3c0.4-0.4,1-0.9,1.6-1C295.1,176,295.3,176.2,295.4,176.4z"/>
	<path class="st51" d="M294.9,176.1c-4.9,5.6-10.7,10.2-15.9,15.5c-0.8,0.4-1.1-0.2-1.2-0.8c5.2-5.5,11.1-10.2,16.2-15.8
		C294.2,175.4,294.5,175.7,294.9,176.1z"/>
	<path class="st52" d="M293.9,175c-1.4,3-4.2,5-6.5,7.2c-2.7,2.4-5.2,4.9-7.8,7.4c-0.4,0.4-0.9,1-1.6,0.9c-0.4,0.2-0.6,0-0.5-0.4
		c5.4-5.2,11.2-9.9,16.1-15.6C293.6,174.6,293.8,174.8,293.9,175z"/>
	<path class="st53" d="M255.5,168.2c2.1-2.1,4.9-3,7.3-4.6c0.5-0.4,1.2-0.5,1.4-1.3c1.3-0.5,2.4-1.3,3.7-2.1
		c0.6-0.4,1.5-1.5,2.1,0.1c-1.2,0.8-1.5,2.4-2.9,3c-3.7,1.7-7.1,4-10.7,5.7C256.2,168.8,255.8,168.5,255.5,168.2z"/>
	<path class="st54" d="M254.1,208.2c-1.1-2.7-3.3-4.5-5-6.6c-2.5-3.4-5.5-6.5-8.1-9.8c-0.4-0.4-0.8-0.7-1.4-0.7
		c0.4-0.6,0.8-1.2,1.4-1.4l0.1,0.1c2.9,3.8,6.1,7.3,9,11c1.7,2.1,3.7,4.1,5.1,6.4C255.1,207.8,254.9,208.2,254.1,208.2z"/>
	<path class="st55" d="M256.5,169.2c2.8-3,6.7-3.9,9.9-6.1c0.3-0.2,0.6,0,0.8,0.4c-0.9,1.1-1.7,2.1-3,2.9c-2.3,1.2-4.5,2.6-6.7,3.9
		C257.1,169.8,256.8,169.5,256.5,169.2z"/>
	<path class="st56" d="M257.5,170.1c1.7-2.2,4-3.4,6.7-3.9c-1.6,2.1-3.3,3.9-5.5,5.5C258.3,171.2,257.9,170.6,257.5,170.1z"/>
	<path class="st57" d="M237,193.5c3.1,2.7,5.8,5.6,7.8,9.2c-3.1-2.7-5.9-5.6-8.7-8.6C236.4,193.9,236.7,193.7,237,193.5z"/>
	<path class="st58" d="M329.3,210.1c0.2-0.2,0.4-0.4,0.5-0.6c0.9-0.4,1.4-1.2,2-1.9c1-0.4,1.2-1.5,2-2.1c0.5-0.1,0.7-0.5,1-0.9
		c0.7-0.4,1.3-1.1,1.7-1.8c0.4-0.4,0.8-0.7,1.3-1.2c1.6-1.5,3.1-3,4.7-4.6c7.1-7.1,18.5-7.2,25.6-0.3c7.2,7,7.7,18.3,1.2,25.4
		c-7.1,7.7-18.3,8.6-25.9,1.7C338.4,219.6,334,214.7,329.3,210.1z"/>
	<path class="st58" d="M254.1,208.2c0.4-0.4,0.7-0.7,1.1-1.1c0.1-0.3,0.2-0.4,0.4-0.4c0.2-0.2,0.4-0.4,0.4-0.4c0.5-0.5,1-1,1.5-1.5
		c0.3-0.3,0.6-0.6,0.9-0.9c0.4-0.4,0.6-0.6,1-1c0.6-0.4,1.1-0.8,1.4-1.4c4.7-4.6,9.3-9.1,14-13.7c0.2,0.2,0.4,0.4,0.6,0.5
		c0.4,0.4,0.6,0.6,1,1c0.2,0.4,0.4,0.9,0.9,1c0.2,0.2,0.4,0.3,0.5,0.4c0.4,0.4,0.6,0.6,1,1c0.2,0.2,0.4,0.4,0.4,0.4
		c0.3,0.4,0.4,0.9,0.9,1c0.4,0.4,0.7,0.6,1.1,1c0.2,0.2,0.4,0.4,0.4,0.4c0.6,0.9,1.3,1.6,2.2,2.1c4.4,4.5,8.9,9,13.2,13.4
		c-0.4,0.4-0.7,0.9-1.1,1.3c-0.8,0.5-1.4,1.2-2,2c-0.6,0.6-1.3,1.3-2,1.9c-1,0.7-1.8,1.5-2.4,2.4c-5,4.9-10,9.8-15,14.8
		c-0.4-0.4-1-0.7-1.4-1.1c-0.4-0.4-0.6-0.6-1-1c-0.2-0.4-0.5-0.8-1-1c-0.4-0.4-0.6-0.6-1-1c-0.2-0.8-1.2-0.8-1.5-1.4
		c-0.1-0.8-1.2-0.8-1.4-1.4c-0.3-0.7-0.8-1.1-1.4-1.4c-3.9-4-8-8.1-11.9-12.1c-0.6-0.6-1.2-1.3-1.8-2c0.3-0.3,0.4-0.6,0.7-0.9
		C253.4,208.8,253.8,208.6,254.1,208.2z"/>
	<path class="st59" d="M385.8,233.9c-1.3,1.4-2.8,2.9-4.1,4.4c-1.1,1.2-1.7,0.5-2.1-0.5c-0.2-0.6-0.1-1.3-0.1-1.9
		c0.1-7.7,0.1-15.3,0.4-23c0.4-9.4-0.7-18.9-0.4-28.3c0-0.5-0.1-1.2,0-1.7c0.2-1.3,0.6-1.8,1.9-0.8c1.6,1.2,2.7,2.7,3.9,4.2
		c0.4,2.4-0.3,4.8-0.3,7.3c0.1,11.2,0,22.3,0,33.5C385.1,229.2,385.3,231.6,385.8,233.9z"/>
	<path class="st60" d="M385.8,233.9c-1.7-0.9-1.3-2.7-1.4-3.9c-0.1-13.1-0.1-26.2,0-39.3c0-1.4,0.2-3,0.9-4.4
		c1.4,1.3,2.4,2.9,3.4,4.4c0.4,13,0.4,26,0,38.9C388,231.1,386.8,232.5,385.8,233.9z"/>
	<path class="st61" d="M388.7,229.5c-0.7-0.6-0.4-1.5-0.4-2.2c0-11.5,0-22.9,0-34.4c0-0.8-0.3-1.6,0.4-2.2c0.6,1.3,1.3,2.6,2,3.8
		c0.5,8.8,0.2,17.5,0.3,26.3c0,1.3-0.5,2.6,0.2,3.8C390.9,226.5,389.4,227.8,388.7,229.5z"/>
	<path class="st62" d="M391.2,224.6c-1.1-0.1-1-0.9-1-1.6c0-9,0-18.2,0-27.2c0-0.5,0-1,0.4-1.3c0.8,2.4,2.1,4.7,2.4,7.3
		c-0.4,2.4,0.3,4.7,0.3,7.2c0.1,3.3-0.4,6.5-0.3,9.8C392.4,220.7,391.8,222.7,391.2,224.6z"/>
	<path class="st63" d="M393.1,218.8c-0.7-0.5-0.4-1.3-0.4-2c0-4.3,0-8.7,0-13c0-0.7-0.2-1.4,0.4-2
		C394.5,207.4,394.5,213.1,393.1,218.8z"/>
	<path class="st58" d="M274.9,265c0.4,0.4,0.9,0.7,1.3,1.1c0.5,0.8,1.2,1.4,2,2c0.6,1,1.5,1.8,2.4,2.4c0.8,1.2,1.8,2.1,3,3
		c2,2.1,4.1,4.1,5.9,6.4c4.7,5.9,4.9,14.1,0.9,20.7c-3.8,6.3-11.6,9.7-18.8,8.3c-7.5-1.4-13.3-7.4-14.7-14.9
		c-1.1-6.1,0.5-11.4,4.7-15.8C266,273.5,270.3,269.1,274.9,265z"/>
	<path class="st64" d="M250.7,320.9c-2.1-1.4-3.5-3.3-4.9-5.3c-0.4-0.5-1-1.3-0.7-2c0.4-0.9,1.3-0.5,2-0.5c6.5-0.2,13,0.7,19.5,1.3
		c9.4,0.8,19,1,28.4-1c3.2-0.6,6.4-0.3,9.7-0.3c1.8,0,1,1.3,0.5,2.1c-1.5,2.1-3,4.2-5.2,5.6C283.3,320.6,267,320.6,250.7,320.9z"/>
	<path class="st65" d="M250.7,320.9c1.1-0.9,2.3-1,3.6-1c14,0,27.9,0,41.9,0c1.3,0,2.6,0.1,3.6,1c-1.7,1.1-3,2.6-4.8,3.4
		c-1-0.4-2.1-0.2-3.1-0.2c-11.6,0-23.2-0.2-34.8,0.1c-0.4,0-1,0.1-1.4,0.1C253.6,323.5,252.3,322,250.7,320.9z"/>
	<path class="st66" d="M255.5,324.3c0.5-1.2,1.5-1,2.5-1c11.5,0,22.9,0,34.4,0c1,0,2-0.2,2.5,1c-1.7,0.7-3,2.1-4.8,2.4
		c-2.3-0.4-4.7-0.2-7-0.2c-7,0-14.1-0.1-21,0c-0.5,0-1.2,0-1.7,0.2C258.5,326.2,256.9,325.4,255.5,324.3z"/>
	<path class="st67" d="M260.3,326.7c0.5-1.2,1.5-1,2.5-1c8.2,0,16.5,0,24.6,0c1,0,2-0.2,2.5,1C280.1,330.9,270.3,330.9,260.3,326.7z
		"/>
	<path class="st58" d="M219.5,211c-0.2,0.2-0.4,0.4-0.4,0.5c-0.4,0.2-0.8,0.5-1,1c-0.4,0.4-1,1-1.4,1.4c-0.4,0.4-0.6,0.7-1,1.1
		c-0.6,0.4-1.1,0.8-1.4,1.4c-0.6,0.4-1.1,0.9-1.4,1.4c-0.6,0.4-1.1,0.8-1.4,1.4c-1.4,1.4-2.9,2.8-4.4,4.2
		c-5.6,5.4-14.1,6.5-20.9,2.9c-7-3.7-10.8-11.3-9.8-19.1c1.1-7.5,7.3-14.1,14.9-15.3c5.9-0.9,11.3,0.4,15.8,4.6
		c4.3,4.1,8.4,8.3,12.5,12.5c0.4,0.4,0.7,0.7,0.5,1.3C219.8,210.6,219.7,210.8,219.5,211z"/>
	<path class="st68" d="M165.5,184.8c1.3-1.5,2.6-4.1,4.5-3.5c1.9,0.5,0.9,3.3,0.8,5c-0.4,9.6-1.2,19.2-0.9,28.7c0.3,7,1.1,14,1,20.9
		c0,0.6,0.1,1.3-0.1,2c-0.1,0.5-0.4,1.2-0.7,1.4c-0.6,0.4-1.1-0.3-1.3-0.7c-0.9-1.2-2.5-1.5-3.2-3c0.3-1.8,0.2-3.5,0.2-5.3
		c0-13.5,0-26.9,0-40.5C165.8,188.2,165.6,186.5,165.5,184.8z"/>
	<path class="st69" d="M163.1,232.9c-0.8-1.3-1.6-2.6-2.4-3.8c-0.4-12.6-0.4-25.2,0-38c0.8-1.2,1.6-2.2,2.4-3.4
		c1.5,0,1.6,1.3,1.7,2.2c0.2,13.7,0.2,27.4,0,41.1C164.7,231.8,164.8,233.3,163.1,232.9z"/>
	<path class="st70" d="M163.1,232.9c1.2-0.2,1-1.1,1-1.9c0-13.7,0-27.4,0-41.1c0-0.9,0.1-1.8-1-2.2c0.8-1,1.2-2.3,2.4-3
		c1,0.4,1,1.3,1,2.2c0,15.5,0,31,0,46.5c0,0.9,0,1.8-1,2.2C164.7,234.8,163.9,233.9,163.1,232.9z"/>
	<path class="st71" d="M160.7,191.1c0.7,0.5,0.4,1.3,0.4,2.1c0,11.3,0,22.6,0,33.8c0,0.7,0.2,1.4-0.4,2.1c-0.4-1.3-1.8-2.3-2-3.8
		c-0.4-10-0.4-20.1,0-30.2C159.3,193.7,160.1,192.4,160.7,191.1z"/>
	<path class="st72" d="M158.7,195c0.7,0.5,0.4,1.3,0.4,2.1c0,8.7,0,17.4,0,26c0,0.7,0.2,1.4-0.4,2.1c-0.9-1.7-1.5-3.5-2-5.4
		c0.4-2.1-0.4-4.1-0.3-6.2c0.1-4.2,0.1-8.5,0.3-12.7C157.5,198.9,158.1,196.9,158.7,195z"/>
	<path class="st73" d="M156.7,200.8c0.4,0.4,0.4,0.8,0.4,1.3c0,5.5,0,10.9,0,16.4c0,0.4,0,1-0.4,1.3
		C155.3,213.4,155.2,207.1,156.7,200.8z"/>
	<path class="st58" d="M271.6,152.6c-0.2-0.2-0.4-0.4-0.4-0.4c-0.4-0.4-1-1-1.4-1.4c-0.4-0.4-0.6-0.6-1-1c-0.8-0.4-1.8-0.8-2-2
		c-2.1-2.1-4.2-4.2-6.1-6.5c-4.9-6.2-5.6-14-1.7-20.6c3.7-6.3,11.3-10.2,17.7-9.1c8.4,1.3,14.4,6.5,16,14.3c1.3,6.4-0.3,12.2-5,16.9
		c-4.3,4.3-8.6,8.6-12.9,12.9c-0.3-0.2-0.5-0.4-0.9-0.5c-0.4-0.4-0.6-0.6-1-1C272.8,153.4,272.2,153,271.6,152.6z"/>
	<path class="st74" d="M299.3,99.6c1.6,1.5,3.3,3.1,4.9,4.7c0.4,0.5,1,1.2,0.7,2c-0.3,0.7-1.1,0.6-1.7,0.6c-6.4,0-12.8-0.2-19.2-0.8
		c-4.6-0.4-9.1-0.3-13.8,0.1c-3.2,0.3-6.5,0.4-9.8,0.4c-4.1,0.1-8.2,0-12.4,0.2c-0.8,0-2,0.4-2.4-0.6c-0.4-1.1,0.4-1.8,1.2-2.5
		c1.4-1.4,3-2.8,4.4-4.2c1.8,0.5,3.7,0.7,5.5,0.7c12.4,0,24.8,0,37.2,0C295.6,100.3,297.5,100.3,299.3,99.6z"/>
	<path class="st75" d="M299.3,99.6c-0.5,1.5-1.9,1.4-3,1.4c-14.1,0-28.1,0-42.2,0c-1.2,0-2.5,0.1-3-1.4c1.2-0.7,2-2,3.4-2.4
		c3.4-0.5,6.8-0.3,10.1-0.3c8.1,0,16.3,0,24.4,0c2.2,0,4.5-0.1,6.7,0.3C297.3,97.7,298,98.9,299.3,99.6z"/>
	<path class="st76" d="M295.9,97.2c-0.6,0.7-1.5,0.4-2.2,0.4c-12.3,0-24.5,0-36.8,0c-0.8,0-1.6,0.3-2.2-0.4c1.7-1.2,3.3-2.4,5.4-3
		c10.2-0.4,20.4-0.4,30.6,0C292.6,94.7,294.1,96.2,295.9,97.2z"/>
	<path class="st77" d="M290.5,94.3c-0.5,0.7-1.3,0.4-2.1,0.4c-8.9,0-17.7,0-26.6,0c-0.7,0-1.4,0.2-2.1-0.4c1.2-0.4,2.2-1,3.4-1.4
		c4.7-0.4,9.3-0.3,14-0.3c3.3-0.1,6.5,0.2,9.8,0.3C288.2,93.4,289.3,93.8,290.5,94.3z"/>
	<path class="st78" d="M266.8,147.8c0.8,0.5,1.4,1.2,2,2c-3.6,0.6-6.3,3.1-9.3,4.7c-3,1.5-5.8,3.3-8.8,5c1-2.4,3-3.9,5.1-5.3
		C259.2,151.7,262.9,149.7,266.8,147.8z"/>
	<path class="st79" d="M287.1,92.9c-0.4,0.6-1.2,0.4-1.8,0.4c-6.7,0-13.5,0-20.2,0c-0.6,0-1.3,0.1-1.8-0.4
		C271.2,90.7,279.1,90.7,287.1,92.9z"/>
	<path class="st80" d="M270.1,160.4c-1.3-1-2.1,0.1-2.9,0.8c-0.9,0.8-1.7,1.3-3,1.2c2.1-2.1,5-3,7.5-4.7c0.3-0.2,0.6,0,0.8,0.4
		C271.9,159,271.2,159.9,270.1,160.4z"/>
	<path class="st58" d="M268.5,389.1c0-2.1,0-4,0-6.1c0-0.6-0.2-1.4,0.9-1.3c4.4,0.2,9-0.6,13.2,0.6c2.6,0.7,4.7,2.2,5.5,5
		c1.4,4.7-1.2,8.7-6.6,9.3c-3.9,0.4-7.9,0.1-11.9,0.2c-1.1,0-1.1-0.6-1.1-1.4C268.5,393.3,268.5,391.2,268.5,389.1z"/>
	<path class="st81" d="M156.5,385.5c2.5,5.5,4.8,10.6,7.3,15.9c-4.7,0-9,0-13.2,0c-0.9,0-1.3-0.4-0.8-1.2
		C151.8,395.6,154.1,390.7,156.5,385.5z"/>
	<path class="st81" d="M239.6,401.5c-4.6,0-8.8,0-12.9,0c-1,0-1.9,0.2-1.2-1.3c2.2-4.7,4.4-9.5,6.7-14.6
		C234.8,390.9,237.1,396,239.6,401.5z"/>
	<path class="st82" d="M405.8,401.5c-4.9,0-9.6,0-14.6,0c2.4-5.3,4.7-10.3,7.3-15.9C401,391,403.3,396.1,405.8,401.5z"/>
	<path class="st82" d="M329.9,401.5c-5,0-9.7,0-14.6,0c2.4-5.2,4.7-10.3,7.3-15.9C325,391,327.4,396,329.9,401.5z"/>
	<path class="st83" d="M142.9,358.6c0-1.2,0.6-2.1,2.1-2.1c1.6-0.1,2.3,1.1,2.2,2.5c0,1.3-0.7,2.3-2.2,2.3
		C143.5,361.2,142.9,360.3,142.9,358.6z"/>
	<path class="st84" d="M156.8,358.7c0.2-1.3,0.7-2.1,2.1-2.1c1.3,0.1,2,1,2,2.2c0,1.4-0.7,2.3-2.2,2.2
		C157.4,361,156.8,360,156.8,358.7z"/>
	<path class="st85" d="M255.6,206.8c-0.2,0.2-0.3,0.3-0.4,0.4c-2.4-1.9-3.9-4.6-6-6.8c-2.6-2.8-4.9-5.8-7.4-8.8
		c-0.5-0.6-0.9-1.2-0.7-2c2.1,1.1,3.1,3.1,4.6,4.8C248.8,198.6,252.6,202.3,255.6,206.8z"/>
</g>
</svg>
