<svg id="Camada_1" data-name="Camada 1" xmlns="http://www.w3.org/2000/svg" viewBox="0 0 1364 188"><title>logo-slice-01</title><path fill="white" d="M36.29,184.37V74.54h-37V38.68h118.9V74.54h-37V184.37Z"/><path fill="white" d="M174.4,127.69c0,16.12,8.33,22.42,19.64,22.42s19.64-6.62,19.64-22.42v-89h44.83V134c0,32.13-24.55,52.84-64.47,52.84S129.57,166.12,129.57,134V38.68H174.4Z"/><path fill="white" d="M406,88.84c0,24.12-17.29,37.57-25.51,41.31l28.6,54.22h-49.2l-23.38-48.56H325.32v48.56H281.46V38.68h66.81C386.38,38.68,406,58.74,406,88.84Zm-64.58,17.08c9.82,0,18.36-5.44,18.36-17.29s-9-17.83-18.36-17.83H325.32v35.12Z"/><path fill="white" d="M423.84,184.37V38.68h44.83V184.37Z"/><path fill="white" d="M529.08,139.76c.22,6.83,7.37,14.19,21.35,14.19,13.66,0,18.36-5.44,18.36-11.42,0-7.47-7.26-10-20.39-12.38l-17.61-3.1c-24-4.27-41.41-16.33-41.41-43.33,0-30.1,24.23-47.39,60.52-47.39,41.2,0,59.66,23.37,59.66,46.11H569c-.21-6.09-6.08-13.77-19-13.77-11.42,0-16.22,5.23-16.22,11.42s7.15,9.5,19,11.31l18.68,2.89c20.17,3,41.09,13.34,41.09,43.44,0,28.39-20.39,49.1-63.08,49.1-47.82,0-62.33-24.66-62.44-47.07Z"/><path fill="white" d="M630.69,184.37V38.68h46.86l31.17,65h1.49l31.28-65h46.43V184.37H747.68V103.14h-2l-24.76,53.59H697.4l-25-53.59h-2.14v81.23Z"/><path fill="white" d="M806.49,104.64c0-41.41,24.33-68.31,68.84-68.31s68.74,27.22,68.74,68.31v14.3c0,40.88-24.12,67.89-68.74,67.89s-68.84-27-68.84-67.89Zm45.89,14.52c0,21,8.65,32.12,23,32.12s22.84-11.1,22.84-32.12V104c0-20.92-8.64-32.13-22.84-32.13s-23,11.21-23,32.13Z"/></svg>