<svg id="Camada_1" data-name="Camada 1" xmlns="http://www.w3.org/2000/svg" viewBox="0 0 1364 198"><title>logo-slice-01</title><path fill="white" d="M99.69,185c-7.48,6.29-22.31,12.49-43.34,12.49C22,197.47,3.41,181.14,3.41,157c0-18,10.35-28.71,24.87-37.14q3.84-2.24,8-4.16c-11.43-11.53-18-20.71-18-32.88,0-22,21.45-35.33,46-35.33,20.81,0,44.4,9.61,44.4,34.05,0,19.32-14.73,31.17-27.64,38.43l19,20.49c2.77-4.59,3.3-10.78,3.3-15.8v-11.1h32.77v14.52c0,11.85-4.16,26.58-12.7,36.61l28.82,29.67H108.65ZM41,153.49c0,9.71,8.22,16,19.85,16,7.48,0,15-2.56,18.47-6.62L53.9,136a21.81,21.81,0,0,0-3.21,1.6C45.89,140.47,41,146,41,153.49ZM76.31,85.18c0-7.9-5.34-12.49-12-12.49A12,12,0,0,0,52,85c0,5.65,3.2,10,11.31,17.61C71.29,98.31,76.31,92.87,76.31,85.18Z"/><path fill="white" d="M292.45,194.37V139.19H250.29v55.18H205.46V48.68h44.83v55h42.16v-55h44.83V194.37Z"/><path fill="white" d="M355.85,114.64c0-41.41,24.34-68.31,68.85-68.31s68.73,27.22,68.73,68.31v14.3c0,40.88-24.12,67.89-68.73,67.89s-68.85-27-68.85-67.89Zm45.9,14.52c0,21,8.64,32.12,22.95,32.12s22.84-11.1,22.84-32.12V114c0-20.92-8.65-32.13-22.84-32.13S401.75,93.08,401.75,114Z"/><path fill="white" d="M536.45,194.37V84.54h-37V48.68h118.9V84.54h-37V194.37Z"/><path fill="white" d="M735.19,194.37H631.33V48.68H735.19V83.15H675.63V106.1h55.61v31.17H675.63v22.62h59.56Z"/><path fill="white" d="M854.84,194.37h-98.3V48.68h44.82v109h53.48Z"/><path fill="white" d="M863.27,194.37,907.46,48.68h56.78L1008,194.37H960.19l-6.3-27.54H914.08l-6.51,27.54ZM933.18,85.71l-11.74,49.64h25.3L935.42,85.71Z"/><path fill="white" d="M1144.84,98.84c0,24.12-17.29,37.57-25.51,41.31l28.6,54.22h-49.2l-23.38-48.56h-11.2v48.56h-43.87V48.68h66.81C1125.2,48.68,1144.84,68.74,1144.84,98.84Zm-64.58,17.08c9.82,0,18.36-5.44,18.36-17.29s-9-17.83-18.36-17.83h-16.11v35.12Z"/><path fill="white" d="M1162.66,194.37V48.68h44.83V194.37Z"/><path fill="white" d="M1219.77,194.37,1264,48.68h56.78l43.76,145.69h-47.82l-6.3-27.54h-39.81l-6.51,27.54Zm69.91-108.66-11.74,49.64h25.29l-11.31-49.64Z"/></svg>