<?xml version="1.0" encoding="utf-8"?>
<!-- Generator: Adobe Illustrator 24.0.1, SVG Export Plug-In . SVG Version: 6.00 Build 0)  -->
<svg version="1.1" id="Layer_1" xmlns="http://www.w3.org/2000/svg" xmlns:xlink="http://www.w3.org/1999/xlink" x="0px" y="0px"
	 viewBox="0 0 1361 271" style="enable-background:new 0 0 1361 271;" xml:space="preserve">
<style type="text/css">
	.st0{fill:#A0A0A0;}
	.st1{fill:#C6C6C6;}
	.st2{opacity:0.3;fill:#EFEFEF;enable-background:new    ;}
	.st3{opacity:0.3;fill:#C6C6C6;enable-background:new    ;}
</style>
<title>logo-slice-01</title>
<path class="st0" d="M310.1,183.8L310.1,183.8c2.2,0,4,1.8,4,4v40.4c0,2.2-1.8,4-4,4l0,0c-2.2,0-4-1.8-4-4v-40.4
	C306.1,185.6,307.9,183.8,310.1,183.8z"/>
<path class="st0" d="M289,204h42.2c2.2,0,4,1.8,4,4l0,0c0,2.2-1.8,4-4,4H289c-2.2,0-4-1.8-4-4l0,0C285,205.8,286.8,204,289,204z"/>
<polygon class="st1" points="366.7,39.3 375.9,25.7 391.4,25.7 376.2,39.3 "/>
<path class="st0" d="M66,72.6c0,3.5,0,5.7-0.4,9.8c-0.9,12.8-9.8,24-32.2,24S2.2,95.1,1.3,82.3C1,78.3,1,76.1,1,72.6V28.5h17.2v46.6
	c0,2.1,0,3.5,0.1,5.1c0.7,8.3,5.6,13.2,15.1,13.2s14.5-4.9,15-13.2c0.2-1.7,0.3-3.3,0.3-5.1V28.5H66V72.6z"/>
<path class="st0" d="M132.1,71.4v33.2h-17.3V74.1c0-2.2,0-5.2-0.3-8.2c-0.4-6-3.8-9.8-10.5-9.8c-6.7,0-12,6.2-12,21.2v27.3H74.8
	V45.7h17.3V55l4.8-7c4-2.6,8.2-3.8,13.7-3.8c12.4,0,19.5,6,20.9,16.3C132,64.2,132.2,67.8,132.1,71.4z"/>
<path class="st0" d="M159.6,31.8c0,5.4-3.8,8.8-9.3,8.8c-5.5,0-9.1-3.4-9.1-8.8s3.7-8.8,9.1-8.8C155.8,23,159.6,26.5,159.6,31.8z
	 M141.8,104.7V45.8h17.3v58.9H141.8z"/>
<path class="st1" d="M334.2,70v34.8h-17.3V74.4c0-3-0.2-6-0.4-9c-0.7-5.9-3.8-9.1-9.3-9.1c-6.6,0-9.9,5.9-9.9,17.9v30.6h-17.2V74.4
	c0-3-0.1-6-0.4-9c-0.8-5.9-3.8-9.1-9.4-9.1c-6.6,0-9.8,5.9-9.8,17.9v30.6h-17.3V45.9h17.3v9.2l4.4-7.3c3.5-2.3,7.3-3.4,12.7-3.4
	c9.8,0,15.9,4.8,18.4,11.3l6.1-8c3.4-2.3,7.3-3.4,12.6-3.4c11.5,0,18,6.6,19.3,14.7C334.1,62.6,334.2,66.3,334.2,70z"/>
<path class="st1" d="M398.8,79.8h-41.3c1,11.3,5.9,14.5,12.4,14.5c6.1,0,10.2-3.3,11.2-8.9h17.1c-3.3,13.6-14.2,20.8-28.7,20.8
	c-16.4,0-29.4-10-29.4-30.8c0-17.7,11.9-31.1,30.5-31.1c18.6,0,28.5,14.2,28.5,29.9C399.1,76.1,399.1,78,398.8,79.8z M357.9,68.8
	h23.2c-1-8.3-4.8-12.6-11.3-12.6C363.7,56.2,359.4,60.1,357.9,68.8z"/>
<path class="st1" d="M442.8,44.7v14.1c-13.7-0.9-19.5,4.7-19.5,21.4v24.6H406V45.9h17.3v11.3l4.4-8.2c2.8-2.9,6.7-4.6,10.7-4.7
	C439.9,44.3,441.4,44.5,442.8,44.7z"/>
<path class="st1" d="M465.1,31.8c0,5.4-3.8,8.8-9.2,8.8s-9.1-3.4-9.1-8.8s3.6-8.7,9.1-8.7S465.1,26.5,465.1,31.8z M447.2,104.7V45.8
	h17.3v58.9H447.2z"/>
<polyline class="st1" points="202.1,43.5 231.1,133.7 250.7,133.7 231,79 231,79 213,28.5 191.5,28.5 164,104.7 182.5,104.7 
	189.6,83.1 210.7,83.1 206.4,69.6 193.9,69.6 202.1,43.5 "/>
<path class="st1" d="M528.9,67.6H512c-1.2-8.1-5.3-11.3-11.1-11.3c-7.3,0-12,6-12,18.5c0,13.7,4.7,19.7,12,19.7
	c5.3,0,9.5-3.7,10.8-10.5h17.1c-2.3,14.8-13.5,22.4-28.9,22.4c-16.4,0-28.8-10.5-28.8-30.5c0-20.2,13.5-31.5,30.2-31.5
	C517.9,44.3,528,54.5,528.9,67.6z"/>
<path class="st1" d="M568.6,96.2l-2.6,6.3c-4.4,2.6-9.5,4-14.6,3.9c-9.9,0-18.9-6.1-18.9-17.2c0-12.8,11.3-20.3,32.2-20.3h3.8v-1
	c0-1.7-0.1-3.3-0.3-5.1c-0.4-3.5-3-6.4-8.2-6.4c-5.5,0-8.4,3.3-8.8,9.1h-16.5c0.4-13.5,11.7-21.1,26.1-21.1
	c17.4,0,23.7,7.6,24.6,18.1c0.3,2.7,0.4,6.1,0.4,9.5v17.8c0,5,0.4,10,1.1,14.9H570L568.6,96.2z M568.4,83.3V79
	c-10.7-0.9-18.1,1.8-18.1,8.6c0,4.4,3.2,6.8,7.9,6.8C563.4,94.3,568.4,90.6,568.4,83.3z"/>
<polygon class="st2" points="231.1,133.7 250.7,133.7 237.5,97.2 "/>
<path class="st0" d="M278.3,118.9v0.3h-2.9l-0.1-0.3c-0.5-2.5-2-4-4.8-4c-3.4,0-5.5,2.9-5.5,7.3c0,4.6,2.2,7.4,5.5,7.4
	c2.7,0,4.3-1.6,4.8-4.1l0.1-0.3h2.9v0.3c-0.4,3.6-3.1,6.3-7.8,6.3c-5.3,0-8.4-3.9-8.4-9.5c0-5.8,3.6-9.7,8.8-9.7
	C275.4,112.6,278,115.3,278.3,118.9z"/>
<path class="st0" d="M297.8,125.2h-10.1c0.3,3.3,1.8,4.5,3.7,4.5c1.7,0.1,3.1-1.1,3.3-2.8h3c-0.6,3.3-3.3,4.9-6.4,4.9
	c-3.8,0-6.6-2.4-6.6-7.4c0-4.5,2.8-7.5,6.9-7.5s6.3,3.1,6.3,7C297.8,124.4,297.8,124.7,297.8,125.2z M287.6,123.1h7.1
	c-0.2-2.6-1.3-4-3.4-4C289.2,119,288,120.3,287.6,123.1z"/>
<path class="st0" d="M317.6,123.4v7.9h-2.9v-7.6c0-0.7,0-1.2-0.1-2c0.1-1.5-1.1-2.6-2.5-2.7c-0.2,0-0.3,0-0.4,0c-2,0-3.7,1.6-3.7,6
	v6.3h-2.9v-14.1h2.9v2.4l1-1.6c1.1-0.8,2.3-1.1,3.6-1.1c3.1,0,4.7,1.6,5,4C317.5,121.7,317.6,122.3,317.6,123.4z"/>
<path class="st0" d="M329.1,126.8c0,0.5,0,0.8,0,1.1c0.1,1.4,0.6,1.7,2.5,1.5v2c-0.7,0.1-1.4,0.2-2.2,0.2c-2.2,0-3.2-0.8-3.3-2.7
	c0-0.5,0-1.1,0-1.9v-7.6h-2v-2h2V114h2.9v3.3h2.7v2H329L329.1,126.8L329.1,126.8z"/>
<path class="st0" d="M346.2,117.1v2.3c-2.7-0.2-4.4,1.2-4.4,4.7v7.4h-2.9v-14.2h2.9v2.4l1.2-1.9c0.6-0.5,1.4-0.8,2.2-0.8
	C345.5,116.9,345.9,116.9,346.2,117.1z"/>
<path class="st0" d="M365.7,124.3c0,4.1-2.5,7.5-7.1,7.5c-4.7,0-7.1-3.3-7.1-7.5c0-4.1,2.4-7.4,7.1-7.4S365.7,120.2,365.7,124.3z
	 M362.6,124.3c0-3.2-1.5-5.3-4-5.3s-4,2.1-4,5.3s1.5,5.4,4,5.4S362.6,127.5,362.6,124.3L362.6,124.3z"/>
<path class="st0" d="M397.5,124.3c0,0.7,0,1.2-0.1,1.9c-0.3,3.1-2.4,5.6-7.1,5.6s-6.9-2.5-7.1-5.6c-0.1-0.7-0.1-1.2-0.1-1.9V113h2.9
	v11.3c0,0.5,0,1,0.1,1.5c0.2,2.2,1.6,3.7,4.2,3.7c2.6,0,4-1.5,4.2-3.7c0.1-0.5,0.1-1,0.1-1.5V113h2.9L397.5,124.3L397.5,124.3z"/>
<path class="st0" d="M418,123.4v7.9h-2.9v-7.6c0-0.7,0-1.2-0.1-2c0.1-1.5-1.1-2.6-2.5-2.7c-0.2,0-0.3,0-0.4,0c-2,0-3.7,1.6-3.7,6
	v6.3h-2.9v-14.1h2.9v2.4l1-1.6c1.1-0.8,2.3-1.1,3.6-1.1c3.1,0,4.7,1.6,5,4C418,121.7,418,122.3,418,123.4z"/>
<path class="st0" d="M429.1,114c0,0.9-0.7,1.7-1.7,1.7h-0.1c-1,0-1.7-0.8-1.6-1.8c0.1-1,0.8-1.7,1.8-1.6
	C428.4,112.3,429.1,113.1,429.1,114z M426,131.4v-14.2h2.9v14.2H426z"/>
<path class="st0" d="M444,131.4h-3.4l-5.4-14.2h3.3l4,12l4-12h3.1L444,131.4z"/>
<path class="st0" d="M467.5,125.2h-10.1c0.3,3.3,1.8,4.5,3.7,4.5c1.7,0.1,3.1-1.1,3.3-2.8h3c-0.6,3.3-3.3,4.9-6.4,4.9
	c-3.8,0-6.6-2.4-6.6-7.4c0-4.5,2.8-7.5,6.9-7.5s6.3,3.1,6.3,7C467.5,124.4,467.5,124.7,467.5,125.2z M457.3,123.1h7.2
	c-0.2-2.6-1.3-4-3.4-4C459,119,457.7,120.3,457.3,123.1z"/>
<path class="st0" d="M482.1,117.1v2.3c-2.7-0.2-4.4,1.2-4.4,4.7v7.4h-2.9v-14.2h2.9v2.4l1.2-1.9c0.6-0.5,1.4-0.8,2.2-0.8
	C481.4,116.9,481.7,116.9,482.1,117.1z"/>
<path class="st0" d="M498.5,121.3h-3c-0.1-1.4-1.2-2.4-2.6-2.4c-1-0.2-1.8,0.4-2,1.4c0,0.1,0,0.3,0,0.4c0,1.2,1.1,1.8,3.2,2.4
	c3.1,0.8,4.7,2,4.7,4.6c0,2.7-2.5,4.1-5.5,4.1c-3.1,0-5.5-1.4-5.9-4.6h3c0.2,1.5,1.5,2.6,3,2.5c1.3,0,2.5-0.6,2.5-1.8
	s-1-1.9-3.3-2.5c-2.5-0.7-4.5-1.8-4.5-4.2c0-2.6,2.1-4.2,5.2-4.2C496.2,117,498.1,118.8,498.5,121.3z"/>
<path class="st0" d="M508.8,114c0,0.9-0.7,1.7-1.7,1.7H507c-1,0-1.7-0.8-1.6-1.8c0.1-1,0.8-1.7,1.8-1.6
	C508.1,112.3,508.8,113.1,508.8,114z M505.6,131.4v-14.2h2.9v14.2H505.6z"/>
<path class="st0" d="M520.2,126.8c0,0.5,0,0.8,0,1.1c0.1,1.4,0.6,1.7,2.5,1.5v2c-0.7,0.1-1.4,0.2-2.2,0.2c-2.2,0-3.2-0.8-3.3-2.7
	c0-0.5,0-1.1,0-1.9v-7.6h-2v-2h2V114h2.9v3.3h2.8v2h-2.8L520.2,126.8z"/>
<path class="st0" d="M537.9,129.3l-0.7,1.5c-1.1,0.6-2.3,1-3.5,0.9c-2.5,0-4.6-1.4-4.6-4c0-3.2,2.5-4.8,7.8-4.8h0.9v-0.4
	c0-0.5,0-1.1-0.1-1.6c-0.1-1.1-0.8-1.9-2.5-1.9c-1.7,0-2.5,1-2.7,2.7h-2.9c0.2-3.1,2.5-4.8,5.7-4.8c3.7,0,5.1,1.6,5.4,4
	c0.1,0.6,0.1,1.3,0.1,2v5c0,1.2,0.1,2.4,0.3,3.6h-2.9L537.9,129.3z M537.9,126.1v-1.3c-3.4-0.3-5.7,0.5-5.7,2.6c0,1.5,1,2.2,2.5,2.2
	C536.6,129.7,537.9,128.4,537.9,126.1L537.9,126.1z M534.4,116l1.8-3.1h2.6l-2.7,3.1H534.4z"/>
<path class="st0" d="M556.3,117.1v2.3c-2.7-0.2-4.4,1.2-4.4,4.7v7.4H549v-14.2h2.9v2.4l1.2-1.9c0.6-0.5,1.4-0.8,2.2-0.8
	C555.6,116.9,555.9,116.9,556.3,117.1z"/>
<path class="st0" d="M565.9,114c0,0.9-0.7,1.7-1.7,1.7h-0.1c-1,0-1.7-0.8-1.6-1.8c0.1-1,0.8-1.7,1.8-1.6
	C565.2,112.3,565.9,113.1,565.9,114z M562.7,131.4v-14.2h2.9v14.2H562.7z"/>
<path class="st0" d="M587,124.3c0,4.1-2.5,7.5-7.2,7.5s-7.1-3.3-7.1-7.5c0-4.1,2.4-7.4,7.1-7.4S587,120.2,587,124.3z M584,124.3
	c0-3.2-1.5-5.3-4-5.3s-4,2.1-4,5.3s1.5,5.4,4,5.4S584,127.5,584,124.3L584,124.3z"/>
<path class="st3" d="M194.1,69.1l6.8-21.8L194.1,69.1z"/>
<polygon class="st2" points="200.9,47.3 206.8,28.5 191.5,28.5 187.8,38.8 193.9,69.6 "/>
<path class="st0" d="M464.8,209.8c0,5.5,2.7,9.1,7.1,9.1c3,0,5.3-1.2,7.1-4.7l6.7,3.3c-2.6,5.9-7.7,8.6-13.9,8.6
	c-8.8,0-15.1-6.7-15.1-16.2c0-9.5,6.3-16.2,15.1-16.2c6.2,0,11.3,2.7,13.9,8.6l-6.7,3.3c-1.8-3.4-4.1-4.7-7.1-4.7
	C467.5,200.7,464.8,204.3,464.8,209.8z"/>
<path class="st0" d="M520,209.8c0,9.4-6.5,16.2-16.1,16.2c-9.6,0-16-6.8-16-16.2s6.5-16.2,16-16.2S520,200.4,520,209.8z
	 M511.8,209.8c0-5.4-3-9.1-7.9-9.1s-7.8,3.7-7.8,9.1s3,9.1,7.8,9.1C508.7,218.8,511.8,215.2,511.8,209.8z"/>
<path class="st0" d="M533.1,203.6v21.6h-8v-30.9h6.5l0.5,3c2.7-2.4,6.2-3.8,9.8-3.8c4.7,0,7.4,1.8,8.8,4.4c2.7-2.8,6.5-4.4,10.5-4.4
	c9.1,0,10.4,6.3,10.4,12.7v18.9h-8v-19.1c0-4.3-1.2-5.5-4.2-5.5c-2.6,0.1-5.2,1.2-7,3.1c0.1,0.9,0.1,1.8,0.1,2.5v18.9h-8.1v-19.1
	c0-4.3-1.2-5.5-4.2-5.5C537.5,200.8,535.1,201.8,533.1,203.6z"/>
<path class="st0" d="M586.7,222.8v13.3h-8v-41.7h6.5l0.6,3.5c2.3-2.7,5.5-4.3,9.1-4.3c8.4,0,14.5,6.8,14.5,16.2
	c0,9.4-6.1,16.2-14.5,16.2C591.9,226,588.9,224.9,586.7,222.8z M601.2,209.8c0-5.5-2.9-9.1-7.3-9.1c-4.7,0-7.3,3.6-7.3,9.1
	s2.5,9.1,7.3,9.1C598.3,218.9,601.2,215.3,601.2,209.8z"/>
<path class="st0" d="M622.2,225.5c-5.5,0-8.8-2.9-8.8-9.4V182h8v32.4c0,2.5,0.9,3.5,3,3.5v7.5C623.7,225.5,622.9,225.5,622.2,225.5z
	"/>
<path class="st0" d="M633.4,179.8c2.8,0,5.1,2.3,5.1,5.1c0,2.8-2.3,5.1-5.1,5.1c-2.8,0-5-2.2-5.1-5
	C628.3,182.2,630.5,179.9,633.4,179.8C633.3,179.8,633.3,179.8,633.4,179.8z M629.3,225.2v-30.9h8v30.9H629.3z"/>
<path class="st0" d="M650.8,209.8c0,5.5,2.7,9.1,7.1,9.1c3,0,5.3-1.2,7.1-4.7l6.7,3.3c-2.6,5.9-7.7,8.6-14,8.6
	c-8.8,0-15.1-6.7-15.1-16.2c0-9.5,6.3-16.2,15.1-16.2c6.2,0,11.3,2.7,14,8.6l-6.7,3.3c-1.8-3.4-4.1-4.7-7.1-4.7
	C653.4,200.7,650.8,204.3,650.8,209.8z"/>
<path class="st0" d="M694.3,222.5c-2.4,2.3-5.5,3.5-8.9,3.6c-6.2,0-11.6-4.5-11.6-10.5c0-6.5,5.5-10.5,12-10.5
	c2.6-0.1,5.2,0.9,7.1,2.6v-3.2c0-2.5-2-4.3-5.9-4.3c-2.9,0-5.8,0.8-8.4,2.2l-2.3-5.9c3.7-2,7.8-3.1,12-3c8.4,0,12.5,4.7,12.5,12.4
	v19.3h-6.3L694.3,222.5z M682,215.7c0,2.5,2.3,4,5.1,4s5.1-1.6,5.1-4s-2.2-4.1-5.1-4.1C684.2,211.5,681.9,213.2,682,215.7L682,215.7
	z"/>
<g>
	<path class="st1" d="M371.7,200.7c-4.4,0-7.3,3.6-7.3,9.1s2.9,9.1,7.3,9.1c4.7,0,7.3-3.6,7.3-9.1S376.5,200.7,371.7,200.7z"/>
	<path class="st1" d="M406.3,199.9c-3.9,0-6.2,2.4-6.9,6.4h13.5C412.7,202.3,410.1,199.9,406.3,199.9z"/>
	<path class="st1" d="M435.9,156.3l-76.8,13.8c-6.3,1.1-11.4,7.3-11.4,14.8v46.6c0,7.6,5.2,13.7,11.4,14.9l76.8,14.6
		c9.3,1.8,17-5.2,17-15.1v-73.8C452.9,161.1,445.2,154.6,435.9,156.3z M387,225.2h-6.6l-0.6-3.5c-2.2,2.7-5.5,4.3-9.1,4.3
		c-8.4,0-14.5-6.9-14.5-16.3c0-9.4,6.2-16.2,14.5-16.2c3.1,0,6,1.1,8.2,3.3v-14.8h8.1V225.2z M420.9,212.6h-21.6
		c0.7,4,3.4,6.5,7.7,6.4c3.2-0.1,6-1.8,7.5-4.6l6.4,3.3c-3.2,5.5-7.3,8.3-13.9,8.3c-9.1,0-16-6.8-16-16.3c0-9.8,6.2-16.2,15.4-16.2
		c9.4,0,14.8,6.3,14.8,14.9C421.1,209.9,421,211.3,420.9,212.6z M434.4,226c-4.9,0-8.8-2.2-11.8-6.8l5-4c2.9,3.4,4.8,4.3,7.7,4.3
		c2.1,0,3.6-1.1,3.6-2.8c0-2.1-1.9-3-7.3-4.2c-5.1-1.1-8.2-3.9-8.2-9.5c0-5.3,4.4-9.7,11.6-9.7c4.2-0.1,8.3,1.8,10.8,5.3l-4.9,4.5
		c-1.5-1.9-3.9-3.1-6.3-3c-2.5,0-4,1.1-4,2.9c0,1.6,1,2.5,5.3,3.6c6.4,1.5,10.3,4,10.3,9.7C446.2,222.2,441.1,226,434.4,226z"/>
</g>
</svg>
