<svg id="Camada_1" data-name="Camada 1" xmlns="http://www.w3.org/2000/svg" viewBox="0 0 1363.35 97.73"><title>logo-slice-01</title><path fill="white" d="M33,2C51,2,62.72,13.39,62.72,30.88S51,59.6,33,59.6H9.71V96.65H0V2ZM9.71,50.79H26.5c16.66,0,26.3-4.17,26.3-19.91,0-12.63-7.35-20-20.12-20h-23Z"/><path fill="white" d="M75.41,42.25C75.41,15.89,90.05,0,112.67,0s37.05,15.89,37.05,42.32V57.17c0,26.37-14.64,41.56-37.26,41.56s-37-15.19-37-41.56Zm9.65,15.06c0,21.58,11.58,32.54,27.47,32.54S140,78.89,140,57.31V42.18c0-21.64-11.52-33.37-27.48-33.37S85.06,20.54,85.06,42.18Z"/><path fill="white" d="M232.49,29.63c0,15.33-9.09,23.17-18.25,26.15l19.91,40.87H223L204.53,57.79H179.62V96.65h-9.71V2h33C223,2,232.49,14.85,232.49,29.63ZM201.2,49c13.87,0,21.3-6.87,21.3-18.73,0-12.63-8.12-19.43-20.89-19.43h-22V49Z"/><path fill="white" d="M272.17,96.65V10.82H242.68V2H311.3v8.81H281.75V96.65Z"/><path fill="white" d="M309,96.65,343,2h9.57l33.93,94.64H376.38L366.11,66.81h-36.7l-10.2,29.84ZM347.66,14,332.18,58.84h31.16L347.93,14Z"/><path fill="white" d="M455.68,96.65H401V2h9.71V87.84h45Z"/><path fill="white" d="M527.07,2c27.82,0,41.7,16.58,41.7,47.32S555,96.65,527.07,96.65H498.48V2ZM508.19,87.77h18.6c21.58,0,31.92-13.25,31.92-38.44s-10.34-38.44-31.92-38.44h-18.6Z"/><path  fill="white" d="M643.35,96.65H587.77V2h55.58v8.88H597.48v33h43.37v8.81H597.48V87.77h45.87Z"/></svg>