<svg id="bg" xmlns="http://www.w3.org/2000/svg" viewBox="0 0 99.12 94.32"><defs><style>.cls-1,.cls-2,.cls-3,.cls-7{fill:#fff;}.cls-1,.cls-2,.cls-3,.cls-5,.cls-6,.cls-8,.cls-9{stroke:#0e3c54;stroke-width:2px;}.cls-1,.cls-5,.cls-6,.cls-8,.cls-9{stroke-miterlimit:10;}.cls-2,.cls-3{stroke-linejoin:round;}.cls-3{stroke-linecap:round;}.cls-4{fill:#f87400;}.cls-5,.cls-6,.cls-8,.cls-9{fill:none;}.cls-6{stroke-dasharray:2.03 2.03;}.cls-8{stroke-dasharray:2.04 2.04;}.cls-9{stroke-dasharray:2.04 2.04;}</style></defs><title>icones</title><path class="cls-1" d="M24.26,18.5a3,3,0,1,1-3-3A3,3,0,0,1,24.26,18.5Z"/><line class="cls-1" x1="71.23" y1="75.03" x2="71.23" y2="78.35"/><line class="cls-1" x1="66.29" y1="79.67" x2="69.61" y2="79.67"/><line class="cls-1" x1="71.23" y1="84.48" x2="71.23" y2="81.16"/><line class="cls-1" x1="76.17" y1="79.83" x2="72.85" y2="79.83"/><path class="cls-2" d="M46.79,77.3c0,.12,0,.24,0,.36,0,2,2.53,3.62,5.66,3.62s5.66-1.62,5.66-3.62a2.19,2.19,0,0,0,0-.36Z"/><path class="cls-3" d="M66.75,48.91c0-7.8-6.61-14.12-14.77-14.12S37.21,41.11,37.21,48.91a13.62,13.62,0,0,0,2.12,7.28,13.91,13.91,0,0,0,1.77,2.22h0s1.71,3.41,2.13,4.61L45,68.18H59.63s.79-3.91,1.24-5.15c.51-1.39,2.64-5.31,2.64-5.31h0A13.64,13.64,0,0,0,66.75,48.91Z"/><path class="cls-4" d="M63.74,48.88a11.77,11.77,0,0,0-23.52,0,10.89,10.89,0,0,0,1.68,5.8,11.48,11.48,0,0,0,1.42,1.77h0s1.36,2.72,1.69,3.68c.18.5,1.41,4.1,1.41,4.1H58.07s.63-3.11,1-4.1,2.1-4.23,2.1-4.23h0A10.88,10.88,0,0,0,63.74,48.88Z"/><rect class="cls-2" x="45.73" y="75.12" width="13.11" height="2.88"/><rect class="cls-2" x="44.96" y="68.18" width="14.66" height="6.93"/><line class="cls-5" x1="50.03" y1="27.84" x2="50.03" y2="26.84"/><line class="cls-6" x1="50.03" y1="24.81" x2="50.03" y2="13.62"/><line class="cls-5" x1="50.03" y1="12.61" x2="50.03" y2="11.61"/><line class="cls-3" x1="42.94" y1="29.55" x2="39.97" y2="21.39"/><line class="cls-3" x1="36.86" y1="33.59" x2="31.28" y2="26.93"/><line class="cls-3" x1="32.53" y1="39.46" x2="25.01" y2="35.11"/><line class="cls-3" x1="30.47" y1="46.45" x2="21.92" y2="44.94"/><line class="cls-3" x1="30.93" y1="53.73" x2="22.37" y2="55.24"/><line class="cls-3" x1="33.84" y1="60.42" x2="26.32" y2="64.76"/><line class="cls-3" x1="70.15" y1="59.23" x2="77.67" y2="63.57"/><line class="cls-3" x1="72.21" y1="51.15" x2="80.76" y2="52.66"/><line class="cls-3" x1="71.76" y1="43.87" x2="80.31" y2="42.36"/><line class="cls-3" x1="68.84" y1="37.19" x2="76.36" y2="32.84"/><line class="cls-7" x1="63.81" y1="31.9" x2="73.91" y2="19.15"/><line class="cls-5" x1="63.81" y1="31.9" x2="64.43" y2="31.12"/><line class="cls-8" x1="65.7" y1="29.52" x2="72.66" y2="20.74"/><line class="cls-5" x1="73.29" y1="19.94" x2="73.91" y2="19.15"/><line class="cls-7" x1="57.28" y1="28.66" x2="63.81" y2="13.76"/><line class="cls-5" x1="57.28" y1="28.66" x2="57.68" y2="27.74"/><line class="cls-9" x1="58.5" y1="25.88" x2="63" y2="15.61"/><line class="cls-5" x1="63.41" y1="14.68" x2="63.81" y2="13.76"/></svg>