<svg id="bg" xmlns="http://www.w3.org/2000/svg" viewBox="0 0 92.06 91.68"><defs><style>.cls-1,.cls-3{fill:#fff;}.cls-1,.cls-2,.cls-3,.cls-5{stroke:#0e3c54;stroke-width:2px;}.cls-1{stroke-linecap:round;stroke-linejoin:round;}.cls-2,.cls-5{fill:none;}.cls-2,.cls-3,.cls-5{stroke-miterlimit:10;}.cls-2{stroke-dasharray:2;}.cls-4{fill:#f87400;}</style></defs><title>icones</title><line class="cls-1" x1="25.51" y1="63.89" x2="55.7" y2="63.89"/><line class="cls-1" x1="10" y1="63.9" x2="15.9" y2="63.9"/><line class="cls-2" x1="10.01" y1="54.7" x2="40.19" y2="54.7"/><line class="cls-3" x1="73.42" y1="21.51" x2="73.42" y2="25.9"/><line class="cls-3" x1="66.9" y1="27.65" x2="71.28" y2="27.65"/><line class="cls-3" x1="73.42" y1="34" x2="73.42" y2="29.62"/><line class="cls-3" x1="79.94" y1="27.86" x2="75.55" y2="27.86"/><path class="cls-4" d="M52.4,49h-24l-6.27,6.27v-24a4.2,4.2,0,0,1,4.18-4.19H52.4a4.2,4.2,0,0,1,4.18,4.19V44.83A4.19,4.19,0,0,1,52.4,49Z"/><path class="cls-5" d="M56.36,53h-24L26,59.25v-24A4.2,4.2,0,0,1,30.22,31H56.36a4.2,4.2,0,0,1,4.18,4.19V48.79A4.19,4.19,0,0,1,56.36,53Z"/><path class="cls-3" d="M44.25,64.26h24l6.27,6.27v-22a4.19,4.19,0,0,0-4.18-4.18H44.25a4.2,4.2,0,0,0-4.19,4.18V60.08A4.21,4.21,0,0,0,44.25,64.26Z"/></svg>