<?xml version="1.0" encoding="utf-8"?>
<!-- Generator: Adobe Illustrator 24.0.1, SVG Export Plug-In . SVG Version: 6.00 Build 0)  -->
<svg version="1.1" id="bg" xmlns="http://www.w3.org/2000/svg" xmlns:xlink="http://www.w3.org/1999/xlink" x="0px" y="0px"
	 viewBox="0 0 92.1 91.7" style="enable-background:new 0 0 92.1 91.7;" xml:space="preserve">
<style type="text/css">
	.st0{fill:none;stroke:#0E3C54;stroke-width:2;stroke-linecap:round;stroke-linejoin:round;}
	.st1{fill:none;stroke:#0E3C54;stroke-width:2;stroke-miterlimit:10;stroke-dasharray:2;}
	.st2{fill:none;stroke:#0E3C54;stroke-width:2;stroke-miterlimit:10;}
	.st3{fill:#F9D428;}
	.st4{fill:#FFFFFF;stroke:#0E3C54;stroke-width:2;stroke-miterlimit:10;}
</style>
<title>icones</title>
<line class="st0" x1="25.5" y1="63.9" x2="55.7" y2="63.9"/>
<line class="st0" x1="10" y1="63.9" x2="15.9" y2="63.9"/>
<line class="st1" x1="10" y1="54.7" x2="40.2" y2="54.7"/>
<line class="st2" x1="73.4" y1="21.5" x2="73.4" y2="25.9"/>
<line class="st2" x1="66.9" y1="27.6" x2="71.3" y2="27.6"/>
<line class="st2" x1="73.4" y1="34" x2="73.4" y2="29.6"/>
<line class="st2" x1="79.9" y1="27.9" x2="75.6" y2="27.9"/>
<path class="st3" d="M52.4,49h-24l-6.3,6.3v-24c0-2.3,1.9-4.2,4.2-4.2h26.1c2.3,0,4.2,1.9,4.2,4.2v13.6C56.6,47.1,54.7,49,52.4,49z"
	/>
<path class="st2" d="M56.4,53h-24L26,59.3v-24c0-2.3,1.8-4.2,4.1-4.2c0,0,0,0,0.1,0h26.1c2.3,0,4.2,1.9,4.2,4.2v13.6
	C60.6,51.1,58.7,53,56.4,53C56.4,53,56.4,53,56.4,53z"/>
<path class="st4" d="M44.3,64.3h24l6.3,6.3v-22c0-2.3-1.9-4.2-4.2-4.2H44.3c-2.3,0-4.2,1.9-4.2,4.2v11.6
	C40.1,62.4,41.9,64.2,44.3,64.3z"/>
</svg>
