<svg id="bg" xmlns="http://www.w3.org/2000/svg" viewBox="0 0 101.2 93.28"><defs><style>.cls-1,.cls-8,.cls-9{fill:none;}.cls-1,.cls-10,.cls-2,.cls-3,.cls-4,.cls-8,.cls-9{stroke:#0e3c54;}.cls-1,.cls-10,.cls-3,.cls-5,.cls-8,.cls-9{stroke-miterlimit:10;}.cls-1,.cls-10,.cls-2,.cls-3,.cls-4,.cls-5,.cls-8,.cls-9{stroke-width:2px;}.cls-1{stroke-dasharray:2;}.cls-10,.cls-2,.cls-3,.cls-4,.cls-7{fill:#fff;}.cls-2,.cls-4{stroke-linecap:round;stroke-linejoin:round;}.cls-3,.cls-4{fill-rule:evenodd;}.cls-5{fill:#6ed0f5;stroke:#000;}.cls-6{fill:#f87400;}.cls-9{stroke-dasharray:1.96 1.96;}</style></defs><title>icones</title><line class="cls-1" x1="57.01" y1="82.45" x2="79.87" y2="82.45"/><line class="cls-2" x1="64.17" y1="73.61" x2="87.03" y2="73.61"/><path class="cls-3" d="M23.67,64.37V29.57a3.22,3.22,0,0,1,3.22-3.22H77.16a3.23,3.23,0,0,1,3.23,3.22v34.8a3.23,3.23,0,0,1-3.23,3.23H26.89A3.23,3.23,0,0,1,23.67,64.37Z"/><path class="cls-4" d="M29.47,64.75V29.2H74.59V64.75Z"/><line class="cls-5" x1="77.21" y1="49.94" x2="77.21" y2="44.01"/><line class="cls-5" x1="25.83" y1="51.37" x2="25.83" y2="42.58"/><rect class="cls-2" x="34.49" y="48.86" width="11.82" height="11.82"/><rect class="cls-6" x="35.06" y="49.43" width="10.68" height="10.68"/><line class="cls-2" x1="34.49" y1="44.01" x2="34.49" y2="33.87"/><line class="cls-2" x1="40.4" y1="44.01" x2="40.4" y2="33.87"/><line class="cls-2" x1="46.31" y1="44.01" x2="46.31" y2="33.87"/><rect class="cls-7" x="52.03" y="48.86" width="11.82" height="11.82"/><polyline class="cls-8" points="62.85 48.86 63.85 48.86 63.85 49.86"/><line class="cls-9" x1="63.85" y1="51.83" x2="63.85" y2="58.7"/><polyline class="cls-8" points="63.85 59.69 63.85 60.69 62.85 60.69"/><line class="cls-9" x1="60.89" y1="60.68" x2="54.01" y2="60.68"/><polyline class="cls-8" points="53.03 60.69 52.03 60.69 52.03 59.69"/><line class="cls-9" x1="52.03" y1="57.72" x2="52.03" y2="50.84"/><polyline class="cls-8" points="52.03 49.86 52.03 48.86 53.03 48.86"/><line class="cls-9" x1="54.99" y1="48.86" x2="61.87" y2="48.86"/><line class="cls-2" x1="52.03" y1="44.01" x2="52.03" y2="33.87"/><line class="cls-2" x1="57.94" y1="44.01" x2="57.94" y2="33.87"/><line class="cls-2" x1="63.85" y1="44.01" x2="63.85" y2="33.87"/><line class="cls-2" x1="69.76" y1="60.69" x2="69.76" y2="33.87"/><path class="cls-6" d="M18.77,27.17a3,3,0,1,1-3-3A3,3,0,0,1,18.77,27.17Z"/><line class="cls-10" x1="28.35" y1="8.87" x2="28.35" y2="12.19"/><line class="cls-10" x1="23.41" y1="13.51" x2="26.73" y2="13.51"/><line class="cls-10" x1="28.35" y1="18.32" x2="28.35" y2="15"/><line class="cls-10" x1="33.28" y1="13.67" x2="29.96" y2="13.67"/><path class="cls-8" d="M15.73,30.21a3,3,0,1,1-3-3A3,3,0,0,1,15.73,30.21Z"/></svg>