<?xml version="1.0" encoding="utf-8"?>
<!-- Generator: Adobe Illustrator 24.0.1, SVG Export Plug-In . SVG Version: 6.00 Build 0)  -->
<svg version="1.1" id="bg" xmlns="http://www.w3.org/2000/svg" xmlns:xlink="http://www.w3.org/1999/xlink" x="0px" y="0px"
	 viewBox="0 0 99.1 94.3" style="enable-background:new 0 0 99.1 94.3;" xml:space="preserve">
<style type="text/css">
	.st0{fill:#FFFFFF;stroke:#0E3C54;stroke-width:2;stroke-miterlimit:10;}
	.st1{fill:none;stroke:#0E3C54;stroke-width:2;stroke-miterlimit:10;}
	.st2{fill:#FFFFFF;stroke:#0E3C54;stroke-width:2;stroke-linejoin:round;}
	.st3{fill:#FFFFFF;stroke:#0E3C54;stroke-width:2;stroke-linecap:round;stroke-linejoin:round;}
	.st4{fill:#F9D428;}
	.st5{fill:none;stroke:#0E3C54;stroke-width:2;stroke-miterlimit:10;stroke-dasharray:2.03,2.03;}
	.st6{fill:none;stroke:#0E3C54;stroke-width:2;stroke-linecap:round;stroke-linejoin:round;}
	.st7{fill:none;}
	.st8{fill:none;stroke:#0E3C54;stroke-width:2;stroke-miterlimit:10;stroke-dasharray:2.04,2.04;}
</style>
<title>icones</title>
<path class="st0" d="M24.3,18.5c0,1.7-1.3,3-3,3s-3-1.3-3-3s1.3-3,3-3S24.3,16.8,24.3,18.5z"/>
<line class="st1" x1="71.2" y1="75" x2="71.2" y2="78.3"/>
<line class="st1" x1="66.3" y1="79.7" x2="69.6" y2="79.7"/>
<line class="st1" x1="71.2" y1="84.5" x2="71.2" y2="81.2"/>
<line class="st1" x1="76.2" y1="79.8" x2="72.8" y2="79.8"/>
<path class="st2" d="M46.8,77.3c0,0.1,0,0.2,0,0.4c0,2,2.5,3.6,5.7,3.6s5.7-1.6,5.7-3.6c0-0.1,0-0.2,0-0.4H46.8z"/>
<path class="st3" d="M66.8,48.9c0-7.8-6.6-14.1-14.8-14.1s-14.8,6.3-14.8,14.1c0,2.6,0.7,5.1,2.1,7.3c0.5,0.8,1.1,1.5,1.8,2.2l0,0
	c0,0,1.7,3.4,2.1,4.6l1.8,5.2h14.6c0,0,0.8-3.9,1.2-5.2c0.5-1.4,2.6-5.3,2.6-5.3l0,0C65.6,55.3,66.7,52.1,66.8,48.9z"/>
<path class="st4" d="M63.7,48.9c-0.3-6.5-5.8-11.5-12.2-11.3c-6.1,0.3-11,5.2-11.3,11.3c0,2.1,0.6,4.1,1.7,5.8
	c0.4,0.6,0.9,1.2,1.4,1.8l0,0c0,0,1.4,2.7,1.7,3.7c0.2,0.5,1.4,4.1,1.4,4.1h11.7c0,0,0.6-3.1,1-4.1s2.1-4.2,2.1-4.2l0,0
	C62.8,53.9,63.7,51.5,63.7,48.9z"/>
<rect x="45.7" y="75.1" class="st2" width="13.1" height="2.9"/>
<rect x="45" y="68.2" class="st2" width="14.7" height="6.9"/>
<line class="st1" x1="50" y1="27.8" x2="50" y2="26.8"/>
<line class="st5" x1="50" y1="24.8" x2="50" y2="13.6"/>
<line class="st1" x1="50" y1="12.6" x2="50" y2="11.6"/>
<line class="st6" x1="42.9" y1="29.5" x2="40" y2="21.4"/>
<line class="st6" x1="36.9" y1="33.6" x2="31.3" y2="26.9"/>
<line class="st6" x1="32.5" y1="39.5" x2="25" y2="35.1"/>
<line class="st6" x1="30.5" y1="46.5" x2="21.9" y2="44.9"/>
<line class="st6" x1="30.9" y1="53.7" x2="22.4" y2="55.2"/>
<line class="st6" x1="33.8" y1="60.4" x2="26.3" y2="64.8"/>
<line class="st6" x1="70.2" y1="59.2" x2="77.7" y2="63.6"/>
<line class="st6" x1="72.2" y1="51.2" x2="80.8" y2="52.7"/>
<line class="st6" x1="71.8" y1="43.9" x2="80.3" y2="42.4"/>
<line class="st6" x1="68.8" y1="37.2" x2="76.4" y2="32.8"/>
<line class="st7" x1="63.8" y1="31.9" x2="73.9" y2="19.1"/>
<line class="st1" x1="63.8" y1="31.9" x2="64.4" y2="31.1"/>
<line class="st8" x1="65.7" y1="29.5" x2="72.7" y2="20.7"/>
<line class="st1" x1="73.3" y1="19.9" x2="73.9" y2="19.1"/>
<line class="st7" x1="57.3" y1="28.7" x2="63.8" y2="13.8"/>
<line class="st1" x1="57.3" y1="28.7" x2="57.7" y2="27.7"/>
<line class="st8" x1="58.5" y1="25.9" x2="63" y2="15.6"/>
<line class="st1" x1="63.4" y1="14.7" x2="63.8" y2="13.8"/>
</svg>
